ISO-10303-21;
HEADER;
/* Generated by software containing ST-Developer
 * from STEP Tools, Inc. (www.steptools.com) 
 */
/* OPTION: using custom renumber hook */

FILE_DESCRIPTION(
/* description */ ('STEP AP242 Edition 2',
'CAx-IF Rec.Pracs.---Representation and Presentation of Product Manufa
cturing Information (PMI)---4.0---2014-10-13',
'CAx-IF Rec.Pracs.---3D Tessellated Geometry---0.4---2014-09-14','2;1',
'CAx-IF Rec.Pracs.---User Defined Attributes---1.5---2016-08-15'),
/* implementation_level */ '2;1');

FILE_NAME(
/* name */ 'a342eebe-beba-41ed-812f-f2db5a30ceab',
/* time_stamp */ '2026-09-01T09:13:21Z',
/* author */ (''),
/* organization */ (''),
/* preprocessor_version */ 'ST-DEVELOPER v20',
/* originating_system */ 'ONSHAPE BY PTC INC, 1.220',
/* authorisation */ '  ');

FILE_SCHEMA (('AP242_MANAGED_MODEL_BASED_3D_ENGINEERING_MIM_LF { 1 0 10303 442 3 1 4 }'));
ENDSEC;

DATA;
#10=SHAPE_REPRESENTATION_RELATIONSHIP('','',#1180,#11);
#11=ADVANCED_BREP_SHAPE_REPRESENTATION('',(#1178),#1930);
#12=ELLIPSE('',#1211,0.00565685424949238,0.004);
#13=PLANE('',#1185);
#14=PLANE('',#1187);
#15=PLANE('',#1196);
#16=PLANE('',#1200);
#17=PLANE('',#1206);
#18=PLANE('',#1207);
#19=PLANE('',#1210);
#20=PLANE('',#1212);
#21=PLANE('',#1213);
#22=PLANE('',#1219);
#23=PLANE('',#1220);
#24=PLANE('',#1221);
#25=PLANE('',#1223);
#26=PLANE('',#1224);
#27=PLANE('',#1226);
#28=PLANE('',#1231);
#29=PLANE('',#1233);
#30=PLANE('',#1235);
#31=PLANE('',#1237);
#32=PLANE('',#1239);
#33=PLANE('',#1244);
#34=PLANE('',#1245);
#35=PLANE('',#1246);
#36=PLANE('',#1247);
#37=PLANE('',#1248);
#38=PLANE('',#1249);
#39=PLANE('',#1250);
#40=PLANE('',#1251);
#41=PLANE('',#1254);
#42=PLANE('',#1255);
#43=PLANE('',#1256);
#44=PLANE('',#1257);
#45=PLANE('',#1258);
#46=PLANE('',#1259);
#47=PLANE('',#1260);
#48=PLANE('',#1261);
#49=PLANE('',#1266);
#50=PLANE('',#1267);
#51=PLANE('',#1268);
#52=PLANE('',#1269);
#53=PLANE('',#1270);
#54=PLANE('',#1271);
#55=PLANE('',#1272);
#56=CIRCLE('',#1183,0.004);
#57=CIRCLE('',#1184,0.004);
#58=CIRCLE('',#1186,0.004);
#59=CIRCLE('',#1188,0.004);
#60=CIRCLE('',#1189,0.004);
#61=CIRCLE('',#1190,0.004);
#62=CIRCLE('',#1191,0.002);
#63=CIRCLE('',#1192,0.002);
#64=CIRCLE('',#1193,0.004);
#65=CIRCLE('',#1194,0.002);
#66=CIRCLE('',#1195,0.002);
#67=CIRCLE('',#1197,0.004);
#68=CIRCLE('',#1198,0.002);
#69=CIRCLE('',#1199,0.002);
#70=CIRCLE('',#1201,0.004);
#71=CIRCLE('',#1202,0.003);
#72=CIRCLE('',#1203,0.004);
#73=CIRCLE('',#1204,0.002);
#74=CIRCLE('',#1205,0.002);
#75=CIRCLE('',#1208,0.00215);
#76=CIRCLE('',#1209,0.00215);
#77=CIRCLE('',#1214,0.004);
#78=CIRCLE('',#1215,0.004);
#79=CIRCLE('',#1216,0.004);
#80=CIRCLE('',#1217,0.002);
#81=CIRCLE('',#1218,0.002);
#82=CIRCLE('',#1222,0.004);
#83=CIRCLE('',#1225,0.003);
#84=CIRCLE('',#1227,0.00215);
#85=CIRCLE('',#1228,0.00215);
#86=CIRCLE('',#1252,0.002);
#87=CIRCLE('',#1253,0.004);
#88=CIRCLE('',#1262,0.002);
#89=ORIENTED_EDGE('',*,*,#419,.F.);
#90=ORIENTED_EDGE('',*,*,#420,.F.);
#91=ORIENTED_EDGE('',*,*,#421,.F.);
#92=ORIENTED_EDGE('',*,*,#422,.F.);
#93=ORIENTED_EDGE('',*,*,#423,.T.);
#94=ORIENTED_EDGE('',*,*,#424,.T.);
#95=ORIENTED_EDGE('',*,*,#425,.T.);
#96=ORIENTED_EDGE('',*,*,#426,.T.);
#97=ORIENTED_EDGE('',*,*,#427,.T.);
#98=ORIENTED_EDGE('',*,*,#428,.T.);
#99=ORIENTED_EDGE('',*,*,#429,.F.);
#100=ORIENTED_EDGE('',*,*,#430,.T.);
#101=ORIENTED_EDGE('',*,*,#431,.F.);
#102=ORIENTED_EDGE('',*,*,#432,.F.);
#103=ORIENTED_EDGE('',*,*,#433,.T.);
#104=ORIENTED_EDGE('',*,*,#434,.T.);
#105=ORIENTED_EDGE('',*,*,#435,.F.);
#106=ORIENTED_EDGE('',*,*,#436,.T.);
#107=ORIENTED_EDGE('',*,*,#437,.T.);
#108=ORIENTED_EDGE('',*,*,#438,.T.);
#109=ORIENTED_EDGE('',*,*,#439,.T.);
#110=ORIENTED_EDGE('',*,*,#440,.F.);
#111=ORIENTED_EDGE('',*,*,#441,.F.);
#112=ORIENTED_EDGE('',*,*,#442,.T.);
#113=ORIENTED_EDGE('',*,*,#443,.F.);
#114=ORIENTED_EDGE('',*,*,#444,.T.);
#115=ORIENTED_EDGE('',*,*,#445,.T.);
#116=ORIENTED_EDGE('',*,*,#446,.T.);
#117=ORIENTED_EDGE('',*,*,#447,.T.);
#118=ORIENTED_EDGE('',*,*,#448,.T.);
#119=ORIENTED_EDGE('',*,*,#449,.T.);
#120=ORIENTED_EDGE('',*,*,#450,.T.);
#121=ORIENTED_EDGE('',*,*,#434,.F.);
#122=ORIENTED_EDGE('',*,*,#451,.F.);
#123=ORIENTED_EDGE('',*,*,#452,.F.);
#124=ORIENTED_EDGE('',*,*,#453,.F.);
#125=ORIENTED_EDGE('',*,*,#454,.F.);
#126=ORIENTED_EDGE('',*,*,#455,.F.);
#127=ORIENTED_EDGE('',*,*,#456,.F.);
#128=ORIENTED_EDGE('',*,*,#457,.T.);
#129=ORIENTED_EDGE('',*,*,#458,.T.);
#130=ORIENTED_EDGE('',*,*,#420,.T.);
#131=ORIENTED_EDGE('',*,*,#459,.T.);
#132=ORIENTED_EDGE('',*,*,#460,.T.);
#133=ORIENTED_EDGE('',*,*,#461,.F.);
#134=ORIENTED_EDGE('',*,*,#462,.T.);
#135=ORIENTED_EDGE('',*,*,#463,.F.);
#136=ORIENTED_EDGE('',*,*,#464,.T.);
#137=ORIENTED_EDGE('',*,*,#465,.T.);
#138=ORIENTED_EDGE('',*,*,#466,.T.);
#139=ORIENTED_EDGE('',*,*,#467,.T.);
#140=ORIENTED_EDGE('',*,*,#468,.T.);
#141=ORIENTED_EDGE('',*,*,#469,.F.);
#142=ORIENTED_EDGE('',*,*,#470,.T.);
#143=ORIENTED_EDGE('',*,*,#471,.T.);
#144=ORIENTED_EDGE('',*,*,#472,.F.);
#145=ORIENTED_EDGE('',*,*,#473,.F.);
#146=ORIENTED_EDGE('',*,*,#474,.F.);
#147=ORIENTED_EDGE('',*,*,#475,.T.);
#148=ORIENTED_EDGE('',*,*,#476,.F.);
#149=ORIENTED_EDGE('',*,*,#477,.F.);
#150=ORIENTED_EDGE('',*,*,#478,.T.);
#151=ORIENTED_EDGE('',*,*,#425,.F.);
#152=ORIENTED_EDGE('',*,*,#479,.T.);
#153=ORIENTED_EDGE('',*,*,#480,.T.);
#154=ORIENTED_EDGE('',*,*,#481,.F.);
#155=ORIENTED_EDGE('',*,*,#482,.T.);
#156=ORIENTED_EDGE('',*,*,#483,.T.);
#157=ORIENTED_EDGE('',*,*,#484,.F.);
#158=ORIENTED_EDGE('',*,*,#476,.T.);
#159=ORIENTED_EDGE('',*,*,#485,.T.);
#160=ORIENTED_EDGE('',*,*,#465,.F.);
#161=ORIENTED_EDGE('',*,*,#486,.T.);
#162=ORIENTED_EDGE('',*,*,#487,.T.);
#163=ORIENTED_EDGE('',*,*,#488,.F.);
#164=ORIENTED_EDGE('',*,*,#488,.T.);
#165=ORIENTED_EDGE('',*,*,#489,.F.);
#166=ORIENTED_EDGE('',*,*,#490,.T.);
#167=ORIENTED_EDGE('',*,*,#477,.T.);
#168=ORIENTED_EDGE('',*,*,#491,.F.);
#169=ORIENTED_EDGE('',*,*,#492,.F.);
#170=ORIENTED_EDGE('',*,*,#441,.T.);
#171=ORIENTED_EDGE('',*,*,#493,.F.);
#172=ORIENTED_EDGE('',*,*,#480,.F.);
#173=ORIENTED_EDGE('',*,*,#494,.T.);
#174=ORIENTED_EDGE('',*,*,#468,.F.);
#175=ORIENTED_EDGE('',*,*,#495,.F.);
#176=ORIENTED_EDGE('',*,*,#496,.F.);
#177=ORIENTED_EDGE('',*,*,#497,.T.);
#178=ORIENTED_EDGE('',*,*,#498,.F.);
#179=ORIENTED_EDGE('',*,*,#428,.F.);
#180=ORIENTED_EDGE('',*,*,#499,.T.);
#181=ORIENTED_EDGE('',*,*,#500,.F.);
#182=ORIENTED_EDGE('',*,*,#501,.F.);
#183=ORIENTED_EDGE('',*,*,#502,.T.);
#184=ORIENTED_EDGE('',*,*,#503,.F.);
#185=ORIENTED_EDGE('',*,*,#504,.T.);
#186=ORIENTED_EDGE('',*,*,#505,.F.);
#187=ORIENTED_EDGE('',*,*,#506,.F.);
#188=ORIENTED_EDGE('',*,*,#496,.T.);
#189=ORIENTED_EDGE('',*,*,#507,.T.);
#190=ORIENTED_EDGE('',*,*,#508,.T.);
#191=ORIENTED_EDGE('',*,*,#509,.T.);
#192=ORIENTED_EDGE('',*,*,#510,.F.);
#193=ORIENTED_EDGE('',*,*,#511,.T.);
#194=ORIENTED_EDGE('',*,*,#512,.F.);
#195=ORIENTED_EDGE('',*,*,#438,.F.);
#196=ORIENTED_EDGE('',*,*,#513,.T.);
#197=ORIENTED_EDGE('',*,*,#501,.T.);
#198=ORIENTED_EDGE('',*,*,#514,.T.);
#199=ORIENTED_EDGE('',*,*,#515,.F.);
#200=ORIENTED_EDGE('',*,*,#516,.T.);
#201=ORIENTED_EDGE('',*,*,#429,.T.);
#202=ORIENTED_EDGE('',*,*,#498,.T.);
#203=ORIENTED_EDGE('',*,*,#517,.T.);
#204=ORIENTED_EDGE('',*,*,#518,.T.);
#205=ORIENTED_EDGE('',*,*,#515,.T.);
#206=ORIENTED_EDGE('',*,*,#497,.F.);
#207=ORIENTED_EDGE('',*,*,#506,.T.);
#208=ORIENTED_EDGE('',*,*,#517,.F.);
#209=ORIENTED_EDGE('',*,*,#505,.T.);
#210=ORIENTED_EDGE('',*,*,#519,.T.);
#211=ORIENTED_EDGE('',*,*,#459,.F.);
#212=ORIENTED_EDGE('',*,*,#419,.T.);
#213=ORIENTED_EDGE('',*,*,#520,.F.);
#214=ORIENTED_EDGE('',*,*,#431,.T.);
#215=ORIENTED_EDGE('',*,*,#521,.T.);
#216=ORIENTED_EDGE('',*,*,#499,.F.);
#217=ORIENTED_EDGE('',*,*,#427,.F.);
#218=ORIENTED_EDGE('',*,*,#522,.T.);
#219=ORIENTED_EDGE('',*,*,#489,.T.);
#220=ORIENTED_EDGE('',*,*,#487,.F.);
#221=ORIENTED_EDGE('',*,*,#523,.T.);
#222=ORIENTED_EDGE('',*,*,#524,.T.);
#223=ORIENTED_EDGE('',*,*,#525,.T.);
#224=ORIENTED_EDGE('',*,*,#500,.T.);
#225=ORIENTED_EDGE('',*,*,#523,.F.);
#226=ORIENTED_EDGE('',*,*,#486,.F.);
#227=ORIENTED_EDGE('',*,*,#469,.T.);
#228=ORIENTED_EDGE('',*,*,#492,.T.);
#229=ORIENTED_EDGE('',*,*,#525,.F.);
#230=ORIENTED_EDGE('',*,*,#491,.T.);
#231=ORIENTED_EDGE('',*,*,#524,.F.);
#232=ORIENTED_EDGE('',*,*,#440,.T.);
#233=ORIENTED_EDGE('',*,*,#526,.T.);
#234=ORIENTED_EDGE('',*,*,#507,.F.);
#235=ORIENTED_EDGE('',*,*,#495,.T.);
#236=ORIENTED_EDGE('',*,*,#467,.F.);
#237=ORIENTED_EDGE('',*,*,#527,.T.);
#238=ORIENTED_EDGE('',*,*,#474,.T.);
#239=ORIENTED_EDGE('',*,*,#493,.T.);
#240=ORIENTED_EDGE('',*,*,#461,.T.);
#241=ORIENTED_EDGE('',*,*,#528,.F.);
#242=ORIENTED_EDGE('',*,*,#509,.F.);
#243=ORIENTED_EDGE('',*,*,#529,.T.);
#244=ORIENTED_EDGE('',*,*,#530,.T.);
#245=ORIENTED_EDGE('',*,*,#462,.F.);
#246=ORIENTED_EDGE('',*,*,#529,.F.);
#247=ORIENTED_EDGE('',*,*,#512,.T.);
#248=ORIENTED_EDGE('',*,*,#463,.T.);
#249=ORIENTED_EDGE('',*,*,#530,.F.);
#250=ORIENTED_EDGE('',*,*,#511,.F.);
#251=ORIENTED_EDGE('',*,*,#531,.T.);
#252=ORIENTED_EDGE('',*,*,#528,.T.);
#253=ORIENTED_EDGE('',*,*,#464,.F.);
#254=ORIENTED_EDGE('',*,*,#531,.F.);
#255=ORIENTED_EDGE('',*,*,#510,.T.);
#256=ORIENTED_EDGE('',*,*,#470,.F.);
#257=ORIENTED_EDGE('',*,*,#532,.F.);
#258=ORIENTED_EDGE('',*,*,#481,.T.);
#259=ORIENTED_EDGE('',*,*,#533,.T.);
#260=ORIENTED_EDGE('',*,*,#473,.T.);
#261=ORIENTED_EDGE('',*,*,#534,.F.);
#262=ORIENTED_EDGE('',*,*,#482,.F.);
#263=ORIENTED_EDGE('',*,*,#532,.T.);
#264=ORIENTED_EDGE('',*,*,#472,.T.);
#265=ORIENTED_EDGE('',*,*,#535,.F.);
#266=ORIENTED_EDGE('',*,*,#483,.F.);
#267=ORIENTED_EDGE('',*,*,#534,.T.);
#268=ORIENTED_EDGE('',*,*,#471,.F.);
#269=ORIENTED_EDGE('',*,*,#533,.F.);
#270=ORIENTED_EDGE('',*,*,#484,.T.);
#271=ORIENTED_EDGE('',*,*,#535,.T.);
#272=ORIENTED_EDGE('',*,*,#522,.F.);
#273=ORIENTED_EDGE('',*,*,#426,.F.);
#274=ORIENTED_EDGE('',*,*,#478,.F.);
#275=ORIENTED_EDGE('',*,*,#490,.F.);
#276=ORIENTED_EDGE('',*,*,#430,.F.);
#277=ORIENTED_EDGE('',*,*,#516,.F.);
#278=ORIENTED_EDGE('',*,*,#518,.F.);
#279=ORIENTED_EDGE('',*,*,#521,.F.);
#280=ORIENTED_EDGE('',*,*,#508,.F.);
#281=ORIENTED_EDGE('',*,*,#526,.F.);
#282=ORIENTED_EDGE('',*,*,#439,.F.);
#283=ORIENTED_EDGE('',*,*,#514,.F.);
#284=ORIENTED_EDGE('',*,*,#475,.F.);
#285=ORIENTED_EDGE('',*,*,#527,.F.);
#286=ORIENTED_EDGE('',*,*,#466,.F.);
#287=ORIENTED_EDGE('',*,*,#485,.F.);
#288=ORIENTED_EDGE('',*,*,#536,.F.);
#289=ORIENTED_EDGE('',*,*,#537,.T.);
#290=ORIENTED_EDGE('',*,*,#538,.T.);
#291=ORIENTED_EDGE('',*,*,#449,.F.);
#292=ORIENTED_EDGE('',*,*,#538,.F.);
#293=ORIENTED_EDGE('',*,*,#539,.T.);
#294=ORIENTED_EDGE('',*,*,#540,.T.);
#295=ORIENTED_EDGE('',*,*,#435,.T.);
#296=ORIENTED_EDGE('',*,*,#450,.F.);
#297=ORIENTED_EDGE('',*,*,#541,.F.);
#298=ORIENTED_EDGE('',*,*,#542,.T.);
#299=ORIENTED_EDGE('',*,*,#443,.T.);
#300=ORIENTED_EDGE('',*,*,#543,.T.);
#301=ORIENTED_EDGE('',*,*,#445,.F.);
#302=ORIENTED_EDGE('',*,*,#544,.T.);
#303=ORIENTED_EDGE('',*,*,#545,.T.);
#304=ORIENTED_EDGE('',*,*,#546,.T.);
#305=ORIENTED_EDGE('',*,*,#547,.T.);
#306=ORIENTED_EDGE('',*,*,#548,.T.);
#307=ORIENTED_EDGE('',*,*,#549,.T.);
#308=ORIENTED_EDGE('',*,*,#446,.F.);
#309=ORIENTED_EDGE('',*,*,#546,.F.);
#310=ORIENTED_EDGE('',*,*,#549,.F.);
#311=ORIENTED_EDGE('',*,*,#550,.T.);
#312=ORIENTED_EDGE('',*,*,#551,.T.);
#313=ORIENTED_EDGE('',*,*,#447,.F.);
#314=ORIENTED_EDGE('',*,*,#551,.F.);
#315=ORIENTED_EDGE('',*,*,#552,.T.);
#316=ORIENTED_EDGE('',*,*,#536,.T.);
#317=ORIENTED_EDGE('',*,*,#448,.F.);
#318=ORIENTED_EDGE('',*,*,#540,.F.);
#319=ORIENTED_EDGE('',*,*,#553,.T.);
#320=ORIENTED_EDGE('',*,*,#554,.T.);
#321=ORIENTED_EDGE('',*,*,#555,.T.);
#322=ORIENTED_EDGE('',*,*,#547,.F.);
#323=ORIENTED_EDGE('',*,*,#545,.F.);
#324=ORIENTED_EDGE('',*,*,#556,.T.);
#325=ORIENTED_EDGE('',*,*,#541,.T.);
#326=ORIENTED_EDGE('',*,*,#557,.T.);
#327=ORIENTED_EDGE('',*,*,#423,.F.);
#328=ORIENTED_EDGE('',*,*,#558,.F.);
#329=ORIENTED_EDGE('',*,*,#559,.T.);
#330=ORIENTED_EDGE('',*,*,#560,.F.);
#331=ORIENTED_EDGE('',*,*,#561,.T.);
#332=ORIENTED_EDGE('',*,*,#455,.T.);
#333=ORIENTED_EDGE('',*,*,#562,.F.);
#334=ORIENTED_EDGE('',*,*,#563,.T.);
#335=ORIENTED_EDGE('',*,*,#456,.T.);
#336=ORIENTED_EDGE('',*,*,#561,.F.);
#337=ORIENTED_EDGE('',*,*,#458,.F.);
#338=ORIENTED_EDGE('',*,*,#564,.T.);
#339=ORIENTED_EDGE('',*,*,#565,.T.);
#340=ORIENTED_EDGE('',*,*,#421,.T.);
#341=ORIENTED_EDGE('',*,*,#566,.F.);
#342=ORIENTED_EDGE('',*,*,#567,.T.);
#343=ORIENTED_EDGE('',*,*,#568,.T.);
#344=ORIENTED_EDGE('',*,*,#451,.T.);
#345=ORIENTED_EDGE('',*,*,#433,.F.);
#346=ORIENTED_EDGE('',*,*,#568,.F.);
#347=ORIENTED_EDGE('',*,*,#569,.T.);
#348=ORIENTED_EDGE('',*,*,#570,.T.);
#349=ORIENTED_EDGE('',*,*,#452,.T.);
#350=ORIENTED_EDGE('',*,*,#570,.F.);
#351=ORIENTED_EDGE('',*,*,#571,.T.);
#352=ORIENTED_EDGE('',*,*,#572,.T.);
#353=ORIENTED_EDGE('',*,*,#453,.T.);
#354=ORIENTED_EDGE('',*,*,#572,.F.);
#355=ORIENTED_EDGE('',*,*,#573,.T.);
#356=ORIENTED_EDGE('',*,*,#558,.T.);
#357=ORIENTED_EDGE('',*,*,#454,.T.);
#358=ORIENTED_EDGE('',*,*,#574,.T.);
#359=ORIENTED_EDGE('',*,*,#575,.T.);
#360=ORIENTED_EDGE('',*,*,#566,.T.);
#361=ORIENTED_EDGE('',*,*,#432,.T.);
#362=ORIENTED_EDGE('',*,*,#520,.T.);
#363=ORIENTED_EDGE('',*,*,#422,.T.);
#364=ORIENTED_EDGE('',*,*,#565,.F.);
#365=ORIENTED_EDGE('',*,*,#576,.T.);
#366=ORIENTED_EDGE('',*,*,#562,.T.);
#367=ORIENTED_EDGE('',*,*,#560,.T.);
#368=ORIENTED_EDGE('',*,*,#577,.T.);
#369=ORIENTED_EDGE('',*,*,#557,.F.);
#370=ORIENTED_EDGE('',*,*,#543,.F.);
#371=ORIENTED_EDGE('',*,*,#442,.F.);
#372=ORIENTED_EDGE('',*,*,#494,.F.);
#373=ORIENTED_EDGE('',*,*,#479,.F.);
#374=ORIENTED_EDGE('',*,*,#424,.F.);
#375=ORIENTED_EDGE('',*,*,#556,.F.);
#376=ORIENTED_EDGE('',*,*,#544,.F.);
#377=ORIENTED_EDGE('',*,*,#444,.F.);
#378=ORIENTED_EDGE('',*,*,#542,.F.);
#379=ORIENTED_EDGE('',*,*,#576,.F.);
#380=ORIENTED_EDGE('',*,*,#564,.F.);
#381=ORIENTED_EDGE('',*,*,#457,.F.);
#382=ORIENTED_EDGE('',*,*,#563,.F.);
#383=ORIENTED_EDGE('',*,*,#548,.F.);
#384=ORIENTED_EDGE('',*,*,#555,.F.);
#385=ORIENTED_EDGE('',*,*,#578,.F.);
#386=ORIENTED_EDGE('',*,*,#550,.F.);
#387=ORIENTED_EDGE('',*,*,#578,.T.);
#388=ORIENTED_EDGE('',*,*,#554,.F.);
#389=ORIENTED_EDGE('',*,*,#579,.F.);
#390=ORIENTED_EDGE('',*,*,#552,.F.);
#391=ORIENTED_EDGE('',*,*,#579,.T.);
#392=ORIENTED_EDGE('',*,*,#553,.F.);
#393=ORIENTED_EDGE('',*,*,#539,.F.);
#394=ORIENTED_EDGE('',*,*,#537,.F.);
#395=ORIENTED_EDGE('',*,*,#559,.F.);
#396=ORIENTED_EDGE('',*,*,#573,.F.);
#397=ORIENTED_EDGE('',*,*,#580,.F.);
#398=ORIENTED_EDGE('',*,*,#577,.F.);
#399=ORIENTED_EDGE('',*,*,#580,.T.);
#400=ORIENTED_EDGE('',*,*,#571,.F.);
#401=ORIENTED_EDGE('',*,*,#581,.F.);
#402=ORIENTED_EDGE('',*,*,#574,.F.);
#403=ORIENTED_EDGE('',*,*,#581,.T.);
#404=ORIENTED_EDGE('',*,*,#569,.F.);
#405=ORIENTED_EDGE('',*,*,#567,.F.);
#406=ORIENTED_EDGE('',*,*,#575,.F.);
#407=ORIENTED_EDGE('',*,*,#503,.T.);
#408=ORIENTED_EDGE('',*,*,#582,.T.);
#409=ORIENTED_EDGE('',*,*,#436,.F.);
#410=ORIENTED_EDGE('',*,*,#583,.T.);
#411=ORIENTED_EDGE('',*,*,#460,.F.);
#412=ORIENTED_EDGE('',*,*,#519,.F.);
#413=ORIENTED_EDGE('',*,*,#504,.F.);
#414=ORIENTED_EDGE('',*,*,#583,.F.);
#415=ORIENTED_EDGE('',*,*,#437,.F.);
#416=ORIENTED_EDGE('',*,*,#582,.F.);
#417=ORIENTED_EDGE('',*,*,#502,.F.);
#418=ORIENTED_EDGE('',*,*,#513,.F.);
#419=EDGE_CURVE('',#584,#585,#694,.F.);
#420=EDGE_CURVE('',#586,#584,#56,.T.);
#421=EDGE_CURVE('',#587,#586,#695,.T.);
#422=EDGE_CURVE('',#585,#587,#57,.T.);
#423=EDGE_CURVE('',#588,#589,#696,.T.);
#424=EDGE_CURVE('',#589,#590,#697,.T.);
#425=EDGE_CURVE('',#590,#591,#698,.T.);
#426=EDGE_CURVE('',#591,#592,#699,.F.);
#427=EDGE_CURVE('',#592,#593,#700,.T.);
#428=EDGE_CURVE('',#593,#594,#701,.T.);
#429=EDGE_CURVE('',#595,#594,#702,.T.);
#430=EDGE_CURVE('',#595,#596,#58,.F.);
#431=EDGE_CURVE('',#597,#596,#703,.T.);
#432=EDGE_CURVE('',#598,#597,#704,.T.);
#433=EDGE_CURVE('',#598,#599,#705,.T.);
#434=EDGE_CURVE('',#599,#600,#706,.T.);
#435=EDGE_CURVE('',#588,#600,#707,.T.);
#436=EDGE_CURVE('',#601,#602,#708,.T.);
#437=EDGE_CURVE('',#602,#603,#59,.F.);
#438=EDGE_CURVE('',#603,#604,#709,.T.);
#439=EDGE_CURVE('',#604,#605,#60,.F.);
#440=EDGE_CURVE('',#606,#605,#710,.T.);
#441=EDGE_CURVE('',#607,#606,#711,.T.);
#442=EDGE_CURVE('',#607,#608,#61,.T.);
#443=EDGE_CURVE('',#609,#608,#712,.T.);
#444=EDGE_CURVE('',#609,#610,#62,.F.);
#445=EDGE_CURVE('',#610,#611,#713,.T.);
#446=EDGE_CURVE('',#611,#612,#714,.T.);
#447=EDGE_CURVE('',#612,#613,#715,.T.);
#448=EDGE_CURVE('',#613,#614,#716,.T.);
#449=EDGE_CURVE('',#614,#615,#717,.T.);
#450=EDGE_CURVE('',#615,#600,#718,.T.);
#451=EDGE_CURVE('',#616,#599,#719,.T.);
#452=EDGE_CURVE('',#617,#616,#720,.T.);
#453=EDGE_CURVE('',#618,#617,#721,.T.);
#454=EDGE_CURVE('',#619,#618,#722,.T.);
#455=EDGE_CURVE('',#620,#619,#723,.T.);
#456=EDGE_CURVE('',#621,#620,#724,.T.);
#457=EDGE_CURVE('',#621,#622,#63,.F.);
#458=EDGE_CURVE('',#622,#586,#725,.T.);
#459=EDGE_CURVE('',#584,#623,#726,.T.);
#460=EDGE_CURVE('',#623,#601,#64,.T.);
#461=EDGE_CURVE('',#624,#625,#65,.T.);
#462=EDGE_CURVE('',#624,#626,#727,.T.);
#463=EDGE_CURVE('',#627,#626,#66,.T.);
#464=EDGE_CURVE('',#627,#625,#728,.T.);
#465=EDGE_CURVE('',#628,#629,#729,.T.);
#466=EDGE_CURVE('',#629,#630,#67,.T.);
#467=EDGE_CURVE('',#630,#631,#730,.T.);
#468=EDGE_CURVE('',#631,#632,#731,.T.);
#469=EDGE_CURVE('',#628,#632,#732,.T.);
#470=EDGE_CURVE('',#633,#634,#68,.T.);
#471=EDGE_CURVE('',#634,#635,#733,.T.);
#472=EDGE_CURVE('',#636,#635,#69,.T.);
#473=EDGE_CURVE('',#633,#636,#734,.T.);
#474=EDGE_CURVE('',#637,#638,#735,.T.);
#475=EDGE_CURVE('',#637,#639,#70,.F.);
#476=EDGE_CURVE('',#640,#639,#736,.T.);
#477=EDGE_CURVE('',#641,#640,#737,.T.);
#478=EDGE_CURVE('',#641,#591,#71,.T.);
#479=EDGE_CURVE('',#590,#642,#72,.T.);
#480=EDGE_CURVE('',#642,#638,#738,.T.);
#481=EDGE_CURVE('',#643,#644,#73,.T.);
#482=EDGE_CURVE('',#643,#645,#739,.T.);
#483=EDGE_CURVE('',#645,#646,#74,.T.);
#484=EDGE_CURVE('',#644,#646,#740,.T.);
#485=EDGE_CURVE('',#639,#629,#741,.T.);
#486=EDGE_CURVE('',#628,#647,#742,.T.);
#487=EDGE_CURVE('',#647,#648,#743,.T.);
#488=EDGE_CURVE('',#640,#648,#744,.T.);
#489=EDGE_CURVE('',#649,#648,#745,.T.);
#490=EDGE_CURVE('',#649,#641,#746,.T.);
#491=EDGE_CURVE('',#650,#650,#75,.T.);
#492=EDGE_CURVE('',#651,#651,#76,.T.);
#493=EDGE_CURVE('',#638,#606,#747,.F.);
#494=EDGE_CURVE('',#642,#607,#12,.T.);
#495=EDGE_CURVE('',#652,#631,#748,.T.);
#496=EDGE_CURVE('',#653,#652,#749,.T.);
#497=EDGE_CURVE('',#653,#654,#750,.T.);
#498=EDGE_CURVE('',#594,#654,#751,.T.);
#499=EDGE_CURVE('',#593,#655,#752,.T.);
#500=EDGE_CURVE('',#632,#655,#753,.T.);
#501=EDGE_CURVE('',#656,#657,#754,.T.);
#502=EDGE_CURVE('',#656,#658,#77,.F.);
#503=EDGE_CURVE('',#659,#658,#755,.T.);
#504=EDGE_CURVE('',#659,#660,#78,.T.);
#505=EDGE_CURVE('',#661,#660,#756,.T.);
#506=EDGE_CURVE('',#653,#661,#757,.T.);
#507=EDGE_CURVE('',#652,#662,#758,.T.);
#508=EDGE_CURVE('',#662,#657,#79,.F.);
#509=EDGE_CURVE('',#663,#664,#80,.T.);
#510=EDGE_CURVE('',#665,#664,#759,.T.);
#511=EDGE_CURVE('',#665,#666,#81,.T.);
#512=EDGE_CURVE('',#663,#666,#760,.T.);
#513=EDGE_CURVE('',#603,#656,#761,.T.);
#514=EDGE_CURVE('',#657,#604,#762,.T.);
#515=EDGE_CURVE('',#667,#654,#763,.T.);
#516=EDGE_CURVE('',#667,#595,#764,.F.);
#517=EDGE_CURVE('',#661,#668,#765,.T.);
#518=EDGE_CURVE('',#668,#667,#82,.T.);
#519=EDGE_CURVE('',#660,#623,#766,.F.);
#520=EDGE_CURVE('',#597,#585,#767,.F.);
#521=EDGE_CURVE('',#596,#668,#768,.T.);
#522=EDGE_CURVE('',#592,#649,#83,.F.);
#523=EDGE_CURVE('',#647,#655,#769,.T.);
#524=EDGE_CURVE('',#669,#669,#84,.T.);
#525=EDGE_CURVE('',#670,#670,#85,.T.);
#526=EDGE_CURVE('',#605,#662,#770,.F.);
#527=EDGE_CURVE('',#630,#637,#771,.F.);
#528=EDGE_CURVE('',#664,#625,#772,.T.);
#529=EDGE_CURVE('',#663,#624,#773,.T.);
#530=EDGE_CURVE('',#666,#626,#774,.T.);
#531=EDGE_CURVE('',#665,#627,#775,.T.);
#532=EDGE_CURVE('',#643,#633,#776,.T.);
#533=EDGE_CURVE('',#644,#634,#777,.T.);
#534=EDGE_CURVE('',#645,#636,#778,.T.);
#535=EDGE_CURVE('',#646,#635,#779,.T.);
#536=EDGE_CURVE('',#671,#614,#780,.T.);
#537=EDGE_CURVE('',#671,#672,#781,.T.);
#538=EDGE_CURVE('',#672,#615,#782,.T.);
#539=EDGE_CURVE('',#672,#673,#783,.T.);
#540=EDGE_CURVE('',#673,#588,#784,.T.);
#541=EDGE_CURVE('',#674,#675,#785,.T.);
#542=EDGE_CURVE('',#674,#609,#786,.T.);
#543=EDGE_CURVE('',#608,#675,#787,.F.);
#544=EDGE_CURVE('',#610,#676,#788,.F.);
#545=EDGE_CURVE('',#676,#677,#789,.T.);
#546=EDGE_CURVE('',#677,#611,#790,.T.);
#547=EDGE_CURVE('',#677,#678,#791,.T.);
#548=EDGE_CURVE('',#678,#679,#792,.T.);
#549=EDGE_CURVE('',#679,#612,#793,.T.);
#550=EDGE_CURVE('',#679,#680,#794,.T.);
#551=EDGE_CURVE('',#680,#613,#795,.T.);
#552=EDGE_CURVE('',#680,#671,#796,.T.);
#553=EDGE_CURVE('',#673,#681,#797,.T.);
#554=EDGE_CURVE('',#681,#682,#798,.T.);
#555=EDGE_CURVE('',#682,#678,#799,.T.);
#556=EDGE_CURVE('',#676,#674,#86,.F.);
#557=EDGE_CURVE('',#675,#589,#87,.T.);
#558=EDGE_CURVE('',#683,#619,#800,.T.);
#559=EDGE_CURVE('',#683,#684,#801,.F.);
#560=EDGE_CURVE('',#685,#684,#802,.T.);
#561=EDGE_CURVE('',#685,#620,#803,.T.);
#562=EDGE_CURVE('',#686,#685,#804,.T.);
#563=EDGE_CURVE('',#686,#621,#805,.T.);
#564=EDGE_CURVE('',#622,#687,#806,.F.);
#565=EDGE_CURVE('',#687,#587,#807,.T.);
#566=EDGE_CURVE('',#688,#598,#808,.T.);
#567=EDGE_CURVE('',#688,#689,#809,.F.);
#568=EDGE_CURVE('',#689,#616,#810,.T.);
#569=EDGE_CURVE('',#689,#690,#811,.T.);
#570=EDGE_CURVE('',#690,#617,#812,.T.);
#571=EDGE_CURVE('',#690,#691,#813,.T.);
#572=EDGE_CURVE('',#691,#618,#814,.T.);
#573=EDGE_CURVE('',#691,#683,#815,.T.);
#574=EDGE_CURVE('',#692,#693,#816,.T.);
#575=EDGE_CURVE('',#693,#688,#817,.T.);
#576=EDGE_CURVE('',#687,#686,#88,.F.);
#577=EDGE_CURVE('',#684,#692,#818,.T.);
#578=EDGE_CURVE('',#680,#682,#819,.F.);
#579=EDGE_CURVE('',#671,#681,#820,.F.);
#580=EDGE_CURVE('',#692,#691,#821,.F.);
#581=EDGE_CURVE('',#693,#690,#822,.F.);
#582=EDGE_CURVE('',#658,#602,#823,.F.);
#583=EDGE_CURVE('',#601,#659,#824,.T.);
#584=VERTEX_POINT('',#1597);
#585=VERTEX_POINT('',#1598);
#586=VERTEX_POINT('',#1600);
#587=VERTEX_POINT('',#1602);
#588=VERTEX_POINT('',#1606);
#589=VERTEX_POINT('',#1607);
#590=VERTEX_POINT('',#1609);
#591=VERTEX_POINT('',#1611);
#592=VERTEX_POINT('',#1613);
#593=VERTEX_POINT('',#1615);
#594=VERTEX_POINT('',#1617);
#595=VERTEX_POINT('',#1619);
#596=VERTEX_POINT('',#1621);
#597=VERTEX_POINT('',#1623);
#598=VERTEX_POINT('',#1625);
#599=VERTEX_POINT('',#1627);
#600=VERTEX_POINT('',#1629);
#601=VERTEX_POINT('',#1633);
#602=VERTEX_POINT('',#1634);
#603=VERTEX_POINT('',#1636);
#604=VERTEX_POINT('',#1638);
#605=VERTEX_POINT('',#1640);
#606=VERTEX_POINT('',#1642);
#607=VERTEX_POINT('',#1644);
#608=VERTEX_POINT('',#1646);
#609=VERTEX_POINT('',#1648);
#610=VERTEX_POINT('',#1650);
#611=VERTEX_POINT('',#1652);
#612=VERTEX_POINT('',#1654);
#613=VERTEX_POINT('',#1656);
#614=VERTEX_POINT('',#1658);
#615=VERTEX_POINT('',#1660);
#616=VERTEX_POINT('',#1663);
#617=VERTEX_POINT('',#1665);
#618=VERTEX_POINT('',#1667);
#619=VERTEX_POINT('',#1669);
#620=VERTEX_POINT('',#1671);
#621=VERTEX_POINT('',#1673);
#622=VERTEX_POINT('',#1675);
#623=VERTEX_POINT('',#1678);
#624=VERTEX_POINT('',#1681);
#625=VERTEX_POINT('',#1682);
#626=VERTEX_POINT('',#1684);
#627=VERTEX_POINT('',#1686);
#628=VERTEX_POINT('',#1690);
#629=VERTEX_POINT('',#1691);
#630=VERTEX_POINT('',#1693);
#631=VERTEX_POINT('',#1695);
#632=VERTEX_POINT('',#1697);
#633=VERTEX_POINT('',#1700);
#634=VERTEX_POINT('',#1701);
#635=VERTEX_POINT('',#1703);
#636=VERTEX_POINT('',#1705);
#637=VERTEX_POINT('',#1709);
#638=VERTEX_POINT('',#1710);
#639=VERTEX_POINT('',#1712);
#640=VERTEX_POINT('',#1714);
#641=VERTEX_POINT('',#1716);
#642=VERTEX_POINT('',#1719);
#643=VERTEX_POINT('',#1722);
#644=VERTEX_POINT('',#1723);
#645=VERTEX_POINT('',#1725);
#646=VERTEX_POINT('',#1727);
#647=VERTEX_POINT('',#1732);
#648=VERTEX_POINT('',#1734);
#649=VERTEX_POINT('',#1738);
#650=VERTEX_POINT('',#1741);
#651=VERTEX_POINT('',#1743);
#652=VERTEX_POINT('',#1749);
#653=VERTEX_POINT('',#1751);
#654=VERTEX_POINT('',#1753);
#655=VERTEX_POINT('',#1756);
#656=VERTEX_POINT('',#1760);
#657=VERTEX_POINT('',#1761);
#658=VERTEX_POINT('',#1763);
#659=VERTEX_POINT('',#1765);
#660=VERTEX_POINT('',#1767);
#661=VERTEX_POINT('',#1769);
#662=VERTEX_POINT('',#1772);
#663=VERTEX_POINT('',#1775);
#664=VERTEX_POINT('',#1776);
#665=VERTEX_POINT('',#1778);
#666=VERTEX_POINT('',#1780);
#667=VERTEX_POINT('',#1787);
#668=VERTEX_POINT('',#1791);
#669=VERTEX_POINT('',#1802);
#670=VERTEX_POINT('',#1804);
#671=VERTEX_POINT('',#1832);
#672=VERTEX_POINT('',#1834);
#673=VERTEX_POINT('',#1838);
#674=VERTEX_POINT('',#1842);
#675=VERTEX_POINT('',#1843);
#676=VERTEX_POINT('',#1848);
#677=VERTEX_POINT('',#1850);
#678=VERTEX_POINT('',#1854);
#679=VERTEX_POINT('',#1856);
#680=VERTEX_POINT('',#1860);
#681=VERTEX_POINT('',#1866);
#682=VERTEX_POINT('',#1868);
#683=VERTEX_POINT('',#1874);
#684=VERTEX_POINT('',#1876);
#685=VERTEX_POINT('',#1878);
#686=VERTEX_POINT('',#1882);
#687=VERTEX_POINT('',#1886);
#688=VERTEX_POINT('',#1890);
#689=VERTEX_POINT('',#1892);
#690=VERTEX_POINT('',#1896);
#691=VERTEX_POINT('',#1900);
#692=VERTEX_POINT('',#1906);
#693=VERTEX_POINT('',#1907);
#694=LINE('',#1596,#825);
#695=LINE('',#1601,#826);
#696=LINE('',#1605,#827);
#697=LINE('',#1608,#828);
#698=LINE('',#1610,#829);
#699=LINE('',#1612,#830);
#700=LINE('',#1614,#831);
#701=LINE('',#1616,#832);
#702=LINE('',#1618,#833);
#703=LINE('',#1622,#834);
#704=LINE('',#1624,#835);
#705=LINE('',#1626,#836);
#706=LINE('',#1628,#837);
#707=LINE('',#1630,#838);
#708=LINE('',#1632,#839);
#709=LINE('',#1637,#840);
#710=LINE('',#1641,#841);
#711=LINE('',#1643,#842);
#712=LINE('',#1647,#843);
#713=LINE('',#1651,#844);
#714=LINE('',#1653,#845);
#715=LINE('',#1655,#846);
#716=LINE('',#1657,#847);
#717=LINE('',#1659,#848);
#718=LINE('',#1661,#849);
#719=LINE('',#1662,#850);
#720=LINE('',#1664,#851);
#721=LINE('',#1666,#852);
#722=LINE('',#1668,#853);
#723=LINE('',#1670,#854);
#724=LINE('',#1672,#855);
#725=LINE('',#1676,#856);
#726=LINE('',#1677,#857);
#727=LINE('',#1683,#858);
#728=LINE('',#1687,#859);
#729=LINE('',#1689,#860);
#730=LINE('',#1694,#861);
#731=LINE('',#1696,#862);
#732=LINE('',#1698,#863);
#733=LINE('',#1702,#864);
#734=LINE('',#1706,#865);
#735=LINE('',#1708,#866);
#736=LINE('',#1713,#867);
#737=LINE('',#1715,#868);
#738=LINE('',#1720,#869);
#739=LINE('',#1724,#870);
#740=LINE('',#1728,#871);
#741=LINE('',#1730,#872);
#742=LINE('',#1731,#873);
#743=LINE('',#1733,#874);
#744=LINE('',#1735,#875);
#745=LINE('',#1737,#876);
#746=LINE('',#1739,#877);
#747=LINE('',#1745,#878);
#748=LINE('',#1748,#879);
#749=LINE('',#1750,#880);
#750=LINE('',#1752,#881);
#751=LINE('',#1754,#882);
#752=LINE('',#1755,#883);
#753=LINE('',#1757,#884);
#754=LINE('',#1759,#885);
#755=LINE('',#1764,#886);
#756=LINE('',#1768,#887);
#757=LINE('',#1770,#888);
#758=LINE('',#1771,#889);
#759=LINE('',#1777,#890);
#760=LINE('',#1781,#891);
#761=LINE('',#1783,#892);
#762=LINE('',#1784,#893);
#763=LINE('',#1786,#894);
#764=LINE('',#1788,#895);
#765=LINE('',#1790,#896);
#766=LINE('',#1794,#897);
#767=LINE('',#1795,#898);
#768=LINE('',#1796,#899);
#769=LINE('',#1799,#900);
#770=LINE('',#1808,#901);
#771=LINE('',#1809,#902);
#772=LINE('',#1811,#903);
#773=LINE('',#1812,#904);
#774=LINE('',#1814,#905);
#775=LINE('',#1816,#906);
#776=LINE('',#1819,#907);
#777=LINE('',#1820,#908);
#778=LINE('',#1822,#909);
#779=LINE('',#1824,#910);
#780=LINE('',#1831,#911);
#781=LINE('',#1833,#912);
#782=LINE('',#1835,#913);
#783=LINE('',#1837,#914);
#784=LINE('',#1839,#915);
#785=LINE('',#1841,#916);
#786=LINE('',#1844,#917);
#787=LINE('',#1845,#918);
#788=LINE('',#1847,#919);
#789=LINE('',#1849,#920);
#790=LINE('',#1851,#921);
#791=LINE('',#1853,#922);
#792=LINE('',#1855,#923);
#793=LINE('',#1857,#924);
#794=LINE('',#1859,#925);
#795=LINE('',#1861,#926);
#796=LINE('',#1863,#927);
#797=LINE('',#1865,#928);
#798=LINE('',#1867,#929);
#799=LINE('',#1869,#930);
#800=LINE('',#1873,#931);
#801=LINE('',#1875,#932);
#802=LINE('',#1877,#933);
#803=LINE('',#1879,#934);
#804=LINE('',#1881,#935);
#805=LINE('',#1883,#936);
#806=LINE('',#1885,#937);
#807=LINE('',#1887,#938);
#808=LINE('',#1889,#939);
#809=LINE('',#1891,#940);
#810=LINE('',#1893,#941);
#811=LINE('',#1895,#942);
#812=LINE('',#1897,#943);
#813=LINE('',#1899,#944);
#814=LINE('',#1901,#945);
#815=LINE('',#1903,#946);
#816=LINE('',#1905,#947);
#817=LINE('',#1908,#948);
#818=LINE('',#1910,#949);
#819=LINE('',#1915,#950);
#820=LINE('',#1917,#951);
#821=LINE('',#1920,#952);
#822=LINE('',#1922,#953);
#823=LINE('',#1925,#954);
#824=LINE('',#1926,#955);
#825=VECTOR('',#1279,1.);
#826=VECTOR('',#1282,1.);
#827=VECTOR('',#1287,1.);
#828=VECTOR('',#1288,1.);
#829=VECTOR('',#1289,1.);
#830=VECTOR('',#1290,1.);
#831=VECTOR('',#1291,1.);
#832=VECTOR('',#1292,1.);
#833=VECTOR('',#1293,1.);
#834=VECTOR('',#1296,1.);
#835=VECTOR('',#1297,1.);
#836=VECTOR('',#1298,1.);
#837=VECTOR('',#1299,1.);
#838=VECTOR('',#1300,1.);
#839=VECTOR('',#1303,1.);
#840=VECTOR('',#1306,1.);
#841=VECTOR('',#1309,1.);
#842=VECTOR('',#1310,1.);
#843=VECTOR('',#1313,1.);
#844=VECTOR('',#1316,1.);
#845=VECTOR('',#1317,1.);
#846=VECTOR('',#1318,1.);
#847=VECTOR('',#1319,1.);
#848=VECTOR('',#1320,1.);
#849=VECTOR('',#1321,1.);
#850=VECTOR('',#1322,1.);
#851=VECTOR('',#1323,1.);
#852=VECTOR('',#1324,1.);
#853=VECTOR('',#1325,1.);
#854=VECTOR('',#1326,1.);
#855=VECTOR('',#1327,1.);
#856=VECTOR('',#1330,1.);
#857=VECTOR('',#1331,1.);
#858=VECTOR('',#1336,1.);
#859=VECTOR('',#1339,1.);
#860=VECTOR('',#1342,1.);
#861=VECTOR('',#1345,1.);
#862=VECTOR('',#1346,1.);
#863=VECTOR('',#1347,1.);
#864=VECTOR('',#1350,1.);
#865=VECTOR('',#1353,1.);
#866=VECTOR('',#1356,1.);
#867=VECTOR('',#1359,1.);
#868=VECTOR('',#1360,1.);
#869=VECTOR('',#1365,1.);
#870=VECTOR('',#1368,1.);
#871=VECTOR('',#1371,1.);
#872=VECTOR('',#1374,1.);
#873=VECTOR('',#1375,1.);
#874=VECTOR('',#1376,1.);
#875=VECTOR('',#1377,1.);
#876=VECTOR('',#1380,1.);
#877=VECTOR('',#1381,1.);
#878=VECTOR('',#1388,1.);
#879=VECTOR('',#1393,1.);
#880=VECTOR('',#1394,1.);
#881=VECTOR('',#1395,1.);
#882=VECTOR('',#1396,1.);
#883=VECTOR('',#1397,1.);
#884=VECTOR('',#1398,1.);
#885=VECTOR('',#1401,1.);
#886=VECTOR('',#1404,1.);
#887=VECTOR('',#1407,1.);
#888=VECTOR('',#1408,1.);
#889=VECTOR('',#1409,1.);
#890=VECTOR('',#1414,1.);
#891=VECTOR('',#1417,1.);
#892=VECTOR('',#1420,1.);
#893=VECTOR('',#1421,1.);
#894=VECTOR('',#1424,1.);
#895=VECTOR('',#1425,1.);
#896=VECTOR('',#1428,1.);
#897=VECTOR('',#1433,1.);
#898=VECTOR('',#1434,1.);
#899=VECTOR('',#1435,1.);
#900=VECTOR('',#1440,1.);
#901=VECTOR('',#1453,1.);
#902=VECTOR('',#1454,1.);
#903=VECTOR('',#1457,1.);
#904=VECTOR('',#1458,1.);
#905=VECTOR('',#1461,1.);
#906=VECTOR('',#1464,1.);
#907=VECTOR('',#1469,1.);
#908=VECTOR('',#1470,1.);
#909=VECTOR('',#1473,1.);
#910=VECTOR('',#1476,1.);
#911=VECTOR('',#1489,1.);
#912=VECTOR('',#1490,1.);
#913=VECTOR('',#1491,1.);
#914=VECTOR('',#1494,1.);
#915=VECTOR('',#1495,1.);
#916=VECTOR('',#1498,1.);
#917=VECTOR('',#1499,1.);
#918=VECTOR('',#1500,1.);
#919=VECTOR('',#1503,1.);
#920=VECTOR('',#1504,1.);
#921=VECTOR('',#1505,1.);
#922=VECTOR('',#1508,1.);
#923=VECTOR('',#1509,1.);
#924=VECTOR('',#1510,1.);
#925=VECTOR('',#1513,1.);
#926=VECTOR('',#1514,1.);
#927=VECTOR('',#1517,1.);
#928=VECTOR('',#1520,1.);
#929=VECTOR('',#1521,1.);
#930=VECTOR('',#1522,1.);
#931=VECTOR('',#1529,1.);
#932=VECTOR('',#1530,1.);
#933=VECTOR('',#1531,1.);
#934=VECTOR('',#1532,1.);
#935=VECTOR('',#1535,1.);
#936=VECTOR('',#1536,1.);
#937=VECTOR('',#1539,1.);
#938=VECTOR('',#1540,1.);
#939=VECTOR('',#1543,1.);
#940=VECTOR('',#1544,1.);
#941=VECTOR('',#1545,1.);
#942=VECTOR('',#1548,1.);
#943=VECTOR('',#1549,1.);
#944=VECTOR('',#1552,1.);
#945=VECTOR('',#1553,1.);
#946=VECTOR('',#1556,1.);
#947=VECTOR('',#1559,1.);
#948=VECTOR('',#1560,1.);
#949=VECTOR('',#1563,1.);
#950=VECTOR('',#1572,1.);
#951=VECTOR('',#1575,1.);
#952=VECTOR('',#1580,1.);
#953=VECTOR('',#1583,1.);
#954=VECTOR('',#1588,1.);
#955=VECTOR('',#1589,1.);
#956=EDGE_LOOP('',(#89,#90,#91,#92));
#957=EDGE_LOOP('',(#93,#94,#95,#96,#97,#98,#99,#100,#101,#102,#103,#104,
#105));
#958=EDGE_LOOP('',(#106,#107,#108,#109,#110,#111,#112,#113,#114,#115,#116,
#117,#118,#119,#120,#121,#122,#123,#124,#125,#126,#127,#128,#129,#130,#131,
#132));
#959=EDGE_LOOP('',(#133,#134,#135,#136));
#960=EDGE_LOOP('',(#137,#138,#139,#140,#141));
#961=EDGE_LOOP('',(#142,#143,#144,#145));
#962=EDGE_LOOP('',(#146,#147,#148,#149,#150,#151,#152,#153));
#963=EDGE_LOOP('',(#154,#155,#156,#157));
#964=EDGE_LOOP('',(#158,#159,#160,#161,#162,#163));
#965=EDGE_LOOP('',(#164,#165,#166,#167));
#966=EDGE_LOOP('',(#168));
#967=EDGE_LOOP('',(#169));
#968=EDGE_LOOP('',(#170,#171,#172,#173));
#969=EDGE_LOOP('',(#174,#175,#176,#177,#178,#179,#180,#181));
#970=EDGE_LOOP('',(#182,#183,#184,#185,#186,#187,#188,#189,#190));
#971=EDGE_LOOP('',(#191,#192,#193,#194));
#972=EDGE_LOOP('',(#195,#196,#197,#198));
#973=EDGE_LOOP('',(#199,#200,#201,#202));
#974=EDGE_LOOP('',(#203,#204,#205,#206,#207));
#975=EDGE_LOOP('',(#208,#209,#210,#211,#212,#213,#214,#215));
#976=EDGE_LOOP('',(#216,#217,#218,#219,#220,#221));
#977=EDGE_LOOP('',(#222));
#978=EDGE_LOOP('',(#223));
#979=EDGE_LOOP('',(#224,#225,#226,#227));
#980=EDGE_LOOP('',(#228));
#981=EDGE_LOOP('',(#229));
#982=EDGE_LOOP('',(#230));
#983=EDGE_LOOP('',(#231));
#984=EDGE_LOOP('',(#232,#233,#234,#235,#236,#237,#238,#239));
#985=EDGE_LOOP('',(#240,#241,#242,#243));
#986=EDGE_LOOP('',(#244,#245,#246,#247));
#987=EDGE_LOOP('',(#248,#249,#250,#251));
#988=EDGE_LOOP('',(#252,#253,#254,#255));
#989=EDGE_LOOP('',(#256,#257,#258,#259));
#990=EDGE_LOOP('',(#260,#261,#262,#263));
#991=EDGE_LOOP('',(#264,#265,#266,#267));
#992=EDGE_LOOP('',(#268,#269,#270,#271));
#993=EDGE_LOOP('',(#272,#273,#274,#275));
#994=EDGE_LOOP('',(#276,#277,#278,#279));
#995=EDGE_LOOP('',(#280,#281,#282,#283));
#996=EDGE_LOOP('',(#284,#285,#286,#287));
#997=EDGE_LOOP('',(#288,#289,#290,#291));
#998=EDGE_LOOP('',(#292,#293,#294,#295,#296));
#999=EDGE_LOOP('',(#297,#298,#299,#300));
#1000=EDGE_LOOP('',(#301,#302,#303,#304));
#1001=EDGE_LOOP('',(#305,#306,#307,#308,#309));
#1002=EDGE_LOOP('',(#310,#311,#312,#313));
#1003=EDGE_LOOP('',(#314,#315,#316,#317));
#1004=EDGE_LOOP('',(#318,#319,#320,#321,#322,#323,#324,#325,#326,#327));
#1005=EDGE_LOOP('',(#328,#329,#330,#331,#332));
#1006=EDGE_LOOP('',(#333,#334,#335,#336));
#1007=EDGE_LOOP('',(#337,#338,#339,#340));
#1008=EDGE_LOOP('',(#341,#342,#343,#344,#345));
#1009=EDGE_LOOP('',(#346,#347,#348,#349));
#1010=EDGE_LOOP('',(#350,#351,#352,#353));
#1011=EDGE_LOOP('',(#354,#355,#356,#357));
#1012=EDGE_LOOP('',(#358,#359,#360,#361,#362,#363,#364,#365,#366,#367,#368));
#1013=EDGE_LOOP('',(#369,#370,#371,#372,#373,#374));
#1014=EDGE_LOOP('',(#375,#376,#377,#378));
#1015=EDGE_LOOP('',(#379,#380,#381,#382));
#1016=EDGE_LOOP('',(#383,#384,#385,#386));
#1017=EDGE_LOOP('',(#387,#388,#389,#390));
#1018=EDGE_LOOP('',(#391,#392,#393,#394));
#1019=EDGE_LOOP('',(#395,#396,#397,#398));
#1020=EDGE_LOOP('',(#399,#400,#401,#402));
#1021=EDGE_LOOP('',(#403,#404,#405,#406));
#1022=EDGE_LOOP('',(#407,#408,#409,#410));
#1023=EDGE_LOOP('',(#411,#412,#413,#414));
#1024=EDGE_LOOP('',(#415,#416,#417,#418));
#1025=FACE_BOUND('',#956,.T.);
#1026=FACE_BOUND('',#957,.T.);
#1027=FACE_BOUND('',#958,.T.);
#1028=FACE_BOUND('',#959,.T.);
#1029=FACE_BOUND('',#960,.T.);
#1030=FACE_BOUND('',#961,.T.);
#1031=FACE_BOUND('',#962,.T.);
#1032=FACE_BOUND('',#963,.T.);
#1033=FACE_BOUND('',#964,.T.);
#1034=FACE_BOUND('',#965,.T.);
#1035=FACE_BOUND('',#966,.T.);
#1036=FACE_BOUND('',#967,.T.);
#1037=FACE_BOUND('',#968,.T.);
#1038=FACE_BOUND('',#969,.T.);
#1039=FACE_BOUND('',#970,.T.);
#1040=FACE_BOUND('',#971,.T.);
#1041=FACE_BOUND('',#972,.T.);
#1042=FACE_BOUND('',#973,.T.);
#1043=FACE_BOUND('',#974,.T.);
#1044=FACE_BOUND('',#975,.T.);
#1045=FACE_BOUND('',#976,.T.);
#1046=FACE_BOUND('',#977,.T.);
#1047=FACE_BOUND('',#978,.T.);
#1048=FACE_BOUND('',#979,.T.);
#1049=FACE_BOUND('',#980,.T.);
#1050=FACE_BOUND('',#981,.T.);
#1051=FACE_BOUND('',#982,.T.);
#1052=FACE_BOUND('',#983,.T.);
#1053=FACE_BOUND('',#984,.T.);
#1054=FACE_BOUND('',#985,.T.);
#1055=FACE_BOUND('',#986,.T.);
#1056=FACE_BOUND('',#987,.T.);
#1057=FACE_BOUND('',#988,.T.);
#1058=FACE_BOUND('',#989,.T.);
#1059=FACE_BOUND('',#990,.T.);
#1060=FACE_BOUND('',#991,.T.);
#1061=FACE_BOUND('',#992,.T.);
#1062=FACE_BOUND('',#993,.T.);
#1063=FACE_BOUND('',#994,.T.);
#1064=FACE_BOUND('',#995,.T.);
#1065=FACE_BOUND('',#996,.T.);
#1066=FACE_BOUND('',#997,.T.);
#1067=FACE_BOUND('',#998,.T.);
#1068=FACE_BOUND('',#999,.T.);
#1069=FACE_BOUND('',#1000,.T.);
#1070=FACE_BOUND('',#1001,.T.);
#1071=FACE_BOUND('',#1002,.T.);
#1072=FACE_BOUND('',#1003,.T.);
#1073=FACE_BOUND('',#1004,.T.);
#1074=FACE_BOUND('',#1005,.T.);
#1075=FACE_BOUND('',#1006,.T.);
#1076=FACE_BOUND('',#1007,.T.);
#1077=FACE_BOUND('',#1008,.T.);
#1078=FACE_BOUND('',#1009,.T.);
#1079=FACE_BOUND('',#1010,.T.);
#1080=FACE_BOUND('',#1011,.T.);
#1081=FACE_BOUND('',#1012,.T.);
#1082=FACE_BOUND('',#1013,.T.);
#1083=FACE_BOUND('',#1014,.T.);
#1084=FACE_BOUND('',#1015,.T.);
#1085=FACE_BOUND('',#1016,.T.);
#1086=FACE_BOUND('',#1017,.T.);
#1087=FACE_BOUND('',#1018,.T.);
#1088=FACE_BOUND('',#1019,.T.);
#1089=FACE_BOUND('',#1020,.T.);
#1090=FACE_BOUND('',#1021,.T.);
#1091=FACE_BOUND('',#1022,.T.);
#1092=FACE_BOUND('',#1023,.T.);
#1093=FACE_BOUND('',#1024,.T.);
#1094=CYLINDRICAL_SURFACE('',#1182,0.004);
#1095=CYLINDRICAL_SURFACE('',#1229,0.00215);
#1096=CYLINDRICAL_SURFACE('',#1230,0.00215);
#1097=CYLINDRICAL_SURFACE('',#1232,0.002);
#1098=CYLINDRICAL_SURFACE('',#1234,0.002);
#1099=CYLINDRICAL_SURFACE('',#1236,0.002);
#1100=CYLINDRICAL_SURFACE('',#1238,0.002);
#1101=CYLINDRICAL_SURFACE('',#1240,0.003);
#1102=CYLINDRICAL_SURFACE('',#1241,0.004);
#1103=CYLINDRICAL_SURFACE('',#1242,0.004);
#1104=CYLINDRICAL_SURFACE('',#1243,0.004);
#1105=CYLINDRICAL_SURFACE('',#1263,0.004);
#1106=CYLINDRICAL_SURFACE('',#1264,0.002);
#1107=CYLINDRICAL_SURFACE('',#1265,0.002);
#1108=CYLINDRICAL_SURFACE('',#1273,0.004);
#1109=CYLINDRICAL_SURFACE('',#1274,0.004);
#1110=ADVANCED_FACE('',(#1025),#1094,.F.);
#1111=ADVANCED_FACE('',(#1026),#13,.F.);
#1112=ADVANCED_FACE('',(#1027,#1028),#14,.F.);
#1113=ADVANCED_FACE('',(#1029,#1030),#15,.T.);
#1114=ADVANCED_FACE('',(#1031,#1032),#16,.F.);
#1115=ADVANCED_FACE('',(#1033),#17,.F.);
#1116=ADVANCED_FACE('',(#1034,#1035,#1036),#18,.T.);
#1117=ADVANCED_FACE('',(#1037),#19,.F.);
#1118=ADVANCED_FACE('',(#1038),#20,.T.);
#1119=ADVANCED_FACE('',(#1039,#1040),#21,.F.);
#1120=ADVANCED_FACE('',(#1041),#22,.F.);
#1121=ADVANCED_FACE('',(#1042),#23,.F.);
#1122=ADVANCED_FACE('',(#1043),#24,.T.);
#1123=ADVANCED_FACE('',(#1044),#25,.T.);
#1124=ADVANCED_FACE('',(#1045),#26,.T.);
#1125=ADVANCED_FACE('',(#1046,#1047,#1048),#27,.F.);
#1126=ADVANCED_FACE('',(#1049,#1050),#1095,.F.);
#1127=ADVANCED_FACE('',(#1051,#1052),#1096,.F.);
#1128=ADVANCED_FACE('',(#1053),#28,.T.);
#1129=ADVANCED_FACE('',(#1054),#1097,.F.);
#1130=ADVANCED_FACE('',(#1055),#29,.T.);
#1131=ADVANCED_FACE('',(#1056),#1098,.F.);
#1132=ADVANCED_FACE('',(#1057),#30,.T.);
#1133=ADVANCED_FACE('',(#1058),#1099,.F.);
#1134=ADVANCED_FACE('',(#1059),#31,.F.);
#1135=ADVANCED_FACE('',(#1060),#1100,.F.);
#1136=ADVANCED_FACE('',(#1061),#32,.T.);
#1137=ADVANCED_FACE('',(#1062),#1101,.F.);
#1138=ADVANCED_FACE('',(#1063),#1102,.T.);
#1139=ADVANCED_FACE('',(#1064),#1103,.T.);
#1140=ADVANCED_FACE('',(#1065),#1104,.T.);
#1141=ADVANCED_FACE('',(#1066),#33,.T.);
#1142=ADVANCED_FACE('',(#1067),#34,.T.);
#1143=ADVANCED_FACE('',(#1068),#35,.F.);
#1144=ADVANCED_FACE('',(#1069),#36,.T.);
#1145=ADVANCED_FACE('',(#1070),#37,.T.);
#1146=ADVANCED_FACE('',(#1071),#38,.T.);
#1147=ADVANCED_FACE('',(#1072),#39,.T.);
#1148=ADVANCED_FACE('',(#1073),#40,.F.);
#1149=ADVANCED_FACE('',(#1074),#41,.F.);
#1150=ADVANCED_FACE('',(#1075),#42,.F.);
#1151=ADVANCED_FACE('',(#1076),#43,.T.);
#1152=ADVANCED_FACE('',(#1077),#44,.F.);
#1153=ADVANCED_FACE('',(#1078),#45,.F.);
#1154=ADVANCED_FACE('',(#1079),#46,.F.);
#1155=ADVANCED_FACE('',(#1080),#47,.F.);
#1156=ADVANCED_FACE('',(#1081),#48,.F.);
#1157=ADVANCED_FACE('',(#1082),#1105,.F.);
#1158=ADVANCED_FACE('',(#1083),#1106,.T.);
#1159=ADVANCED_FACE('',(#1084),#1107,.T.);
#1160=ADVANCED_FACE('',(#1085),#49,.T.);
#1161=ADVANCED_FACE('',(#1086),#50,.T.);
#1162=ADVANCED_FACE('',(#1087),#51,.T.);
#1163=ADVANCED_FACE('',(#1088),#52,.F.);
#1164=ADVANCED_FACE('',(#1089),#53,.F.);
#1165=ADVANCED_FACE('',(#1090),#54,.F.);
#1166=ADVANCED_FACE('',(#1091),#55,.F.);
#1167=ADVANCED_FACE('',(#1092),#1108,.F.);
#1168=ADVANCED_FACE('',(#1093),#1109,.T.);
#1169=CLOSED_SHELL('',(#1110,#1111,#1112,#1113,#1114,#1115,#1116,#1117,
#1118,#1119,#1120,#1121,#1122,#1123,#1124,#1125,#1126,#1127,#1128,#1129,
#1130,#1131,#1132,#1133,#1134,#1135,#1136,#1137,#1138,#1139,#1140,#1141,
#1142,#1143,#1144,#1145,#1146,#1147,#1148,#1149,#1150,#1151,#1152,#1153,
#1154,#1155,#1156,#1157,#1158,#1159,#1160,#1161,#1162,#1163,#1164,#1165,
#1166,#1167,#1168));
#1170=STYLED_ITEM('',(#1171),#1178);
#1171=PRESENTATION_STYLE_ASSIGNMENT((#1172));
#1172=SURFACE_STYLE_USAGE(.BOTH.,#1173);
#1173=SURFACE_SIDE_STYLE('',(#1174));
#1174=SURFACE_STYLE_FILL_AREA(#1175);
#1175=FILL_AREA_STYLE('',(#1176));
#1176=FILL_AREA_STYLE_COLOUR('',#1177);
#1177=COLOUR_RGB('',0.768627450980392,0.886274509803922,0.952941176470588);
#1178=MANIFOLD_SOLID_BREP('V-unit_dr\X2\017E\X0\alo_V6',#1169);
#1179=SHAPE_DEFINITION_REPRESENTATION(#1935,#1180);
#1180=SHAPE_REPRESENTATION('V-unit_dr\X2\017E\X0\alo_V6',(#1181),#1930);
#1181=AXIS2_PLACEMENT_3D('',#1594,#1275,#1276);
#1182=AXIS2_PLACEMENT_3D('',#1595,#1277,#1278);
#1183=AXIS2_PLACEMENT_3D('',#1599,#1280,#1281);
#1184=AXIS2_PLACEMENT_3D('',#1603,#1283,#1284);
#1185=AXIS2_PLACEMENT_3D('',#1604,#1285,#1286);
#1186=AXIS2_PLACEMENT_3D('',#1620,#1294,#1295);
#1187=AXIS2_PLACEMENT_3D('',#1631,#1301,#1302);
#1188=AXIS2_PLACEMENT_3D('',#1635,#1304,#1305);
#1189=AXIS2_PLACEMENT_3D('',#1639,#1307,#1308);
#1190=AXIS2_PLACEMENT_3D('',#1645,#1311,#1312);
#1191=AXIS2_PLACEMENT_3D('',#1649,#1314,#1315);
#1192=AXIS2_PLACEMENT_3D('',#1674,#1328,#1329);
#1193=AXIS2_PLACEMENT_3D('',#1679,#1332,#1333);
#1194=AXIS2_PLACEMENT_3D('',#1680,#1334,#1335);
#1195=AXIS2_PLACEMENT_3D('',#1685,#1337,#1338);
#1196=AXIS2_PLACEMENT_3D('',#1688,#1340,#1341);
#1197=AXIS2_PLACEMENT_3D('',#1692,#1343,#1344);
#1198=AXIS2_PLACEMENT_3D('',#1699,#1348,#1349);
#1199=AXIS2_PLACEMENT_3D('',#1704,#1351,#1352);
#1200=AXIS2_PLACEMENT_3D('',#1707,#1354,#1355);
#1201=AXIS2_PLACEMENT_3D('',#1711,#1357,#1358);
#1202=AXIS2_PLACEMENT_3D('',#1717,#1361,#1362);
#1203=AXIS2_PLACEMENT_3D('',#1718,#1363,#1364);
#1204=AXIS2_PLACEMENT_3D('',#1721,#1366,#1367);
#1205=AXIS2_PLACEMENT_3D('',#1726,#1369,#1370);
#1206=AXIS2_PLACEMENT_3D('',#1729,#1372,#1373);
#1207=AXIS2_PLACEMENT_3D('',#1736,#1378,#1379);
#1208=AXIS2_PLACEMENT_3D('',#1740,#1382,#1383);
#1209=AXIS2_PLACEMENT_3D('',#1742,#1384,#1385);
#1210=AXIS2_PLACEMENT_3D('',#1744,#1386,#1387);
#1211=AXIS2_PLACEMENT_3D('',#1746,#1389,#1390);
#1212=AXIS2_PLACEMENT_3D('',#1747,#1391,#1392);
#1213=AXIS2_PLACEMENT_3D('',#1758,#1399,#1400);
#1214=AXIS2_PLACEMENT_3D('',#1762,#1402,#1403);
#1215=AXIS2_PLACEMENT_3D('',#1766,#1405,#1406);
#1216=AXIS2_PLACEMENT_3D('',#1773,#1410,#1411);
#1217=AXIS2_PLACEMENT_3D('',#1774,#1412,#1413);
#1218=AXIS2_PLACEMENT_3D('',#1779,#1415,#1416);
#1219=AXIS2_PLACEMENT_3D('',#1782,#1418,#1419);
#1220=AXIS2_PLACEMENT_3D('',#1785,#1422,#1423);
#1221=AXIS2_PLACEMENT_3D('',#1789,#1426,#1427);
#1222=AXIS2_PLACEMENT_3D('',#1792,#1429,#1430);
#1223=AXIS2_PLACEMENT_3D('',#1793,#1431,#1432);
#1224=AXIS2_PLACEMENT_3D('',#1797,#1436,#1437);
#1225=AXIS2_PLACEMENT_3D('',#1798,#1438,#1439);
#1226=AXIS2_PLACEMENT_3D('',#1800,#1441,#1442);
#1227=AXIS2_PLACEMENT_3D('',#1801,#1443,#1444);
#1228=AXIS2_PLACEMENT_3D('',#1803,#1445,#1446);
#1229=AXIS2_PLACEMENT_3D('',#1805,#1447,#1448);
#1230=AXIS2_PLACEMENT_3D('',#1806,#1449,#1450);
#1231=AXIS2_PLACEMENT_3D('',#1807,#1451,#1452);
#1232=AXIS2_PLACEMENT_3D('',#1810,#1455,#1456);
#1233=AXIS2_PLACEMENT_3D('',#1813,#1459,#1460);
#1234=AXIS2_PLACEMENT_3D('',#1815,#1462,#1463);
#1235=AXIS2_PLACEMENT_3D('',#1817,#1465,#1466);
#1236=AXIS2_PLACEMENT_3D('',#1818,#1467,#1468);
#1237=AXIS2_PLACEMENT_3D('',#1821,#1471,#1472);
#1238=AXIS2_PLACEMENT_3D('',#1823,#1474,#1475);
#1239=AXIS2_PLACEMENT_3D('',#1825,#1477,#1478);
#1240=AXIS2_PLACEMENT_3D('',#1826,#1479,#1480);
#1241=AXIS2_PLACEMENT_3D('',#1827,#1481,#1482);
#1242=AXIS2_PLACEMENT_3D('',#1828,#1483,#1484);
#1243=AXIS2_PLACEMENT_3D('',#1829,#1485,#1486);
#1244=AXIS2_PLACEMENT_3D('',#1830,#1487,#1488);
#1245=AXIS2_PLACEMENT_3D('',#1836,#1492,#1493);
#1246=AXIS2_PLACEMENT_3D('',#1840,#1496,#1497);
#1247=AXIS2_PLACEMENT_3D('',#1846,#1501,#1502);
#1248=AXIS2_PLACEMENT_3D('',#1852,#1506,#1507);
#1249=AXIS2_PLACEMENT_3D('',#1858,#1511,#1512);
#1250=AXIS2_PLACEMENT_3D('',#1862,#1515,#1516);
#1251=AXIS2_PLACEMENT_3D('',#1864,#1518,#1519);
#1252=AXIS2_PLACEMENT_3D('',#1870,#1523,#1524);
#1253=AXIS2_PLACEMENT_3D('',#1871,#1525,#1526);
#1254=AXIS2_PLACEMENT_3D('',#1872,#1527,#1528);
#1255=AXIS2_PLACEMENT_3D('',#1880,#1533,#1534);
#1256=AXIS2_PLACEMENT_3D('',#1884,#1537,#1538);
#1257=AXIS2_PLACEMENT_3D('',#1888,#1541,#1542);
#1258=AXIS2_PLACEMENT_3D('',#1894,#1546,#1547);
#1259=AXIS2_PLACEMENT_3D('',#1898,#1550,#1551);
#1260=AXIS2_PLACEMENT_3D('',#1902,#1554,#1555);
#1261=AXIS2_PLACEMENT_3D('',#1904,#1557,#1558);
#1262=AXIS2_PLACEMENT_3D('',#1909,#1561,#1562);
#1263=AXIS2_PLACEMENT_3D('',#1911,#1564,#1565);
#1264=AXIS2_PLACEMENT_3D('',#1912,#1566,#1567);
#1265=AXIS2_PLACEMENT_3D('',#1913,#1568,#1569);
#1266=AXIS2_PLACEMENT_3D('',#1914,#1570,#1571);
#1267=AXIS2_PLACEMENT_3D('',#1916,#1573,#1574);
#1268=AXIS2_PLACEMENT_3D('',#1918,#1576,#1577);
#1269=AXIS2_PLACEMENT_3D('',#1919,#1578,#1579);
#1270=AXIS2_PLACEMENT_3D('',#1921,#1581,#1582);
#1271=AXIS2_PLACEMENT_3D('',#1923,#1584,#1585);
#1272=AXIS2_PLACEMENT_3D('',#1924,#1586,#1587);
#1273=AXIS2_PLACEMENT_3D('',#1927,#1590,#1591);
#1274=AXIS2_PLACEMENT_3D('',#1928,#1592,#1593);
#1275=DIRECTION('',(0.,0.,1.));
#1276=DIRECTION('',(1.,0.,0.));
#1277=DIRECTION('',(1.,0.,0.));
#1278=DIRECTION('',(0.,0.,-1.));
#1279=DIRECTION('',(1.,0.,0.));
#1280=DIRECTION('',(-1.,0.,0.));
#1281=DIRECTION('',(0.,0.,1.));
#1282=DIRECTION('',(1.,0.,0.));
#1283=DIRECTION('',(1.,0.,0.));
#1284=DIRECTION('',(0.,0.,-1.));
#1285=DIRECTION('',(0.,0.,1.));
#1286=DIRECTION('',(1.,0.,0.));
#1287=DIRECTION('',(0.,-1.,-3.22192950761697E-15));
#1288=DIRECTION('',(1.,0.,0.));
#1289=DIRECTION('',(0.,-1.,0.));
#1290=DIRECTION('',(1.,0.,0.));
#1291=DIRECTION('',(0.,-1.,0.));
#1292=DIRECTION('',(-1.,0.,0.));
#1293=DIRECTION('',(0.,-1.,0.));
#1294=DIRECTION('',(0.,0.,1.));
#1295=DIRECTION('',(1.,0.,0.));
#1296=DIRECTION('',(-1.,0.,0.));
#1297=DIRECTION('',(0.,1.,0.));
#1298=DIRECTION('',(1.,0.,0.));
#1299=DIRECTION('',(0.,-1.,0.));
#1300=DIRECTION('',(1.,0.,0.));
#1301=DIRECTION('',(-1.,0.,0.));
#1302=DIRECTION('',(0.,0.,1.));
#1303=DIRECTION('',(0.,1.,0.));
#1304=DIRECTION('',(-1.,0.,0.));
#1305=DIRECTION('',(0.,0.,1.));
#1306=DIRECTION('',(0.,0.,1.));
#1307=DIRECTION('',(-1.,0.,0.));
#1308=DIRECTION('',(0.,0.,1.));
#1309=DIRECTION('',(0.,1.,0.));
#1310=DIRECTION('',(0.,0.,1.));
#1311=DIRECTION('',(-1.,0.,0.));
#1312=DIRECTION('',(0.,0.,1.));
#1313=DIRECTION('',(0.,-1.79969078080198E-15,1.));
#1314=DIRECTION('',(-1.,0.,0.));
#1315=DIRECTION('',(0.,0.,1.));
#1316=DIRECTION('',(0.,1.,0.));
#1317=DIRECTION('',(0.,0.,1.));
#1318=DIRECTION('',(0.,-1.,0.));
#1319=DIRECTION('',(0.,0.,1.));
#1320=DIRECTION('',(0.,1.,0.));
#1321=DIRECTION('',(0.,0.,1.));
#1322=DIRECTION('',(0.,0.,1.));
#1323=DIRECTION('',(0.,-1.,0.));
#1324=DIRECTION('',(0.,0.,1.));
#1325=DIRECTION('',(0.,1.,0.));
#1326=DIRECTION('',(0.,0.,1.));
#1327=DIRECTION('',(0.,-1.,0.));
#1328=DIRECTION('',(-1.,0.,0.));
#1329=DIRECTION('',(0.,0.,1.));
#1330=DIRECTION('',(0.,0.,1.));
#1331=DIRECTION('',(0.,0.,1.));
#1332=DIRECTION('',(-1.,0.,0.));
#1333=DIRECTION('',(0.,0.,1.));
#1334=DIRECTION('',(1.,0.,0.));
#1335=DIRECTION('',(0.,0.,-1.));
#1336=DIRECTION('',(0.,1.,0.));
#1337=DIRECTION('',(1.,0.,0.));
#1338=DIRECTION('',(0.,0.,-1.));
#1339=DIRECTION('',(0.,-1.,0.));
#1340=DIRECTION('',(-1.,0.,0.));
#1341=DIRECTION('',(0.,0.,1.));
#1342=DIRECTION('',(0.,0.,1.));
#1343=DIRECTION('',(-1.,0.,0.));
#1344=DIRECTION('',(0.,0.,1.));
#1345=DIRECTION('',(0.,1.,0.));
#1346=DIRECTION('',(0.,0.,-1.));
#1347=DIRECTION('',(0.,1.,0.));
#1348=DIRECTION('',(1.,0.,0.));
#1349=DIRECTION('',(0.,0.,-1.));
#1350=DIRECTION('',(0.,1.,0.));
#1351=DIRECTION('',(-1.,0.,0.));
#1352=DIRECTION('',(0.,0.,-1.));
#1353=DIRECTION('',(0.,1.,0.));
#1354=DIRECTION('',(-1.,0.,0.));
#1355=DIRECTION('',(0.,0.,1.));
#1356=DIRECTION('',(0.,1.,0.));
#1357=DIRECTION('',(-1.,0.,0.));
#1358=DIRECTION('',(0.,0.,1.));
#1359=DIRECTION('',(0.,0.,1.));
#1360=DIRECTION('',(0.,-1.,0.));
#1361=DIRECTION('',(-1.,0.,0.));
#1362=DIRECTION('',(0.,0.,1.));
#1363=DIRECTION('',(-1.,0.,0.));
#1364=DIRECTION('',(0.,0.,1.));
#1365=DIRECTION('',(0.,0.,1.));
#1366=DIRECTION('',(1.,0.,0.));
#1367=DIRECTION('',(0.,0.,-1.));
#1368=DIRECTION('',(0.,1.,0.));
#1369=DIRECTION('',(-1.,0.,0.));
#1370=DIRECTION('',(0.,0.,-1.));
#1371=DIRECTION('',(0.,1.,0.));
#1372=DIRECTION('',(0.,1.,0.));
#1373=DIRECTION('',(0.,0.,1.));
#1374=DIRECTION('',(-1.,0.,0.));
#1375=DIRECTION('',(-1.,0.,0.));
#1376=DIRECTION('',(0.,0.,-1.));
#1377=DIRECTION('',(-1.,0.,0.));
#1378=DIRECTION('',(0.,0.,-1.));
#1379=DIRECTION('',(1.,0.,0.));
#1380=DIRECTION('',(0.,-1.,0.));
#1381=DIRECTION('',(1.,0.,0.));
#1382=DIRECTION('',(0.,0.,-1.));
#1383=DIRECTION('',(-1.,0.,0.));
#1384=DIRECTION('',(0.,0.,-1.));
#1385=DIRECTION('',(-1.,0.,0.));
#1386=DIRECTION('',(-0.707106781186548,-0.707106781186548,0.));
#1387=DIRECTION('',(0.707106781186548,-0.707106781186548,0.));
#1388=DIRECTION('',(0.707106781186548,-0.707106781186548,0.));
#1389=DIRECTION('',(-0.707106781186548,-0.707106781186548,0.));
#1390=DIRECTION('',(-0.707106781186548,0.707106781186548,0.));
#1391=DIRECTION('',(0.,-1.,0.));
#1392=DIRECTION('',(0.,0.,-1.));
#1393=DIRECTION('',(1.,0.,0.));
#1394=DIRECTION('',(0.,0.,1.));
#1395=DIRECTION('',(-1.,0.,0.));
#1396=DIRECTION('',(0.,0.,1.));
#1397=DIRECTION('',(0.,0.,-1.));
#1398=DIRECTION('',(-1.,0.,0.));
#1399=DIRECTION('',(1.,0.,0.));
#1400=DIRECTION('',(0.,0.,-1.));
#1401=DIRECTION('',(0.,0.,1.));
#1402=DIRECTION('',(1.,0.,0.));
#1403=DIRECTION('',(0.,0.,-1.));
#1404=DIRECTION('',(0.,1.,0.));
#1405=DIRECTION('',(1.,0.,0.));
#1406=DIRECTION('',(0.,0.,-1.));
#1407=DIRECTION('',(0.,0.,-1.));
#1408=DIRECTION('',(0.,1.,0.));
#1409=DIRECTION('',(0.,1.,0.));
#1410=DIRECTION('',(1.,0.,0.));
#1411=DIRECTION('',(0.,0.,-1.));
#1412=DIRECTION('',(1.,0.,0.));
#1413=DIRECTION('',(0.,0.,-1.));
#1414=DIRECTION('',(0.,-1.,0.));
#1415=DIRECTION('',(1.,0.,0.));
#1416=DIRECTION('',(0.,0.,-1.));
#1417=DIRECTION('',(0.,1.,0.));
#1418=DIRECTION('',(0.,-1.,0.));
#1419=DIRECTION('',(0.,0.,-1.));
#1420=DIRECTION('',(-1.,0.,0.));
#1421=DIRECTION('',(1.,0.,0.));
#1422=DIRECTION('',(1.,0.,0.));
#1423=DIRECTION('',(0.,0.,-1.));
#1424=DIRECTION('',(0.,-1.,0.));
#1425=DIRECTION('',(0.,0.,1.));
#1426=DIRECTION('',(0.,0.,1.));
#1427=DIRECTION('',(1.,0.,0.));
#1428=DIRECTION('',(-1.,0.,0.));
#1429=DIRECTION('',(0.,0.,1.));
#1430=DIRECTION('',(1.,0.,0.));
#1431=DIRECTION('',(0.,1.,0.));
#1432=DIRECTION('',(-1.,0.,0.));
#1433=DIRECTION('',(-1.,0.,0.));
#1434=DIRECTION('',(0.,0.,1.));
#1435=DIRECTION('',(0.,0.,1.));
#1436=DIRECTION('',(-1.,0.,0.));
#1437=DIRECTION('',(0.,0.,1.));
#1438=DIRECTION('',(-1.,0.,0.));
#1439=DIRECTION('',(0.,0.,1.));
#1440=DIRECTION('',(0.,1.,0.));
#1441=DIRECTION('',(0.,0.,-1.));
#1442=DIRECTION('',(-1.,0.,0.));
#1443=DIRECTION('',(0.,0.,-1.));
#1444=DIRECTION('',(-1.,0.,0.));
#1445=DIRECTION('',(0.,0.,-1.));
#1446=DIRECTION('',(-1.,0.,0.));
#1447=DIRECTION('',(0.,0.,-1.));
#1448=DIRECTION('',(-1.,0.,0.));
#1449=DIRECTION('',(0.,0.,-1.));
#1450=DIRECTION('',(-1.,0.,0.));
#1451=DIRECTION('',(0.,0.,1.));
#1452=DIRECTION('',(1.,0.,0.));
#1453=DIRECTION('',(1.,0.,0.));
#1454=DIRECTION('',(-1.,0.,0.));
#1455=DIRECTION('',(1.,0.,0.));
#1456=DIRECTION('',(0.,0.,-1.));
#1457=DIRECTION('',(1.,0.,0.));
#1458=DIRECTION('',(1.,0.,0.));
#1459=DIRECTION('',(0.,0.,-1.));
#1460=DIRECTION('',(-1.,0.,0.));
#1461=DIRECTION('',(1.,0.,0.));
#1462=DIRECTION('',(1.,0.,0.));
#1463=DIRECTION('',(0.,0.,-1.));
#1464=DIRECTION('',(1.,0.,0.));
#1465=DIRECTION('',(0.,0.,1.));
#1466=DIRECTION('',(1.,0.,0.));
#1467=DIRECTION('',(-1.,0.,0.));
#1468=DIRECTION('',(0.,0.,1.));
#1469=DIRECTION('',(-1.,0.,0.));
#1470=DIRECTION('',(-1.,0.,0.));
#1471=DIRECTION('',(0.,0.,1.));
#1472=DIRECTION('',(1.,0.,0.));
#1473=DIRECTION('',(-1.,0.,0.));
#1474=DIRECTION('',(-1.,0.,0.));
#1475=DIRECTION('',(0.,0.,1.));
#1476=DIRECTION('',(-1.,0.,0.));
#1477=DIRECTION('',(0.,0.,1.));
#1478=DIRECTION('',(1.,0.,0.));
#1479=DIRECTION('',(-1.,0.,0.));
#1480=DIRECTION('',(0.,0.,1.));
#1481=DIRECTION('',(0.,0.,-1.));
#1482=DIRECTION('',(-1.,0.,0.));
#1483=DIRECTION('',(-1.,0.,0.));
#1484=DIRECTION('',(0.,0.,1.));
#1485=DIRECTION('',(1.,0.,0.));
#1486=DIRECTION('',(0.,0.,-1.));
#1487=DIRECTION('',(0.,0.,-1.));
#1488=DIRECTION('',(-1.,0.,0.));
#1489=DIRECTION('',(1.,0.,0.));
#1490=DIRECTION('',(0.,1.,0.));
#1491=DIRECTION('',(1.,0.,0.));
#1492=DIRECTION('',(0.,1.,0.));
#1493=DIRECTION('',(0.,0.,1.));
#1494=DIRECTION('',(-0.707106781186557,0.,0.707106781186538));
#1495=DIRECTION('',(0.,0.,1.));
#1496=DIRECTION('',(0.,1.,1.79969078080198E-15));
#1497=DIRECTION('',(0.,-1.79969078080198E-15,1.));
#1498=DIRECTION('',(0.,-1.79969078080198E-15,1.));
#1499=DIRECTION('',(1.,0.,0.));
#1500=DIRECTION('',(1.,0.,0.));
#1501=DIRECTION('',(0.,0.,-1.));
#1502=DIRECTION('',(-1.,0.,0.));
#1503=DIRECTION('',(1.,0.,0.));
#1504=DIRECTION('',(0.,1.,0.));
#1505=DIRECTION('',(1.,0.,0.));
#1506=DIRECTION('',(0.,1.,0.));
#1507=DIRECTION('',(0.,0.,1.));
#1508=DIRECTION('',(0.,0.,1.));
#1509=DIRECTION('',(0.707106781186557,0.,0.707106781186538));
#1510=DIRECTION('',(1.,0.,0.));
#1511=DIRECTION('',(0.,0.,1.));
#1512=DIRECTION('',(1.,0.,0.));
#1513=DIRECTION('',(0.,-1.,0.));
#1514=DIRECTION('',(1.,0.,0.));
#1515=DIRECTION('',(0.,1.,0.));
#1516=DIRECTION('',(0.,0.,1.));
#1517=DIRECTION('',(0.,0.,1.));
#1518=DIRECTION('',(1.,0.,0.));
#1519=DIRECTION('',(0.,1.,0.));
#1520=DIRECTION('',(0.,-1.,0.));
#1521=DIRECTION('',(0.,0.,-1.));
#1522=DIRECTION('',(0.,1.,0.));
#1523=DIRECTION('',(1.,0.,0.));
#1524=DIRECTION('',(0.,0.,-1.));
#1525=DIRECTION('',(1.,0.,0.));
#1526=DIRECTION('',(0.,0.,-1.));
#1527=DIRECTION('',(0.,1.,0.));
#1528=DIRECTION('',(0.,0.,1.));
#1529=DIRECTION('',(1.,0.,0.));
#1530=DIRECTION('',(0.707106781186557,0.,0.707106781186538));
#1531=DIRECTION('',(0.,0.,1.));
#1532=DIRECTION('',(1.,0.,0.));
#1533=DIRECTION('',(0.,0.,1.));
#1534=DIRECTION('',(1.,0.,0.));
#1535=DIRECTION('',(0.,-1.,0.));
#1536=DIRECTION('',(1.,0.,0.));
#1537=DIRECTION('',(0.,1.,0.));
#1538=DIRECTION('',(0.,0.,1.));
#1539=DIRECTION('',(1.,0.,0.));
#1540=DIRECTION('',(0.,0.,1.));
#1541=DIRECTION('',(0.,1.,0.));
#1542=DIRECTION('',(0.,0.,1.));
#1543=DIRECTION('',(0.,0.,1.));
#1544=DIRECTION('',(-0.707106781186557,0.,0.707106781186538));
#1545=DIRECTION('',(1.,0.,0.));
#1546=DIRECTION('',(0.,0.,1.));
#1547=DIRECTION('',(1.,0.,0.));
#1548=DIRECTION('',(0.,1.,0.));
#1549=DIRECTION('',(1.,0.,0.));
#1550=DIRECTION('',(0.,1.,0.));
#1551=DIRECTION('',(0.,0.,1.));
#1552=DIRECTION('',(0.,0.,-1.));
#1553=DIRECTION('',(1.,0.,0.));
#1554=DIRECTION('',(0.,0.,-1.));
#1555=DIRECTION('',(-1.,0.,0.));
#1556=DIRECTION('',(0.,-1.,0.));
#1557=DIRECTION('',(1.,0.,0.));
#1558=DIRECTION('',(0.,1.,0.));
#1559=DIRECTION('',(0.,0.,1.));
#1560=DIRECTION('',(0.,-1.,0.));
#1561=DIRECTION('',(1.,0.,0.));
#1562=DIRECTION('',(0.,0.,-1.));
#1563=DIRECTION('',(0.,1.,0.));
#1564=DIRECTION('',(-1.,0.,0.));
#1565=DIRECTION('',(0.,0.,1.));
#1566=DIRECTION('',(-1.,0.,0.));
#1567=DIRECTION('',(0.,0.,1.));
#1568=DIRECTION('',(-1.,0.,0.));
#1569=DIRECTION('',(0.,0.,1.));
#1570=DIRECTION('',(-0.707106781186538,0.,0.707106781186557));
#1571=DIRECTION('',(0.,1.,0.));
#1572=DIRECTION('',(0.577350269189636,0.577350269189621,0.577350269189621));
#1573=DIRECTION('',(-0.707106781186538,0.707106781186557,0.));
#1574=DIRECTION('',(0.,0.,-1.));
#1575=DIRECTION('',(0.577350269189636,0.577350269189621,-0.577350269189621));
#1576=DIRECTION('',(-0.707106781186538,0.,-0.707106781186557));
#1577=DIRECTION('',(0.,-1.,0.));
#1578=DIRECTION('',(0.707106781186538,0.,-0.707106781186557));
#1579=DIRECTION('',(0.,1.,0.));
#1580=DIRECTION('',(-0.577350269189638,0.577350269189617,-0.577350269189623));
#1581=DIRECTION('',(0.707106781186535,0.70710678118656,0.));
#1582=DIRECTION('',(0.,0.,1.));
#1583=DIRECTION('',(-0.577350269189638,0.577350269189617,0.577350269189623));
#1584=DIRECTION('',(0.707106781186538,0.,0.707106781186557));
#1585=DIRECTION('',(0.,-1.,0.));
#1586=DIRECTION('',(0.,0.,1.));
#1587=DIRECTION('',(1.,0.,0.));
#1588=DIRECTION('',(-1.,0.,0.));
#1589=DIRECTION('',(-1.,0.,0.));
#1590=DIRECTION('',(-1.,0.,0.));
#1591=DIRECTION('',(0.,0.,1.));
#1592=DIRECTION('',(-1.,0.,0.));
#1593=DIRECTION('',(0.,0.,1.));
#1594=CARTESIAN_POINT('',(0.,0.,0.));
#1595=CARTESIAN_POINT('',(0.266225,0.0972343660860969,0.06075));
#1596=CARTESIAN_POINT('',(0.266225,0.0964201648,0.0646662579416732));
#1597=CARTESIAN_POINT('',(0.313225,0.0964201648,0.0646662579416732));
#1598=CARTESIAN_POINT('',(0.266225,0.0964201648,0.0646662579416732));
#1599=CARTESIAN_POINT('',(0.313225,0.0972343660860969,0.06075));
#1600=CARTESIAN_POINT('',(0.313225,0.0932343660860969,0.06075));
#1601=CARTESIAN_POINT('',(0.266225,0.0932343660860969,0.06075));
#1602=CARTESIAN_POINT('',(0.266225,0.0932343660860969,0.06075));
#1603=CARTESIAN_POINT('',(0.266225,0.0972343660860969,0.06075));
#1604=CARTESIAN_POINT('',(0.239725,0.0964201648,0.06475));
#1605=CARTESIAN_POINT('',(0.266225,0.0545734296619731,0.06475));
#1606=CARTESIAN_POINT('',(0.266225,0.0567270751366811,0.06475));
#1607=CARTESIAN_POINT('',(0.266225,0.0484197841872652,0.06475));
#1608=CARTESIAN_POINT('',(0.313225,0.0484197841872652,0.06475));
#1609=CARTESIAN_POINT('',(0.316225,0.0484197841872652,0.06475));
#1610=CARTESIAN_POINT('',(0.316225,0.0189201648,0.06475));
#1611=CARTESIAN_POINT('',(0.316225,0.0424201648,0.06475));
#1612=CARTESIAN_POINT('',(0.266225,0.0424201648,0.06475));
#1613=CARTESIAN_POINT('',(0.266225,0.0424201648,0.06475));
#1614=CARTESIAN_POINT('',(0.266225,0.0394201648,0.06475));
#1615=CARTESIAN_POINT('',(0.266225,0.0364201648,0.06475));
#1616=CARTESIAN_POINT('',(0.239725,0.0364201648,0.06475));
#1617=CARTESIAN_POINT('',(0.213225,0.0364201648,0.06475));
#1618=CARTESIAN_POINT('',(0.213225,0.0964201648,0.06475));
#1619=CARTESIAN_POINT('',(0.213225,0.0924201648,0.06475));
#1620=CARTESIAN_POINT('',(0.217225,0.0924201648,0.06475));
#1621=CARTESIAN_POINT('',(0.217225,0.0964201648,0.06475));
#1622=CARTESIAN_POINT('',(0.239725,0.0964201648,0.06475));
#1623=CARTESIAN_POINT('',(0.266225,0.0964201648,0.06475));
#1624=CARTESIAN_POINT('',(0.266225,0.0929843660860969,0.06475));
#1625=CARTESIAN_POINT('',(0.266225,0.0889270751366811,0.06475));
#1626=CARTESIAN_POINT('',(0.266225,0.0889270751366811,0.06475));
#1627=CARTESIAN_POINT('',(0.313225,0.0889270751366811,0.06475));
#1628=CARTESIAN_POINT('',(0.313225,0.0964201648,0.06475));
#1629=CARTESIAN_POINT('',(0.313225,0.0567270751366811,0.06475));
#1630=CARTESIAN_POINT('',(0.266225,0.0567270751366811,0.06475));
#1631=CARTESIAN_POINT('',(0.313225,0.0189201648,0.06875));
#1632=CARTESIAN_POINT('',(0.313225,0.0189201648,0.06875));
#1633=CARTESIAN_POINT('',(0.313225,0.1004201648,0.06875));
#1634=CARTESIAN_POINT('',(0.313225,0.1024201648,0.06875));
#1635=CARTESIAN_POINT('',(0.313225,0.1024201648,0.07275));
#1636=CARTESIAN_POINT('',(0.313225,0.1064201648,0.07275));
#1637=CARTESIAN_POINT('',(0.313225,0.1064201648,0.06875));
#1638=CARTESIAN_POINT('',(0.313225,0.1064201648,0.08575));
#1639=CARTESIAN_POINT('',(0.313225,0.1024201648,0.08575));
#1640=CARTESIAN_POINT('',(0.313225,0.1024201648,0.08975));
#1641=CARTESIAN_POINT('',(0.313225,0.0189201648,0.08975));
#1642=CARTESIAN_POINT('',(0.313225,0.0514201648,0.08975));
#1643=CARTESIAN_POINT('',(0.313225,0.0514201648,0.06875));
#1644=CARTESIAN_POINT('',(0.313225,0.0514201648,0.0633953196742029));
#1645=CARTESIAN_POINT('',(0.313225,0.0484197841872652,0.06075));
#1646=CARTESIAN_POINT('',(0.313225,0.0524197841872652,0.06075));
#1647=CARTESIAN_POINT('',(0.313225,0.0524197841872652,0.0608943965941665));
#1648=CARTESIAN_POINT('',(0.313225,0.0524197841872652,0.059038793188333));
#1649=CARTESIAN_POINT('',(0.313225,0.0544197841872652,0.0590387931883331));
#1650=CARTESIAN_POINT('',(0.313225,0.0544197841872652,0.0570387931883331));
#1651=CARTESIAN_POINT('',(0.313225,0.0545734296619731,0.0570387931883331));
#1652=CARTESIAN_POINT('',(0.313225,0.0567270751366811,0.0570387931883331));
#1653=CARTESIAN_POINT('',(0.313225,0.0567270751366811,0.0578165948912499));
#1654=CARTESIAN_POINT('',(0.313225,0.0567270751366811,0.0585943965941667));
#1655=CARTESIAN_POINT('',(0.313225,0.056119814097566,0.0585943965941666));
#1656=CARTESIAN_POINT('',(0.313225,0.0555125530584508,0.0585943965941666));
#1657=CARTESIAN_POINT('',(0.313225,0.0555125530584508,0.0594943965941666));
#1658=CARTESIAN_POINT('',(0.313225,0.0555125530584508,0.0603943965941666));
#1659=CARTESIAN_POINT('',(0.313225,0.056119814097566,0.0603943965941666));
#1660=CARTESIAN_POINT('',(0.313225,0.0567270751366811,0.0603943965941666));
#1661=CARTESIAN_POINT('',(0.313225,0.0567270751366811,0.0625721982970833));
#1662=CARTESIAN_POINT('',(0.313225,0.0889270751366811,0.0625721982970833));
#1663=CARTESIAN_POINT('',(0.313225,0.0889270751366811,0.0603943965941666));
#1664=CARTESIAN_POINT('',(0.313225,0.0895343361757962,0.0603943965941666));
#1665=CARTESIAN_POINT('',(0.313225,0.0901415972149113,0.0603943965941666));
#1666=CARTESIAN_POINT('',(0.313225,0.0901415972149112,0.0594943965941666));
#1667=CARTESIAN_POINT('',(0.313225,0.0901415972149112,0.0585943965941666));
#1668=CARTESIAN_POINT('',(0.313225,0.0895343361757962,0.0585943965941666));
#1669=CARTESIAN_POINT('',(0.313225,0.0889270751366811,0.0585943965941666));
#1670=CARTESIAN_POINT('',(0.313225,0.0889270751366811,0.0578165948912498));
#1671=CARTESIAN_POINT('',(0.313225,0.0889270751366811,0.0570387931883331));
#1672=CARTESIAN_POINT('',(0.313225,0.091080720611389,0.0570387931883331));
#1673=CARTESIAN_POINT('',(0.313225,0.0912343660860969,0.0570387931883331));
#1674=CARTESIAN_POINT('',(0.313225,0.0912343660860969,0.0590387931883331));
#1675=CARTESIAN_POINT('',(0.313225,0.0932343660860969,0.0590387931883331));
#1676=CARTESIAN_POINT('',(0.313225,0.0932343660860969,0.0608943965941665));
#1677=CARTESIAN_POINT('',(0.313225,0.0964201648,0.06875));
#1678=CARTESIAN_POINT('',(0.313225,0.0964201648,0.06475));
#1679=CARTESIAN_POINT('',(0.313225,0.1004201648,0.06475));
#1680=CARTESIAN_POINT('',(0.313225,0.0784201647999999,0.08275));
#1681=CARTESIAN_POINT('',(0.313225,0.0784201647999999,0.08475));
#1682=CARTESIAN_POINT('',(0.313225,0.0784201647999999,0.08075));
#1683=CARTESIAN_POINT('',(0.313225,0.0889201648,0.08475));
#1684=CARTESIAN_POINT('',(0.313225,0.0994201648,0.08475));
#1685=CARTESIAN_POINT('',(0.313225,0.0994201648,0.08275));
#1686=CARTESIAN_POINT('',(0.313225,0.0994201648,0.08075));
#1687=CARTESIAN_POINT('',(0.313225,0.0889201648,0.08075));
#1688=CARTESIAN_POINT('',(0.313225,0.0964201648,0.06175));
#1689=CARTESIAN_POINT('',(0.313225,0.0014201648,0.06175));
#1690=CARTESIAN_POINT('',(0.313225,0.0014201648,0.06465));
#1691=CARTESIAN_POINT('',(0.313225,0.0014201648,0.08575));
#1692=CARTESIAN_POINT('',(0.313225,0.0054201648,0.08575));
#1693=CARTESIAN_POINT('',(0.313225,0.0054201648,0.08975));
#1694=CARTESIAN_POINT('',(0.313225,0.0189201648,0.08975));
#1695=CARTESIAN_POINT('',(0.313225,0.0364201648,0.08975));
#1696=CARTESIAN_POINT('',(0.313225,0.0364201648,0.06775));
#1697=CARTESIAN_POINT('',(0.313225,0.0364201648,0.06465));
#1698=CARTESIAN_POINT('',(0.313225,0.0014201648,0.06465));
#1699=CARTESIAN_POINT('',(0.313225,0.00842016479999987,0.08275));
#1700=CARTESIAN_POINT('',(0.313225,0.00842016479999987,0.08475));
#1701=CARTESIAN_POINT('',(0.313225,0.00842016479999988,0.08075));
#1702=CARTESIAN_POINT('',(0.313225,0.0189201647999999,0.08075));
#1703=CARTESIAN_POINT('',(0.313225,0.0294201648,0.08075));
#1704=CARTESIAN_POINT('',(0.313225,0.0294201648,0.08275));
#1705=CARTESIAN_POINT('',(0.313225,0.0294201648,0.08475));
#1706=CARTESIAN_POINT('',(0.313225,0.0189201647999999,0.08475));
#1707=CARTESIAN_POINT('',(0.316225,0.0189201648,0.06175));
#1708=CARTESIAN_POINT('',(0.316225,0.0189201648,0.08975));
#1709=CARTESIAN_POINT('',(0.316225,0.0054201648,0.08975));
#1710=CARTESIAN_POINT('',(0.316225,0.0484201648,0.08975));
#1711=CARTESIAN_POINT('',(0.316225,0.0054201648,0.08575));
#1712=CARTESIAN_POINT('',(0.316225,0.0014201648,0.08575));
#1713=CARTESIAN_POINT('',(0.316225,0.0014201648,0.06175));
#1714=CARTESIAN_POINT('',(0.316225,0.0014201648,0.06175));
#1715=CARTESIAN_POINT('',(0.316225,0.0189201648,0.06175));
#1716=CARTESIAN_POINT('',(0.316225,0.0394201648,0.06175));
#1717=CARTESIAN_POINT('',(0.316225,0.0424201648,0.06175));
#1718=CARTESIAN_POINT('',(0.316225,0.0484197841872652,0.06075));
#1719=CARTESIAN_POINT('',(0.316225,0.0484201648,0.0647499999818917));
#1720=CARTESIAN_POINT('',(0.316225,0.0484201648,0.06875));
#1721=CARTESIAN_POINT('',(0.316225,0.00842016479999987,0.08275));
#1722=CARTESIAN_POINT('',(0.316225,0.00842016479999987,0.08475));
#1723=CARTESIAN_POINT('',(0.316225,0.00842016479999988,0.08075));
#1724=CARTESIAN_POINT('',(0.316225,0.0189201647999999,0.08475));
#1725=CARTESIAN_POINT('',(0.316225,0.0294201648,0.08475));
#1726=CARTESIAN_POINT('',(0.316225,0.0294201648,0.08275));
#1727=CARTESIAN_POINT('',(0.316225,0.0294201648,0.08075));
#1728=CARTESIAN_POINT('',(0.316225,0.0189201647999999,0.08075));
#1729=CARTESIAN_POINT('',(0.316225,0.0014201648,0.06175));
#1730=CARTESIAN_POINT('',(0.313225,0.0014201648,0.08575));
#1731=CARTESIAN_POINT('',(0.289725,0.0014201648,0.06465));
#1732=CARTESIAN_POINT('',(0.266225,0.0014201648,0.06465));
#1733=CARTESIAN_POINT('',(0.266225,0.0014201648,0.0632));
#1734=CARTESIAN_POINT('',(0.266225,0.0014201648,0.06175));
#1735=CARTESIAN_POINT('',(0.316225,0.0014201648,0.06175));
#1736=CARTESIAN_POINT('',(0.314725,0.0264201648,0.06175));
#1737=CARTESIAN_POINT('',(0.266225,0.0394201648,0.06175));
#1738=CARTESIAN_POINT('',(0.266225,0.0394201648,0.06175));
#1739=CARTESIAN_POINT('',(0.314725,0.0394201648,0.06175));
#1740=CARTESIAN_POINT('',(0.275840028108979,0.00980958291080584,0.06175));
#1741=CARTESIAN_POINT('',(0.273690028108979,0.00980958291080584,0.06175));
#1742=CARTESIAN_POINT('',(0.300609971891021,0.0310307466891941,0.06175));
#1743=CARTESIAN_POINT('',(0.298459971891021,0.0310307466891941,0.06175));
#1744=CARTESIAN_POINT('',(0.330975,0.0336701648,0.06875));
#1745=CARTESIAN_POINT('',(0.330975,0.0336701648,0.08975));
#1746=CARTESIAN_POINT('',(0.316225380612735,0.0484197841872652,0.06075));
#1747=CARTESIAN_POINT('',(0.309225,0.0364201648,0.06875));
#1748=CARTESIAN_POINT('',(0.309225,0.0364201648,0.08975));
#1749=CARTESIAN_POINT('',(0.309225,0.0364201648,0.08975));
#1750=CARTESIAN_POINT('',(0.309225,0.0364201648,0.06875));
#1751=CARTESIAN_POINT('',(0.309225,0.0364201648,0.06875));
#1752=CARTESIAN_POINT('',(0.263225,0.0364201648,0.06875));
#1753=CARTESIAN_POINT('',(0.213225,0.0364201648,0.06875));
#1754=CARTESIAN_POINT('',(0.213225,0.0364201648,0.06625));
#1755=CARTESIAN_POINT('',(0.266225,0.0364201648,0.0647));
#1756=CARTESIAN_POINT('',(0.266225,0.0364201648,0.06465));
#1757=CARTESIAN_POINT('',(0.289725,0.0364201648,0.06465));
#1758=CARTESIAN_POINT('',(0.309225,0.0714201648,0.06875));
#1759=CARTESIAN_POINT('',(0.309225,0.1064201648,0.06875));
#1760=CARTESIAN_POINT('',(0.309225,0.1064201648,0.07275));
#1761=CARTESIAN_POINT('',(0.309225,0.1064201648,0.08575));
#1762=CARTESIAN_POINT('',(0.309225,0.1024201648,0.07275));
#1763=CARTESIAN_POINT('',(0.309225,0.1024201648,0.06875));
#1764=CARTESIAN_POINT('',(0.309225,0.1014201648,0.06875));
#1765=CARTESIAN_POINT('',(0.309225,0.1004201648,0.06875));
#1766=CARTESIAN_POINT('',(0.309225,0.1004201648,0.06475));
#1767=CARTESIAN_POINT('',(0.309225,0.0964201648,0.06475));
#1768=CARTESIAN_POINT('',(0.309225,0.0964201648,0.0447497249999999));
#1769=CARTESIAN_POINT('',(0.309225,0.0964201648,0.06875));
#1770=CARTESIAN_POINT('',(0.309225,0.0714201648,0.06875));
#1771=CARTESIAN_POINT('',(0.309225,0.0714201648,0.08975));
#1772=CARTESIAN_POINT('',(0.309225,0.1024201648,0.08975));
#1773=CARTESIAN_POINT('',(0.309225,0.1024201648,0.08575));
#1774=CARTESIAN_POINT('',(0.309225,0.0784201647999999,0.08275));
#1775=CARTESIAN_POINT('',(0.309225,0.0784201647999999,0.08475));
#1776=CARTESIAN_POINT('',(0.309225,0.0784201647999999,0.08075));
#1777=CARTESIAN_POINT('',(0.309225,0.0889201648,0.08075));
#1778=CARTESIAN_POINT('',(0.309225,0.0994201648,0.08075));
#1779=CARTESIAN_POINT('',(0.309225,0.0994201648,0.08275));
#1780=CARTESIAN_POINT('',(0.309225,0.0994201648,0.08475));
#1781=CARTESIAN_POINT('',(0.309225,0.0889201648,0.08475));
#1782=CARTESIAN_POINT('',(0.309225,0.1064201648,0.06875));
#1783=CARTESIAN_POINT('',(0.309225,0.1064201648,0.07275));
#1784=CARTESIAN_POINT('',(0.313225,0.1064201648,0.08575));
#1785=CARTESIAN_POINT('',(0.213225,0.0964201648,0.06625));
#1786=CARTESIAN_POINT('',(0.213225,0.0964201648,0.06875));
#1787=CARTESIAN_POINT('',(0.213225,0.0924201648,0.06875));
#1788=CARTESIAN_POINT('',(0.213225,0.0924201648,0.06475));
#1789=CARTESIAN_POINT('',(0.263225,0.0964201648,0.06875));
#1790=CARTESIAN_POINT('',(0.263225,0.0964201648,0.06875));
#1791=CARTESIAN_POINT('',(0.217225,0.0964201648,0.06875));
#1792=CARTESIAN_POINT('',(0.217225,0.0924201648,0.06875));
#1793=CARTESIAN_POINT('',(0.130725,0.0964201648,0.0447497249999999));
#1794=CARTESIAN_POINT('',(0.130725,0.0964201648,0.06475));
#1795=CARTESIAN_POINT('',(0.266225,0.0964201648,0.0608943965941665));
#1796=CARTESIAN_POINT('',(0.217225,0.0964201648,0.06875));
#1797=CARTESIAN_POINT('',(0.266225,0.0394201648,0.0647));
#1798=CARTESIAN_POINT('',(0.266225,0.0424201648,0.06175));
#1799=CARTESIAN_POINT('',(0.266225,0.0014201648,0.06465));
#1800=CARTESIAN_POINT('',(0.289725,0.0014201648,0.06465));
#1801=CARTESIAN_POINT('',(0.275840028108979,0.00980958291080584,0.06465));
#1802=CARTESIAN_POINT('',(0.273690028108979,0.00980958291080584,0.06465));
#1803=CARTESIAN_POINT('',(0.300609971891021,0.0310307466891941,0.06465));
#1804=CARTESIAN_POINT('',(0.298459971891021,0.0310307466891941,0.06465));
#1805=CARTESIAN_POINT('',(0.300609971891021,0.0310307466891941,0.08675));
#1806=CARTESIAN_POINT('',(0.275840028108979,0.00980958291080584,0.08675));
#1807=CARTESIAN_POINT('',(0.316225,0.0189201648,0.08975));
#1808=CARTESIAN_POINT('',(0.309225,0.1024201648,0.08975));
#1809=CARTESIAN_POINT('',(0.316225,0.0054201648,0.08975));
#1810=CARTESIAN_POINT('',(0.309225,0.0784201647999999,0.08275));
#1811=CARTESIAN_POINT('',(0.309225,0.0784201647999999,0.08075));
#1812=CARTESIAN_POINT('',(0.309225,0.0784201647999999,0.08475));
#1813=CARTESIAN_POINT('',(0.309225,0.0889201648,0.08475));
#1814=CARTESIAN_POINT('',(0.309225,0.0994201648,0.08475));
#1815=CARTESIAN_POINT('',(0.309225,0.0994201648,0.08275));
#1816=CARTESIAN_POINT('',(0.309225,0.0994201648,0.08075));
#1817=CARTESIAN_POINT('',(0.309225,0.0889201648,0.08075));
#1818=CARTESIAN_POINT('',(0.316225,0.00842016479999987,0.08275));
#1819=CARTESIAN_POINT('',(0.316225,0.00842016479999987,0.08475));
#1820=CARTESIAN_POINT('',(0.316225,0.00842016479999988,0.08075));
#1821=CARTESIAN_POINT('',(0.316225,0.0189201647999999,0.08475));
#1822=CARTESIAN_POINT('',(0.316225,0.0294201648,0.08475));
#1823=CARTESIAN_POINT('',(0.316225,0.0294201648,0.08275));
#1824=CARTESIAN_POINT('',(0.316225,0.0294201648,0.08075));
#1825=CARTESIAN_POINT('',(0.316225,0.0189201647999999,0.08075));
#1826=CARTESIAN_POINT('',(0.314725,0.0424201648,0.06175));
#1827=CARTESIAN_POINT('',(0.217225,0.0924201648,0.0447497249999999));
#1828=CARTESIAN_POINT('',(0.309225,0.1024201648,0.08575));
#1829=CARTESIAN_POINT('',(0.316225,0.0054201648,0.08575));
#1830=CARTESIAN_POINT('',(0.266225,0.056119814097566,0.0603943965941666));
#1831=CARTESIAN_POINT('',(0.266225,0.0555125530584508,0.0603943965941666));
#1832=CARTESIAN_POINT('',(0.267025,0.0555125530584508,0.0603943965941666));
#1833=CARTESIAN_POINT('',(0.267025,0.0567270751366811,0.0603943965941666));
#1834=CARTESIAN_POINT('',(0.267025,0.0567270751366811,0.0603943965941666));
#1835=CARTESIAN_POINT('',(0.266225,0.0567270751366811,0.0603943965941666));
#1836=CARTESIAN_POINT('',(0.266225,0.0567270751366811,0.0625721982970833));
#1837=CARTESIAN_POINT('',(0.265536099148542,0.0567270751366811,0.061883297445625));
#1838=CARTESIAN_POINT('',(0.266225,0.0567270751366811,0.0611943965941666));
#1839=CARTESIAN_POINT('',(0.266225,0.0567270751366811,0.0625721982970833));
#1840=CARTESIAN_POINT('',(0.266225,0.0524197841872652,0.0608943965941665));
#1841=CARTESIAN_POINT('',(0.266225,0.0524197841872652,0.0608943965941665));
#1842=CARTESIAN_POINT('',(0.266225,0.0524197841872652,0.059038793188333));
#1843=CARTESIAN_POINT('',(0.266225,0.0524197841872652,0.06075));
#1844=CARTESIAN_POINT('',(0.313225,0.0524197841872652,0.059038793188333));
#1845=CARTESIAN_POINT('',(0.266225,0.0524197841872652,0.06075));
#1846=CARTESIAN_POINT('',(0.266225,0.0545734296619731,0.0570387931883331));
#1847=CARTESIAN_POINT('',(0.266225,0.0544197841872652,0.0570387931883331));
#1848=CARTESIAN_POINT('',(0.266225,0.0544197841872652,0.0570387931883331));
#1849=CARTESIAN_POINT('',(0.266225,0.0545734296619731,0.0570387931883331));
#1850=CARTESIAN_POINT('',(0.266225,0.0567270751366811,0.0570387931883331));
#1851=CARTESIAN_POINT('',(0.266225,0.0567270751366811,0.0570387931883331));
#1852=CARTESIAN_POINT('',(0.266225,0.0567270751366811,0.0578165948912499));
#1853=CARTESIAN_POINT('',(0.266225,0.0567270751366811,0.0578165948912499));
#1854=CARTESIAN_POINT('',(0.266225,0.0567270751366811,0.0577943965941666));
#1855=CARTESIAN_POINT('',(0.266236099148542,0.0567270751366811,0.0578054957427082));
#1856=CARTESIAN_POINT('',(0.267025,0.0567270751366811,0.0585943965941667));
#1857=CARTESIAN_POINT('',(0.266225,0.0567270751366811,0.0585943965941667));
#1858=CARTESIAN_POINT('',(0.266225,0.056119814097566,0.0585943965941666));
#1859=CARTESIAN_POINT('',(0.267025,0.0555125530584508,0.0585943965941666));
#1860=CARTESIAN_POINT('',(0.267025,0.0555125530584508,0.0585943965941666));
#1861=CARTESIAN_POINT('',(0.266225,0.0555125530584508,0.0585943965941666));
#1862=CARTESIAN_POINT('',(0.266225,0.0555125530584508,0.0594943965941666));
#1863=CARTESIAN_POINT('',(0.267025,0.0555125530584508,0.0603943965941666));
#1864=CARTESIAN_POINT('',(0.266225,0.072827075136681,0.0608943965941665));
#1865=CARTESIAN_POINT('',(0.266225,0.0555125530584508,0.0611943965941666));
#1866=CARTESIAN_POINT('',(0.266225,0.0547125530584508,0.0611943965941666));
#1867=CARTESIAN_POINT('',(0.266225,0.0547125530584508,0.0585943965941666));
#1868=CARTESIAN_POINT('',(0.266225,0.0547125530584508,0.0577943965941666));
#1869=CARTESIAN_POINT('',(0.266225,0.0567270751366811,0.0577943965941666));
#1870=CARTESIAN_POINT('',(0.266225,0.0544197841872652,0.0590387931883331));
#1871=CARTESIAN_POINT('',(0.266225,0.0484197841872652,0.06075));
#1872=CARTESIAN_POINT('',(0.266225,0.0889270751366811,0.0578165948912498));
#1873=CARTESIAN_POINT('',(0.266225,0.0889270751366811,0.0585943965941666));
#1874=CARTESIAN_POINT('',(0.267025,0.0889270751366811,0.0585943965941666));
#1875=CARTESIAN_POINT('',(0.266225,0.0889270751366811,0.0577943965941666));
#1876=CARTESIAN_POINT('',(0.266225,0.0889270751366811,0.0577943965941666));
#1877=CARTESIAN_POINT('',(0.266225,0.0889270751366811,0.0578165948912498));
#1878=CARTESIAN_POINT('',(0.266225,0.0889270751366811,0.0570387931883331));
#1879=CARTESIAN_POINT('',(0.266225,0.0889270751366811,0.0570387931883331));
#1880=CARTESIAN_POINT('',(0.266225,0.091080720611389,0.0570387931883331));
#1881=CARTESIAN_POINT('',(0.266225,0.091080720611389,0.0570387931883331));
#1882=CARTESIAN_POINT('',(0.266225,0.0912343660860969,0.0570387931883331));
#1883=CARTESIAN_POINT('',(0.313225,0.0912343660860969,0.0570387931883331));
#1884=CARTESIAN_POINT('',(0.266225,0.0932343660860969,0.0608943965941665));
#1885=CARTESIAN_POINT('',(0.266225,0.0932343660860969,0.0590387931883331));
#1886=CARTESIAN_POINT('',(0.266225,0.0932343660860969,0.0590387931883331));
#1887=CARTESIAN_POINT('',(0.266225,0.0932343660860969,0.0608943965941665));
#1888=CARTESIAN_POINT('',(0.266225,0.0889270751366811,0.0625721982970833));
#1889=CARTESIAN_POINT('',(0.266225,0.0889270751366811,0.0625721982970833));
#1890=CARTESIAN_POINT('',(0.266225,0.0889270751366811,0.0611943965941666));
#1891=CARTESIAN_POINT('',(0.266225,0.0889270751366811,0.0611943965941666));
#1892=CARTESIAN_POINT('',(0.267025,0.0889270751366811,0.0603943965941666));
#1893=CARTESIAN_POINT('',(0.266225,0.0889270751366811,0.0603943965941666));
#1894=CARTESIAN_POINT('',(0.266225,0.0895343361757962,0.0603943965941666));
#1895=CARTESIAN_POINT('',(0.267025,0.0895343361757962,0.0603943965941666));
#1896=CARTESIAN_POINT('',(0.267025,0.0901415972149113,0.0603943965941666));
#1897=CARTESIAN_POINT('',(0.266225,0.0901415972149113,0.0603943965941666));
#1898=CARTESIAN_POINT('',(0.266225,0.0901415972149112,0.0594943965941666));
#1899=CARTESIAN_POINT('',(0.267025,0.0901415972149112,0.0594943965941666));
#1900=CARTESIAN_POINT('',(0.267025,0.0901415972149112,0.0585943965941666));
#1901=CARTESIAN_POINT('',(0.266225,0.0901415972149112,0.0585943965941666));
#1902=CARTESIAN_POINT('',(0.266225,0.0895343361757962,0.0585943965941666));
#1903=CARTESIAN_POINT('',(0.267025,0.0895343361757962,0.0585943965941666));
#1904=CARTESIAN_POINT('',(0.266225,0.072827075136681,0.0608943965941665));
#1905=CARTESIAN_POINT('',(0.266225,0.0909415972149112,0.0608943965941665));
#1906=CARTESIAN_POINT('',(0.266225,0.0909415972149112,0.0577943965941666));
#1907=CARTESIAN_POINT('',(0.266225,0.0909415972149112,0.0611943965941666));
#1908=CARTESIAN_POINT('',(0.266225,0.072827075136681,0.0611943965941666));
#1909=CARTESIAN_POINT('',(0.266225,0.0912343660860969,0.0590387931883331));
#1910=CARTESIAN_POINT('',(0.266225,0.072827075136681,0.0577943965941666));
#1911=CARTESIAN_POINT('',(0.239725,0.0484197841872652,0.06075));
#1912=CARTESIAN_POINT('',(0.266225,0.0544197841872652,0.0590387931883331));
#1913=CARTESIAN_POINT('',(0.266225,0.0912343660860969,0.0590387931883331));
#1914=CARTESIAN_POINT('',(0.267025,0.056119814097566,0.0585943965941666));
#1915=CARTESIAN_POINT('',(0.267325,0.0558125530584508,0.0588943965941666));
#1916=CARTESIAN_POINT('',(0.267025,0.0555125530584508,0.0594943965941666));
#1917=CARTESIAN_POINT('',(0.267227420346371,0.0557149734048225,0.0601919762477949));
#1918=CARTESIAN_POINT('',(0.267025,0.056119814097566,0.0603943965941666));
#1919=CARTESIAN_POINT('',(0.266225,0.072827075136681,0.0577943965941666));
#1920=CARTESIAN_POINT('',(0.267258333333334,0.089908263881578,0.0588277299274999));
#1921=CARTESIAN_POINT('',(0.266225,0.0909415972149112,0.0608943965941665));
#1922=CARTESIAN_POINT('',(0.272263174026077,0.0849034231888347,0.05515622256809));
#1923=CARTESIAN_POINT('',(0.266225,0.072827075136681,0.0611943965941666));
#1924=CARTESIAN_POINT('',(0.334225,0.1014201648,0.06875));
#1925=CARTESIAN_POINT('',(0.334225,0.1024201648,0.06875));
#1926=CARTESIAN_POINT('',(0.334225,0.1004201648,0.06875));
#1927=CARTESIAN_POINT('',(0.334225,0.1004201648,0.06475));
#1928=CARTESIAN_POINT('',(0.309225,0.1024201648,0.07275));
#1929=MECHANICAL_DESIGN_GEOMETRIC_PRESENTATION_REPRESENTATION('',(#1170),
#1930);
#1930=(
GEOMETRIC_REPRESENTATION_CONTEXT(3)
GLOBAL_UNCERTAINTY_ASSIGNED_CONTEXT((#1931))
GLOBAL_UNIT_ASSIGNED_CONTEXT((#1934,#1933,#1932))
REPRESENTATION_CONTEXT('V-unit_dr\X2\017E\X0\alo_V6',
'TOP_LEVEL_ASSEMBLY_PART')
);
#1931=UNCERTAINTY_MEASURE_WITH_UNIT(LENGTH_MEASURE(1.E-8),#1934,
'DISTANCE_ACCURACY_VALUE','Maximum Tolerance applied to model');
#1932=(
NAMED_UNIT(*)
SI_UNIT($,.STERADIAN.)
SOLID_ANGLE_UNIT()
);
#1933=(
NAMED_UNIT(*)
PLANE_ANGLE_UNIT()
SI_UNIT($,.RADIAN.)
);
#1934=(
LENGTH_UNIT()
NAMED_UNIT(*)
SI_UNIT($,.METRE.)
);
#1935=PRODUCT_DEFINITION_SHAPE('','',#1936);
#1936=PRODUCT_DEFINITION('','',#1938,#1937);
#1937=PRODUCT_DEFINITION_CONTEXT('',#1944,'design');
#1938=PRODUCT_DEFINITION_FORMATION_WITH_SPECIFIED_SOURCE('','',#1940,
 .NOT_KNOWN.);
#1939=PRODUCT_RELATED_PRODUCT_CATEGORY('','',(#1940));
#1940=PRODUCT('V-unit_dr\X2\017E\X0\alo_V6','V-unit_dr\X2\017E\X0\alo_
V6','V-unit_dr\X2\017E\X0\alo_V6',(#1942));
#1941=PRODUCT_CATEGORY('','');
#1942=PRODUCT_CONTEXT('',#1944,'mechanical');
#1943=APPLICATION_PROTOCOL_DEFINITION('international standard',
'ap242_managed_model_based_3d_engineering',2020,#1944);
#1944=APPLICATION_CONTEXT('managed model based 3d engineering');
ENDSEC;
END-ISO-10303-21;
