ISO-10303-21;
HEADER;
/* Generated by software containing ST-Developer
 * from STEP Tools, Inc. (www.steptools.com) 
 */
/* OPTION: using custom renumber hook */

FILE_DESCRIPTION(
/* description */ ('STEP AP242 Edition 2',
'CAx-IF Rec.Pracs.---Representation and Presentation of Product Manufa
cturing Information (PMI)---4.0---2014-10-13',
'CAx-IF Rec.Pracs.---3D Tessellated Geometry---0.4---2014-09-14','2;1',
'CAx-IF Rec.Pracs.---User Defined Attributes---1.5---2016-08-15'),
/* implementation_level */ '2;1');

FILE_NAME(
/* name */ 'QuickLink_210 - L_podalsek',
/* time_stamp */ '2026-09-01T09:12:45Z',
/* author */ (''),
/* organization */ (''),
/* preprocessor_version */ 'ST-DEVELOPER v20',
/* originating_system */ 'ONSHAPE BY PTC INC, 1.220',
/* authorisation */ '  ');

FILE_SCHEMA (('AP242_MANAGED_MODEL_BASED_3D_ENGINEERING_MIM_LF { 1 0 10303 442 3 1 4 }'));
ENDSEC;

DATA;
#10=SHAPE_REPRESENTATION_RELATIONSHIP('','',#367,#11);
#11=ADVANCED_BREP_SHAPE_REPRESENTATION('',(#365),#589);
#12=CYLINDRICAL_SURFACE('',#374,0.002);
#13=CYLINDRICAL_SURFACE('',#378,0.002);
#14=CYLINDRICAL_SURFACE('',#382,0.002);
#15=CYLINDRICAL_SURFACE('',#385,0.002);
#16=CIRCLE('',#372,0.002);
#17=CIRCLE('',#373,0.002);
#18=CIRCLE('',#375,0.002);
#19=CIRCLE('',#376,0.002);
#20=CIRCLE('',#379,0.002);
#21=CIRCLE('',#380,0.002);
#22=CIRCLE('',#383,0.002);
#23=CIRCLE('',#386,0.002);
#24=ORIENTED_EDGE('',*,*,#120,.F.);
#25=ORIENTED_EDGE('',*,*,#121,.F.);
#26=ORIENTED_EDGE('',*,*,#122,.F.);
#27=ORIENTED_EDGE('',*,*,#123,.T.);
#28=ORIENTED_EDGE('',*,*,#124,.T.);
#29=ORIENTED_EDGE('',*,*,#125,.F.);
#30=ORIENTED_EDGE('',*,*,#126,.F.);
#31=ORIENTED_EDGE('',*,*,#127,.F.);
#32=ORIENTED_EDGE('',*,*,#128,.F.);
#33=ORIENTED_EDGE('',*,*,#129,.T.);
#34=ORIENTED_EDGE('',*,*,#130,.T.);
#35=ORIENTED_EDGE('',*,*,#131,.F.);
#36=ORIENTED_EDGE('',*,*,#132,.T.);
#37=ORIENTED_EDGE('',*,*,#133,.T.);
#38=ORIENTED_EDGE('',*,*,#134,.F.);
#39=ORIENTED_EDGE('',*,*,#135,.F.);
#40=ORIENTED_EDGE('',*,*,#136,.T.);
#41=ORIENTED_EDGE('',*,*,#137,.T.);
#42=ORIENTED_EDGE('',*,*,#138,.F.);
#43=ORIENTED_EDGE('',*,*,#139,.F.);
#44=ORIENTED_EDGE('',*,*,#126,.T.);
#45=ORIENTED_EDGE('',*,*,#140,.F.);
#46=ORIENTED_EDGE('',*,*,#128,.T.);
#47=ORIENTED_EDGE('',*,*,#141,.F.);
#48=ORIENTED_EDGE('',*,*,#142,.F.);
#49=ORIENTED_EDGE('',*,*,#143,.F.);
#50=ORIENTED_EDGE('',*,*,#144,.T.);
#51=ORIENTED_EDGE('',*,*,#145,.T.);
#52=ORIENTED_EDGE('',*,*,#146,.F.);
#53=ORIENTED_EDGE('',*,*,#147,.F.);
#54=ORIENTED_EDGE('',*,*,#143,.T.);
#55=ORIENTED_EDGE('',*,*,#148,.T.);
#56=ORIENTED_EDGE('',*,*,#149,.F.);
#57=ORIENTED_EDGE('',*,*,#150,.F.);
#58=ORIENTED_EDGE('',*,*,#151,.T.);
#59=ORIENTED_EDGE('',*,*,#146,.T.);
#60=ORIENTED_EDGE('',*,*,#145,.F.);
#61=ORIENTED_EDGE('',*,*,#152,.F.);
#62=ORIENTED_EDGE('',*,*,#150,.T.);
#63=ORIENTED_EDGE('',*,*,#153,.T.);
#64=ORIENTED_EDGE('',*,*,#154,.T.);
#65=ORIENTED_EDGE('',*,*,#155,.F.);
#66=ORIENTED_EDGE('',*,*,#136,.F.);
#67=ORIENTED_EDGE('',*,*,#156,.T.);
#68=ORIENTED_EDGE('',*,*,#157,.F.);
#69=ORIENTED_EDGE('',*,*,#156,.F.);
#70=ORIENTED_EDGE('',*,*,#139,.T.);
#71=ORIENTED_EDGE('',*,*,#158,.T.);
#72=ORIENTED_EDGE('',*,*,#159,.F.);
#73=ORIENTED_EDGE('',*,*,#158,.F.);
#74=ORIENTED_EDGE('',*,*,#138,.T.);
#75=ORIENTED_EDGE('',*,*,#160,.T.);
#76=ORIENTED_EDGE('',*,*,#161,.F.);
#77=ORIENTED_EDGE('',*,*,#129,.F.);
#78=ORIENTED_EDGE('',*,*,#140,.T.);
#79=ORIENTED_EDGE('',*,*,#125,.T.);
#80=ORIENTED_EDGE('',*,*,#162,.T.);
#81=ORIENTED_EDGE('',*,*,#160,.F.);
#82=ORIENTED_EDGE('',*,*,#137,.F.);
#83=ORIENTED_EDGE('',*,*,#155,.T.);
#84=ORIENTED_EDGE('',*,*,#124,.F.);
#85=ORIENTED_EDGE('',*,*,#163,.F.);
#86=ORIENTED_EDGE('',*,*,#130,.F.);
#87=ORIENTED_EDGE('',*,*,#161,.T.);
#88=ORIENTED_EDGE('',*,*,#154,.F.);
#89=ORIENTED_EDGE('',*,*,#157,.T.);
#90=ORIENTED_EDGE('',*,*,#159,.T.);
#91=ORIENTED_EDGE('',*,*,#162,.F.);
#92=ORIENTED_EDGE('',*,*,#163,.T.);
#93=ORIENTED_EDGE('',*,*,#123,.F.);
#94=ORIENTED_EDGE('',*,*,#164,.F.);
#95=ORIENTED_EDGE('',*,*,#131,.T.);
#96=ORIENTED_EDGE('',*,*,#165,.T.);
#97=ORIENTED_EDGE('',*,*,#133,.F.);
#98=ORIENTED_EDGE('',*,*,#166,.F.);
#99=ORIENTED_EDGE('',*,*,#121,.T.);
#100=ORIENTED_EDGE('',*,*,#144,.F.);
#101=ORIENTED_EDGE('',*,*,#147,.T.);
#102=ORIENTED_EDGE('',*,*,#151,.F.);
#103=ORIENTED_EDGE('',*,*,#152,.T.);
#104=ORIENTED_EDGE('',*,*,#164,.T.);
#105=ORIENTED_EDGE('',*,*,#122,.T.);
#106=ORIENTED_EDGE('',*,*,#166,.T.);
#107=ORIENTED_EDGE('',*,*,#132,.F.);
#108=ORIENTED_EDGE('',*,*,#167,.T.);
#109=ORIENTED_EDGE('',*,*,#134,.T.);
#110=ORIENTED_EDGE('',*,*,#165,.F.);
#111=ORIENTED_EDGE('',*,*,#120,.T.);
#112=ORIENTED_EDGE('',*,*,#142,.T.);
#113=ORIENTED_EDGE('',*,*,#153,.F.);
#114=ORIENTED_EDGE('',*,*,#149,.T.);
#115=ORIENTED_EDGE('',*,*,#148,.F.);
#116=ORIENTED_EDGE('',*,*,#127,.T.);
#117=ORIENTED_EDGE('',*,*,#141,.T.);
#118=ORIENTED_EDGE('',*,*,#135,.T.);
#119=ORIENTED_EDGE('',*,*,#167,.F.);
#120=EDGE_CURVE('',#168,#169,#200,.T.);
#121=EDGE_CURVE('',#170,#168,#201,.T.);
#122=EDGE_CURVE('',#171,#170,#202,.T.);
#123=EDGE_CURVE('',#171,#172,#203,.T.);
#124=EDGE_CURVE('',#172,#173,#204,.T.);
#125=EDGE_CURVE('',#174,#173,#205,.T.);
#126=EDGE_CURVE('',#175,#174,#206,.T.);
#127=EDGE_CURVE('',#169,#175,#207,.F.);
#128=EDGE_CURVE('',#176,#177,#208,.T.);
#129=EDGE_CURVE('',#176,#178,#209,.T.);
#130=EDGE_CURVE('',#178,#179,#210,.T.);
#131=EDGE_CURVE('',#180,#179,#211,.T.);
#132=EDGE_CURVE('',#180,#181,#212,.T.);
#133=EDGE_CURVE('',#181,#182,#213,.T.);
#134=EDGE_CURVE('',#183,#182,#214,.T.);
#135=EDGE_CURVE('',#177,#183,#215,.F.);
#136=EDGE_CURVE('',#184,#185,#16,.T.);
#137=EDGE_CURVE('',#185,#186,#216,.T.);
#138=EDGE_CURVE('',#187,#186,#17,.T.);
#139=EDGE_CURVE('',#184,#187,#217,.T.);
#140=EDGE_CURVE('',#176,#174,#218,.T.);
#141=EDGE_CURVE('',#175,#177,#219,.T.);
#142=EDGE_CURVE('',#188,#189,#18,.T.);
#143=EDGE_CURVE('',#190,#188,#220,.T.);
#144=EDGE_CURVE('',#190,#191,#19,.T.);
#145=EDGE_CURVE('',#191,#189,#221,.T.);
#146=EDGE_CURVE('',#192,#193,#222,.T.);
#147=EDGE_CURVE('',#190,#192,#223,.T.);
#148=EDGE_CURVE('',#188,#193,#224,.T.);
#149=EDGE_CURVE('',#194,#193,#20,.T.);
#150=EDGE_CURVE('',#195,#194,#225,.T.);
#151=EDGE_CURVE('',#195,#192,#21,.T.);
#152=EDGE_CURVE('',#195,#191,#226,.T.);
#153=EDGE_CURVE('',#194,#189,#227,.T.);
#154=EDGE_CURVE('',#196,#197,#22,.T.);
#155=EDGE_CURVE('',#185,#197,#228,.T.);
#156=EDGE_CURVE('',#184,#196,#229,.T.);
#157=EDGE_CURVE('',#196,#198,#230,.T.);
#158=EDGE_CURVE('',#187,#198,#231,.T.);
#159=EDGE_CURVE('',#198,#199,#23,.T.);
#160=EDGE_CURVE('',#186,#199,#232,.T.);
#161=EDGE_CURVE('',#178,#173,#233,.T.);
#162=EDGE_CURVE('',#197,#199,#234,.T.);
#163=EDGE_CURVE('',#179,#172,#235,.T.);
#164=EDGE_CURVE('',#180,#171,#236,.T.);
#165=EDGE_CURVE('',#168,#182,#237,.T.);
#166=EDGE_CURVE('',#170,#181,#238,.T.);
#167=EDGE_CURVE('',#169,#183,#239,.T.);
#168=VERTEX_POINT('',#492);
#169=VERTEX_POINT('',#493);
#170=VERTEX_POINT('',#495);
#171=VERTEX_POINT('',#497);
#172=VERTEX_POINT('',#499);
#173=VERTEX_POINT('',#501);
#174=VERTEX_POINT('',#503);
#175=VERTEX_POINT('',#505);
#176=VERTEX_POINT('',#509);
#177=VERTEX_POINT('',#510);
#178=VERTEX_POINT('',#512);
#179=VERTEX_POINT('',#514);
#180=VERTEX_POINT('',#516);
#181=VERTEX_POINT('',#518);
#182=VERTEX_POINT('',#520);
#183=VERTEX_POINT('',#522);
#184=VERTEX_POINT('',#526);
#185=VERTEX_POINT('',#527);
#186=VERTEX_POINT('',#529);
#187=VERTEX_POINT('',#531);
#188=VERTEX_POINT('',#537);
#189=VERTEX_POINT('',#538);
#190=VERTEX_POINT('',#540);
#191=VERTEX_POINT('',#542);
#192=VERTEX_POINT('',#546);
#193=VERTEX_POINT('',#547);
#194=VERTEX_POINT('',#552);
#195=VERTEX_POINT('',#554);
#196=VERTEX_POINT('',#561);
#197=VERTEX_POINT('',#562);
#198=VERTEX_POINT('',#567);
#199=VERTEX_POINT('',#571);
#200=LINE('',#491,#240);
#201=LINE('',#494,#241);
#202=LINE('',#496,#242);
#203=LINE('',#498,#243);
#204=LINE('',#500,#244);
#205=LINE('',#502,#245);
#206=LINE('',#504,#246);
#207=LINE('',#506,#247);
#208=LINE('',#508,#248);
#209=LINE('',#511,#249);
#210=LINE('',#513,#250);
#211=LINE('',#515,#251);
#212=LINE('',#517,#252);
#213=LINE('',#519,#253);
#214=LINE('',#521,#254);
#215=LINE('',#523,#255);
#216=LINE('',#528,#256);
#217=LINE('',#532,#257);
#218=LINE('',#533,#258);
#219=LINE('',#534,#259);
#220=LINE('',#539,#260);
#221=LINE('',#543,#261);
#222=LINE('',#545,#262);
#223=LINE('',#548,#263);
#224=LINE('',#549,#264);
#225=LINE('',#553,#265);
#226=LINE('',#557,#266);
#227=LINE('',#558,#267);
#228=LINE('',#563,#268);
#229=LINE('',#564,#269);
#230=LINE('',#566,#270);
#231=LINE('',#568,#271);
#232=LINE('',#572,#272);
#233=LINE('',#574,#273);
#234=LINE('',#576,#274);
#235=LINE('',#578,#275);
#236=LINE('',#580,#276);
#237=LINE('',#582,#277);
#238=LINE('',#583,#278);
#239=LINE('',#586,#279);
#240=VECTOR('',#399,1.);
#241=VECTOR('',#400,1.);
#242=VECTOR('',#401,1.);
#243=VECTOR('',#402,1.);
#244=VECTOR('',#403,1.);
#245=VECTOR('',#404,1.);
#246=VECTOR('',#405,1.);
#247=VECTOR('',#406,1.);
#248=VECTOR('',#409,1.);
#249=VECTOR('',#410,1.);
#250=VECTOR('',#411,1.);
#251=VECTOR('',#412,1.);
#252=VECTOR('',#413,1.);
#253=VECTOR('',#414,1.);
#254=VECTOR('',#415,1.);
#255=VECTOR('',#416,1.);
#256=VECTOR('',#421,1.);
#257=VECTOR('',#424,1.);
#258=VECTOR('',#425,1.);
#259=VECTOR('',#426,1.);
#260=VECTOR('',#431,1.);
#261=VECTOR('',#434,1.);
#262=VECTOR('',#437,1.);
#263=VECTOR('',#438,1.);
#264=VECTOR('',#439,1.);
#265=VECTOR('',#444,1.);
#266=VECTOR('',#449,1.);
#267=VECTOR('',#450,1.);
#268=VECTOR('',#455,1.);
#269=VECTOR('',#456,1.);
#270=VECTOR('',#459,1.);
#271=VECTOR('',#460,1.);
#272=VECTOR('',#465,1.);
#273=VECTOR('',#468,1.);
#274=VECTOR('',#471,1.);
#275=VECTOR('',#474,1.);
#276=VECTOR('',#477,1.);
#277=VECTOR('',#480,1.);
#278=VECTOR('',#481,1.);
#279=VECTOR('',#486,1.);
#280=EDGE_LOOP('',(#24,#25,#26,#27,#28,#29,#30,#31));
#281=EDGE_LOOP('',(#32,#33,#34,#35,#36,#37,#38,#39));
#282=EDGE_LOOP('',(#40,#41,#42,#43));
#283=EDGE_LOOP('',(#44,#45,#46,#47));
#284=EDGE_LOOP('',(#48,#49,#50,#51));
#285=EDGE_LOOP('',(#52,#53,#54,#55));
#286=EDGE_LOOP('',(#56,#57,#58,#59));
#287=EDGE_LOOP('',(#60,#61,#62,#63));
#288=EDGE_LOOP('',(#64,#65,#66,#67));
#289=EDGE_LOOP('',(#68,#69,#70,#71));
#290=EDGE_LOOP('',(#72,#73,#74,#75));
#291=EDGE_LOOP('',(#76,#77,#78,#79));
#292=EDGE_LOOP('',(#80,#81,#82,#83));
#293=EDGE_LOOP('',(#84,#85,#86,#87));
#294=EDGE_LOOP('',(#88,#89,#90,#91));
#295=EDGE_LOOP('',(#92,#93,#94,#95));
#296=EDGE_LOOP('',(#96,#97,#98,#99));
#297=EDGE_LOOP('',(#100,#101,#102,#103));
#298=EDGE_LOOP('',(#104,#105,#106,#107));
#299=EDGE_LOOP('',(#108,#109,#110,#111));
#300=EDGE_LOOP('',(#112,#113,#114,#115));
#301=EDGE_LOOP('',(#116,#117,#118,#119));
#302=FACE_BOUND('',#280,.T.);
#303=FACE_BOUND('',#281,.T.);
#304=FACE_BOUND('',#282,.T.);
#305=FACE_BOUND('',#283,.T.);
#306=FACE_BOUND('',#284,.T.);
#307=FACE_BOUND('',#285,.T.);
#308=FACE_BOUND('',#286,.T.);
#309=FACE_BOUND('',#287,.T.);
#310=FACE_BOUND('',#288,.T.);
#311=FACE_BOUND('',#289,.T.);
#312=FACE_BOUND('',#290,.T.);
#313=FACE_BOUND('',#291,.T.);
#314=FACE_BOUND('',#292,.T.);
#315=FACE_BOUND('',#293,.T.);
#316=FACE_BOUND('',#294,.T.);
#317=FACE_BOUND('',#295,.T.);
#318=FACE_BOUND('',#296,.T.);
#319=FACE_BOUND('',#297,.T.);
#320=FACE_BOUND('',#298,.T.);
#321=FACE_BOUND('',#299,.T.);
#322=FACE_BOUND('',#300,.T.);
#323=FACE_BOUND('',#301,.T.);
#324=PLANE('',#369);
#325=PLANE('',#370);
#326=PLANE('',#371);
#327=PLANE('',#377);
#328=PLANE('',#381);
#329=PLANE('',#384);
#330=PLANE('',#387);
#331=PLANE('',#388);
#332=PLANE('',#389);
#333=PLANE('',#390);
#334=PLANE('',#391);
#335=PLANE('',#392);
#336=PLANE('',#393);
#337=PLANE('',#394);
#338=ADVANCED_FACE('',(#302),#324,.T.);
#339=ADVANCED_FACE('',(#303),#325,.T.);
#340=ADVANCED_FACE('',(#304,#305),#326,.T.);
#341=ADVANCED_FACE('',(#306),#12,.F.);
#342=ADVANCED_FACE('',(#307),#327,.T.);
#343=ADVANCED_FACE('',(#308),#13,.F.);
#344=ADVANCED_FACE('',(#309),#328,.T.);
#345=ADVANCED_FACE('',(#310),#14,.F.);
#346=ADVANCED_FACE('',(#311),#329,.F.);
#347=ADVANCED_FACE('',(#312),#15,.F.);
#348=ADVANCED_FACE('',(#313),#330,.F.);
#349=ADVANCED_FACE('',(#314),#331,.T.);
#350=ADVANCED_FACE('',(#315,#316),#332,.F.);
#351=ADVANCED_FACE('',(#317),#333,.T.);
#352=ADVANCED_FACE('',(#318),#334,.T.);
#353=ADVANCED_FACE('',(#319,#320),#335,.F.);
#354=ADVANCED_FACE('',(#321,#322),#336,.T.);
#355=ADVANCED_FACE('',(#323),#337,.F.);
#356=CLOSED_SHELL('',(#338,#339,#340,#341,#342,#343,#344,#345,#346,#347,
#348,#349,#350,#351,#352,#353,#354,#355));
#357=STYLED_ITEM('',(#358),#365);
#358=PRESENTATION_STYLE_ASSIGNMENT((#359));
#359=SURFACE_STYLE_USAGE(.BOTH.,#360);
#360=SURFACE_SIDE_STYLE('',(#361));
#361=SURFACE_STYLE_FILL_AREA(#362);
#362=FILL_AREA_STYLE('',(#363));
#363=FILL_AREA_STYLE_COLOUR('',#364);
#364=COLOUR_RGB('',0.980392156862745,0.713725490196078,0.00392156862745098);
#365=MANIFOLD_SOLID_BREP('L_podalsek',#356);
#366=SHAPE_DEFINITION_REPRESENTATION(#594,#367);
#367=SHAPE_REPRESENTATION('L_podalsek',(#368),#589);
#368=AXIS2_PLACEMENT_3D('',#489,#395,#396);
#369=AXIS2_PLACEMENT_3D('',#490,#397,#398);
#370=AXIS2_PLACEMENT_3D('',#507,#407,#408);
#371=AXIS2_PLACEMENT_3D('',#524,#417,#418);
#372=AXIS2_PLACEMENT_3D('',#525,#419,#420);
#373=AXIS2_PLACEMENT_3D('',#530,#422,#423);
#374=AXIS2_PLACEMENT_3D('',#535,#427,#428);
#375=AXIS2_PLACEMENT_3D('',#536,#429,#430);
#376=AXIS2_PLACEMENT_3D('',#541,#432,#433);
#377=AXIS2_PLACEMENT_3D('',#544,#435,#436);
#378=AXIS2_PLACEMENT_3D('',#550,#440,#441);
#379=AXIS2_PLACEMENT_3D('',#551,#442,#443);
#380=AXIS2_PLACEMENT_3D('',#555,#445,#446);
#381=AXIS2_PLACEMENT_3D('',#556,#447,#448);
#382=AXIS2_PLACEMENT_3D('',#559,#451,#452);
#383=AXIS2_PLACEMENT_3D('',#560,#453,#454);
#384=AXIS2_PLACEMENT_3D('',#565,#457,#458);
#385=AXIS2_PLACEMENT_3D('',#569,#461,#462);
#386=AXIS2_PLACEMENT_3D('',#570,#463,#464);
#387=AXIS2_PLACEMENT_3D('',#573,#466,#467);
#388=AXIS2_PLACEMENT_3D('',#575,#469,#470);
#389=AXIS2_PLACEMENT_3D('',#577,#472,#473);
#390=AXIS2_PLACEMENT_3D('',#579,#475,#476);
#391=AXIS2_PLACEMENT_3D('',#581,#478,#479);
#392=AXIS2_PLACEMENT_3D('',#584,#482,#483);
#393=AXIS2_PLACEMENT_3D('',#585,#484,#485);
#394=AXIS2_PLACEMENT_3D('',#587,#487,#488);
#395=DIRECTION('',(0.,0.,1.));
#396=DIRECTION('',(1.,0.,0.));
#397=DIRECTION('',(0.,0.,-1.));
#398=DIRECTION('',(1.,0.,0.));
#399=DIRECTION('',(0.,-1.,0.));
#400=DIRECTION('',(-1.,0.,0.));
#401=DIRECTION('',(0.,1.,0.));
#402=DIRECTION('',(-1.,0.,0.));
#403=DIRECTION('',(0.,-1.,0.));
#404=DIRECTION('',(1.,0.,0.));
#405=DIRECTION('',(0.,-1.,0.));
#406=DIRECTION('',(0.707106781186548,0.707106781186548,0.));
#407=DIRECTION('',(0.,0.,1.));
#408=DIRECTION('',(-1.,0.,0.));
#409=DIRECTION('',(0.,1.,0.));
#410=DIRECTION('',(1.,0.,0.));
#411=DIRECTION('',(0.,1.,0.));
#412=DIRECTION('',(-1.,0.,0.));
#413=DIRECTION('',(0.,1.,0.));
#414=DIRECTION('',(-1.,0.,0.));
#415=DIRECTION('',(0.,1.,0.));
#416=DIRECTION('',(-0.707106781186548,-0.707106781186548,0.));
#417=DIRECTION('',(-1.,0.,0.));
#418=DIRECTION('',(0.,1.,0.));
#419=DIRECTION('',(1.,0.,0.));
#420=DIRECTION('',(0.,0.,-1.));
#421=DIRECTION('',(0.,1.,0.));
#422=DIRECTION('',(-1.,0.,0.));
#423=DIRECTION('',(0.,0.,-1.));
#424=DIRECTION('',(0.,1.,0.));
#425=DIRECTION('',(0.,0.,-1.));
#426=DIRECTION('',(0.,0.,1.));
#427=DIRECTION('',(-1.,0.,0.));
#428=DIRECTION('',(0.,0.,-1.));
#429=DIRECTION('',(1.,0.,0.));
#430=DIRECTION('',(0.,0.,-1.));
#431=DIRECTION('',(-1.,0.,0.));
#432=DIRECTION('',(1.,0.,0.));
#433=DIRECTION('',(0.,0.,-1.));
#434=DIRECTION('',(-1.,0.,0.));
#435=DIRECTION('',(0.,0.,-1.));
#436=DIRECTION('',(1.,0.,0.));
#437=DIRECTION('',(-1.,0.,0.));
#438=DIRECTION('',(0.,1.,0.));
#439=DIRECTION('',(0.,1.,0.));
#440=DIRECTION('',(-1.,0.,0.));
#441=DIRECTION('',(0.,0.,-1.));
#442=DIRECTION('',(1.,0.,0.));
#443=DIRECTION('',(0.,0.,-1.));
#444=DIRECTION('',(-1.,0.,0.));
#445=DIRECTION('',(1.,0.,0.));
#446=DIRECTION('',(0.,0.,-1.));
#447=DIRECTION('',(0.,0.,1.));
#448=DIRECTION('',(-1.,0.,0.));
#449=DIRECTION('',(0.,-1.,0.));
#450=DIRECTION('',(0.,-1.,0.));
#451=DIRECTION('',(1.,0.,0.));
#452=DIRECTION('',(0.,0.,1.));
#453=DIRECTION('',(1.,0.,0.));
#454=DIRECTION('',(0.,0.,-1.));
#455=DIRECTION('',(1.,0.,0.));
#456=DIRECTION('',(1.,0.,0.));
#457=DIRECTION('',(0.,0.,1.));
#458=DIRECTION('',(-1.,0.,0.));
#459=DIRECTION('',(0.,1.,0.));
#460=DIRECTION('',(1.,0.,0.));
#461=DIRECTION('',(1.,0.,0.));
#462=DIRECTION('',(0.,0.,1.));
#463=DIRECTION('',(-1.,0.,0.));
#464=DIRECTION('',(0.,0.,-1.));
#465=DIRECTION('',(1.,0.,0.));
#466=DIRECTION('',(0.,1.,0.));
#467=DIRECTION('',(0.,0.,1.));
#468=DIRECTION('',(0.,0.,-1.));
#469=DIRECTION('',(0.,0.,1.));
#470=DIRECTION('',(-1.,0.,0.));
#471=DIRECTION('',(0.,1.,0.));
#472=DIRECTION('',(-1.,0.,0.));
#473=DIRECTION('',(0.,1.,0.));
#474=DIRECTION('',(0.,0.,-1.));
#475=DIRECTION('',(0.,-1.,0.));
#476=DIRECTION('',(0.,0.,-1.));
#477=DIRECTION('',(0.,0.,-1.));
#478=DIRECTION('',(0.,1.,0.));
#479=DIRECTION('',(0.,0.,1.));
#480=DIRECTION('',(0.,0.,1.));
#481=DIRECTION('',(0.,0.,1.));
#482=DIRECTION('',(-1.,0.,0.));
#483=DIRECTION('',(0.,1.,0.));
#484=DIRECTION('',(-1.,0.,0.));
#485=DIRECTION('',(0.,1.,0.));
#486=DIRECTION('',(0.,0.,1.));
#487=DIRECTION('',(0.707106781186548,-0.707106781186548,0.));
#488=DIRECTION('',(0.,0.,1.));
#489=CARTESIAN_POINT('',(0.,0.,0.));
#490=CARTESIAN_POINT('',(-0.054825,0.0189201648,0.06975));
#491=CARTESIAN_POINT('',(-0.051825,0.0189201648,0.06975));
#492=CARTESIAN_POINT('',(-0.051825,0.1064201648,0.06975));
#493=CARTESIAN_POINT('',(-0.051825,0.0514201648,0.06975));
#494=CARTESIAN_POINT('',(-0.047825,0.1064201648,0.06975));
#495=CARTESIAN_POINT('',(-0.047825,0.1064201648,0.06975));
#496=CARTESIAN_POINT('',(-0.047825,0.0714201648,0.06975));
#497=CARTESIAN_POINT('',(-0.047825,0.0364201648,0.06975));
#498=CARTESIAN_POINT('',(-0.047825,0.0364201648,0.06975));
#499=CARTESIAN_POINT('',(-0.051825,0.0364201648,0.06975));
#500=CARTESIAN_POINT('',(-0.051825,0.0189201648,0.06975));
#501=CARTESIAN_POINT('',(-0.051825,0.0014201648,0.06975));
#502=CARTESIAN_POINT('',(-0.054825,0.0014201648,0.06975));
#503=CARTESIAN_POINT('',(-0.054825,0.0014201648,0.06975));
#504=CARTESIAN_POINT('',(-0.054825,0.0189201648,0.06975));
#505=CARTESIAN_POINT('',(-0.054825,0.0484201648,0.06975));
#506=CARTESIAN_POINT('',(-0.069575,0.0336701648,0.06975));
#507=CARTESIAN_POINT('',(-0.054825,0.0189201648,0.08975));
#508=CARTESIAN_POINT('',(-0.054825,0.0189201648,0.08975));
#509=CARTESIAN_POINT('',(-0.054825,0.0014201648,0.08975));
#510=CARTESIAN_POINT('',(-0.054825,0.0484201648,0.08975));
#511=CARTESIAN_POINT('',(-0.054825,0.0014201648,0.08975));
#512=CARTESIAN_POINT('',(-0.051825,0.0014201648,0.08975));
#513=CARTESIAN_POINT('',(-0.051825,0.0189201648,0.08975));
#514=CARTESIAN_POINT('',(-0.051825,0.0364201648,0.08975));
#515=CARTESIAN_POINT('',(-0.047825,0.0364201648,0.08975));
#516=CARTESIAN_POINT('',(-0.047825,0.0364201648,0.08975));
#517=CARTESIAN_POINT('',(-0.047825,0.0714201648,0.08975));
#518=CARTESIAN_POINT('',(-0.047825,0.1064201648,0.08975));
#519=CARTESIAN_POINT('',(-0.047825,0.1064201648,0.08975));
#520=CARTESIAN_POINT('',(-0.051825,0.1064201648,0.08975));
#521=CARTESIAN_POINT('',(-0.051825,0.0189201648,0.08975));
#522=CARTESIAN_POINT('',(-0.051825,0.0514201648,0.08975));
#523=CARTESIAN_POINT('',(-0.069575,0.0336701648,0.08975));
#524=CARTESIAN_POINT('',(-0.054825,0.0539201648,0.07725));
#525=CARTESIAN_POINT('',(-0.054825,0.00842016479999987,0.08275));
#526=CARTESIAN_POINT('',(-0.054825,0.00842016479999987,0.08475));
#527=CARTESIAN_POINT('',(-0.054825,0.00842016479999988,0.08075));
#528=CARTESIAN_POINT('',(-0.054825,0.0189201647999999,0.08075));
#529=CARTESIAN_POINT('',(-0.054825,0.0294201648,0.08075));
#530=CARTESIAN_POINT('',(-0.054825,0.0294201648,0.08275));
#531=CARTESIAN_POINT('',(-0.054825,0.0294201648,0.08475));
#532=CARTESIAN_POINT('',(-0.054825,0.0189201647999999,0.08475));
#533=CARTESIAN_POINT('',(-0.054825,0.0014201648,0.06775));
#534=CARTESIAN_POINT('',(-0.054825,0.0484201648,0.07725));
#535=CARTESIAN_POINT('',(-0.047825,0.0784201647999999,0.08275));
#536=CARTESIAN_POINT('',(-0.051825,0.0784201647999999,0.08275));
#537=CARTESIAN_POINT('',(-0.051825,0.0784201647999999,0.08475));
#538=CARTESIAN_POINT('',(-0.051825,0.0784201647999999,0.08075));
#539=CARTESIAN_POINT('',(-0.047825,0.0784201647999999,0.08475));
#540=CARTESIAN_POINT('',(-0.047825,0.0784201647999999,0.08475));
#541=CARTESIAN_POINT('',(-0.047825,0.0784201647999999,0.08275));
#542=CARTESIAN_POINT('',(-0.047825,0.0784201647999999,0.08075));
#543=CARTESIAN_POINT('',(-0.047825,0.0784201647999999,0.08075));
#544=CARTESIAN_POINT('',(-0.047825,0.0889201648,0.08475));
#545=CARTESIAN_POINT('',(-0.047825,0.0994201648,0.08475));
#546=CARTESIAN_POINT('',(-0.047825,0.0994201648,0.08475));
#547=CARTESIAN_POINT('',(-0.051825,0.0994201648,0.08475));
#548=CARTESIAN_POINT('',(-0.047825,0.0889201648,0.08475));
#549=CARTESIAN_POINT('',(-0.051825,0.0889201648,0.08475));
#550=CARTESIAN_POINT('',(-0.047825,0.0994201648,0.08275));
#551=CARTESIAN_POINT('',(-0.051825,0.0994201648,0.08275));
#552=CARTESIAN_POINT('',(-0.051825,0.0994201648,0.08075));
#553=CARTESIAN_POINT('',(-0.047825,0.0994201648,0.08075));
#554=CARTESIAN_POINT('',(-0.047825,0.0994201648,0.08075));
#555=CARTESIAN_POINT('',(-0.047825,0.0994201648,0.08275));
#556=CARTESIAN_POINT('',(-0.047825,0.0889201648,0.08075));
#557=CARTESIAN_POINT('',(-0.047825,0.0889201648,0.08075));
#558=CARTESIAN_POINT('',(-0.051825,0.0889201648,0.08075));
#559=CARTESIAN_POINT('',(-0.054825,0.00842016479999987,0.08275));
#560=CARTESIAN_POINT('',(-0.051825,0.00842016479999987,0.08275));
#561=CARTESIAN_POINT('',(-0.051825,0.00842016479999987,0.08475));
#562=CARTESIAN_POINT('',(-0.051825,0.00842016479999988,0.08075));
#563=CARTESIAN_POINT('',(-0.054825,0.00842016479999988,0.08075));
#564=CARTESIAN_POINT('',(-0.054825,0.00842016479999987,0.08475));
#565=CARTESIAN_POINT('',(-0.054825,0.0189201647999999,0.08475));
#566=CARTESIAN_POINT('',(-0.051825,0.0189201647999999,0.08475));
#567=CARTESIAN_POINT('',(-0.051825,0.0294201648,0.08475));
#568=CARTESIAN_POINT('',(-0.054825,0.0294201648,0.08475));
#569=CARTESIAN_POINT('',(-0.054825,0.0294201648,0.08275));
#570=CARTESIAN_POINT('',(-0.051825,0.0294201648,0.08275));
#571=CARTESIAN_POINT('',(-0.051825,0.0294201648,0.08075));
#572=CARTESIAN_POINT('',(-0.054825,0.0294201648,0.08075));
#573=CARTESIAN_POINT('',(-0.054825,0.0014201648,0.06775));
#574=CARTESIAN_POINT('',(-0.051825,0.0014201648,0.06775));
#575=CARTESIAN_POINT('',(-0.054825,0.0189201647999999,0.08075));
#576=CARTESIAN_POINT('',(-0.051825,0.0189201647999999,0.08075));
#577=CARTESIAN_POINT('',(-0.051825,0.0539201648,0.07725));
#578=CARTESIAN_POINT('',(-0.051825,0.0364201648,0.06775));
#579=CARTESIAN_POINT('',(-0.047825,0.0364201648,0.06775));
#580=CARTESIAN_POINT('',(-0.047825,0.0364201648,0.06775));
#581=CARTESIAN_POINT('',(-0.047825,0.1064201648,0.07975));
#582=CARTESIAN_POINT('',(-0.051825,0.1064201648,0.07975));
#583=CARTESIAN_POINT('',(-0.047825,0.1064201648,0.07975));
#584=CARTESIAN_POINT('',(-0.047825,0.0539201648,0.07725));
#585=CARTESIAN_POINT('',(-0.051825,0.0539201648,0.07975));
#586=CARTESIAN_POINT('',(-0.051825,0.0514201648,0.07975));
#587=CARTESIAN_POINT('',(-0.054825,0.0484201648,0.07725));
#588=MECHANICAL_DESIGN_GEOMETRIC_PRESENTATION_REPRESENTATION('',(#357),
#589);
#589=(
GEOMETRIC_REPRESENTATION_CONTEXT(3)
GLOBAL_UNCERTAINTY_ASSIGNED_CONTEXT((#590))
GLOBAL_UNIT_ASSIGNED_CONTEXT((#593,#592,#591))
REPRESENTATION_CONTEXT('L_podalsek','TOP_LEVEL_ASSEMBLY_PART')
);
#590=UNCERTAINTY_MEASURE_WITH_UNIT(LENGTH_MEASURE(1.E-8),#593,
'DISTANCE_ACCURACY_VALUE','Maximum Tolerance applied to model');
#591=(
NAMED_UNIT(*)
SI_UNIT($,.STERADIAN.)
SOLID_ANGLE_UNIT()
);
#592=(
NAMED_UNIT(*)
PLANE_ANGLE_UNIT()
SI_UNIT($,.RADIAN.)
);
#593=(
LENGTH_UNIT()
NAMED_UNIT(*)
SI_UNIT($,.METRE.)
);
#594=PRODUCT_DEFINITION_SHAPE('','',#595);
#595=PRODUCT_DEFINITION('','',#597,#596);
#596=PRODUCT_DEFINITION_CONTEXT('',#603,'design');
#597=PRODUCT_DEFINITION_FORMATION_WITH_SPECIFIED_SOURCE('','',#599,
 .NOT_KNOWN.);
#598=PRODUCT_RELATED_PRODUCT_CATEGORY('','',(#599));
#599=PRODUCT('L_podalsek','L_podalsek','L_podalsek',(#601));
#600=PRODUCT_CATEGORY('','');
#601=PRODUCT_CONTEXT('',#603,'mechanical');
#602=APPLICATION_PROTOCOL_DEFINITION('international standard',
'ap242_managed_model_based_3d_engineering',2020,#603);
#603=APPLICATION_CONTEXT('managed model based 3d engineering');
ENDSEC;
END-ISO-10303-21;
