ISO-10303-21;
HEADER;
/* Generated by software containing ST-Developer
 * from STEP Tools, Inc. (www.steptools.com) 
 */
/* OPTION: using custom renumber hook */

FILE_DESCRIPTION(
/* description */ ('STEP AP242 Edition 2',
'CAx-IF Rec.Pracs.---Representation and Presentation of Product Manufa
cturing Information (PMI)---4.0---2014-10-13',
'CAx-IF Rec.Pracs.---3D Tessellated Geometry---0.4---2014-09-14','2;1',
'CAx-IF Rec.Pracs.---User Defined Attributes---1.5---2016-08-15'),
/* implementation_level */ '2;1');

FILE_NAME(
/* name */ 'QuickLink_210 - Pokrov V2',
/* time_stamp */ '2026-09-01T09:10:50Z',
/* author */ (''),
/* organization */ (''),
/* preprocessor_version */ 'ST-DEVELOPER v20',
/* originating_system */ 'ONSHAPE BY PTC INC, 1.220',
/* authorisation */ '  ');

FILE_SCHEMA (('AP242_MANAGED_MODEL_BASED_3D_ENGINEERING_MIM_LF { 1 0 10303 442 3 1 4 }'));
ENDSEC;

DATA;
#10=SHAPE_REPRESENTATION_RELATIONSHIP('','',#734,#11);
#11=ADVANCED_BREP_SHAPE_REPRESENTATION('',(#732),#1257);
#12=TOROIDAL_SURFACE('',#809,0.00651,0.002);
#13=TOROIDAL_SURFACE('',#813,0.00651,0.002);
#14=TOROIDAL_SURFACE('',#817,0.00649996673826275,0.002);
#15=ELLIPSE('',#806,0.00282842712474619,0.002);
#16=ELLIPSE('',#820,0.00282842712474619,0.002);
#17=ELLIPSE('',#822,0.00282842712474619,0.002);
#18=B_SPLINE_CURVE_WITH_KNOTS('',3,(#1225,#1226,#1227,#1228,#1229,#1230),
 .UNSPECIFIED.,.F.,.F.,(4,1,1,4),(0.,0.000907668541078226,0.00181533708215645,
0.00363067416431291),.UNSPECIFIED.);
#19=B_SPLINE_CURVE_WITH_KNOTS('',3,(#1231,#1232,#1233,#1234,#1235,#1236),
 .UNSPECIFIED.,.F.,.F.,(4,1,1,4),(0.,0.00179643119235925,0.00269464678853887,
0.00359286238471849),.UNSPECIFIED.);
#20=LINE('',#1078,#64);
#21=LINE('',#1081,#65);
#22=LINE('',#1083,#66);
#23=LINE('',#1085,#67);
#24=LINE('',#1087,#68);
#25=LINE('',#1093,#69);
#26=LINE('',#1096,#70);
#27=LINE('',#1097,#71);
#28=LINE('',#1099,#72);
#29=LINE('',#1105,#73);
#30=LINE('',#1108,#74);
#31=LINE('',#1109,#75);
#32=LINE('',#1111,#76);
#33=LINE('',#1117,#77);
#34=LINE('',#1120,#78);
#35=LINE('',#1121,#79);
#36=LINE('',#1123,#80);
#37=LINE('',#1126,#81);
#38=LINE('',#1127,#82);
#39=LINE('',#1129,#83);
#40=LINE('',#1131,#84);
#41=LINE('',#1133,#85);
#42=LINE('',#1135,#86);
#43=LINE('',#1137,#87);
#44=LINE('',#1138,#88);
#45=LINE('',#1140,#89);
#46=LINE('',#1143,#90);
#47=LINE('',#1147,#91);
#48=LINE('',#1149,#92);
#49=LINE('',#1153,#93);
#50=LINE('',#1157,#94);
#51=LINE('',#1161,#95);
#52=LINE('',#1174,#96);
#53=LINE('',#1177,#97);
#54=LINE('',#1179,#98);
#55=LINE('',#1181,#99);
#56=LINE('',#1185,#100);
#57=LINE('',#1188,#101);
#58=LINE('',#1190,#102);
#59=LINE('',#1192,#103);
#60=LINE('',#1194,#104);
#61=LINE('',#1195,#105);
#62=LINE('',#1197,#106);
#63=LINE('',#1199,#107);
#64=VECTOR('',#864,1.);
#65=VECTOR('',#865,1.);
#66=VECTOR('',#866,1.);
#67=VECTOR('',#867,1.);
#68=VECTOR('',#870,1.);
#69=VECTOR('',#877,1.);
#70=VECTOR('',#878,1.);
#71=VECTOR('',#879,1.);
#72=VECTOR('',#882,1.);
#73=VECTOR('',#889,1.);
#74=VECTOR('',#890,1.);
#75=VECTOR('',#891,1.);
#76=VECTOR('',#894,1.);
#77=VECTOR('',#901,1.);
#78=VECTOR('',#902,1.);
#79=VECTOR('',#903,1.);
#80=VECTOR('',#906,1.);
#81=VECTOR('',#907,1.);
#82=VECTOR('',#908,1.);
#83=VECTOR('',#911,1.);
#84=VECTOR('',#912,1.);
#85=VECTOR('',#913,1.);
#86=VECTOR('',#914,1.);
#87=VECTOR('',#915,1.);
#88=VECTOR('',#916,1.);
#89=VECTOR('',#919,1.);
#90=VECTOR('',#920,1.);
#91=VECTOR('',#923,1.);
#92=VECTOR('',#924,1.);
#93=VECTOR('',#927,1.);
#94=VECTOR('',#930,1.);
#95=VECTOR('',#933,1.);
#96=VECTOR('',#946,1.);
#97=VECTOR('',#947,1.);
#98=VECTOR('',#948,1.);
#99=VECTOR('',#949,1.);
#100=VECTOR('',#954,1.);
#101=VECTOR('',#955,1.);
#102=VECTOR('',#956,1.);
#103=VECTOR('',#957,1.);
#104=VECTOR('',#960,1.);
#105=VECTOR('',#961,1.);
#106=VECTOR('',#964,1.);
#107=VECTOR('',#967,1.);
#108=PLANE('',#754);
#109=PLANE('',#758);
#110=PLANE('',#762);
#111=PLANE('',#766);
#112=PLANE('',#767);
#113=PLANE('',#768);
#114=PLANE('',#769);
#115=PLANE('',#780);
#116=PLANE('',#782);
#117=PLANE('',#783);
#118=PLANE('',#784);
#119=PLANE('',#785);
#120=PLANE('',#789);
#121=PLANE('',#792);
#122=PLANE('',#795);
#123=PLANE('',#798);
#124=PLANE('',#801);
#125=PLANE('',#802);
#126=ORIENTED_EDGE('',*,*,#306,.F.);
#127=ORIENTED_EDGE('',*,*,#307,.T.);
#128=ORIENTED_EDGE('',*,*,#308,.F.);
#129=ORIENTED_EDGE('',*,*,#309,.T.);
#130=ORIENTED_EDGE('',*,*,#310,.F.);
#131=ORIENTED_EDGE('',*,*,#311,.T.);
#132=ORIENTED_EDGE('',*,*,#312,.F.);
#133=ORIENTED_EDGE('',*,*,#313,.T.);
#134=ORIENTED_EDGE('',*,*,#314,.F.);
#135=ORIENTED_EDGE('',*,*,#315,.T.);
#136=ORIENTED_EDGE('',*,*,#316,.F.);
#137=ORIENTED_EDGE('',*,*,#317,.T.);
#138=ORIENTED_EDGE('',*,*,#318,.F.);
#139=ORIENTED_EDGE('',*,*,#319,.T.);
#140=ORIENTED_EDGE('',*,*,#320,.T.);
#141=ORIENTED_EDGE('',*,*,#321,.F.);
#142=ORIENTED_EDGE('',*,*,#322,.F.);
#143=ORIENTED_EDGE('',*,*,#323,.T.);
#144=ORIENTED_EDGE('',*,*,#318,.T.);
#145=ORIENTED_EDGE('',*,*,#324,.T.);
#146=ORIENTED_EDGE('',*,*,#325,.F.);
#147=ORIENTED_EDGE('',*,*,#326,.T.);
#148=ORIENTED_EDGE('',*,*,#322,.T.);
#149=ORIENTED_EDGE('',*,*,#327,.T.);
#150=ORIENTED_EDGE('',*,*,#328,.F.);
#151=ORIENTED_EDGE('',*,*,#329,.T.);
#152=ORIENTED_EDGE('',*,*,#325,.T.);
#153=ORIENTED_EDGE('',*,*,#330,.T.);
#154=ORIENTED_EDGE('',*,*,#331,.F.);
#155=ORIENTED_EDGE('',*,*,#332,.T.);
#156=ORIENTED_EDGE('',*,*,#328,.T.);
#157=ORIENTED_EDGE('',*,*,#333,.F.);
#158=ORIENTED_EDGE('',*,*,#334,.F.);
#159=ORIENTED_EDGE('',*,*,#335,.T.);
#160=ORIENTED_EDGE('',*,*,#331,.T.);
#161=ORIENTED_EDGE('',*,*,#336,.T.);
#162=ORIENTED_EDGE('',*,*,#337,.F.);
#163=ORIENTED_EDGE('',*,*,#338,.T.);
#164=ORIENTED_EDGE('',*,*,#334,.T.);
#165=ORIENTED_EDGE('',*,*,#339,.T.);
#166=ORIENTED_EDGE('',*,*,#340,.F.);
#167=ORIENTED_EDGE('',*,*,#341,.T.);
#168=ORIENTED_EDGE('',*,*,#337,.T.);
#169=ORIENTED_EDGE('',*,*,#342,.F.);
#170=ORIENTED_EDGE('',*,*,#320,.F.);
#171=ORIENTED_EDGE('',*,*,#343,.T.);
#172=ORIENTED_EDGE('',*,*,#344,.T.);
#173=ORIENTED_EDGE('',*,*,#345,.F.);
#174=ORIENTED_EDGE('',*,*,#346,.T.);
#175=ORIENTED_EDGE('',*,*,#347,.T.);
#176=ORIENTED_EDGE('',*,*,#340,.T.);
#177=ORIENTED_EDGE('',*,*,#348,.T.);
#178=ORIENTED_EDGE('',*,*,#349,.T.);
#179=ORIENTED_EDGE('',*,*,#350,.T.);
#180=ORIENTED_EDGE('',*,*,#351,.F.);
#181=ORIENTED_EDGE('',*,*,#352,.T.);
#182=ORIENTED_EDGE('',*,*,#353,.T.);
#183=ORIENTED_EDGE('',*,*,#354,.T.);
#184=ORIENTED_EDGE('',*,*,#355,.T.);
#185=ORIENTED_EDGE('',*,*,#356,.T.);
#186=ORIENTED_EDGE('',*,*,#357,.T.);
#187=ORIENTED_EDGE('',*,*,#358,.T.);
#188=ORIENTED_EDGE('',*,*,#359,.T.);
#189=ORIENTED_EDGE('',*,*,#360,.F.);
#190=ORIENTED_EDGE('',*,*,#361,.F.);
#191=ORIENTED_EDGE('',*,*,#362,.F.);
#192=ORIENTED_EDGE('',*,*,#363,.F.);
#193=ORIENTED_EDGE('',*,*,#364,.F.);
#194=ORIENTED_EDGE('',*,*,#365,.F.);
#195=ORIENTED_EDGE('',*,*,#366,.F.);
#196=ORIENTED_EDGE('',*,*,#367,.F.);
#197=ORIENTED_EDGE('',*,*,#368,.F.);
#198=ORIENTED_EDGE('',*,*,#369,.F.);
#199=ORIENTED_EDGE('',*,*,#370,.T.);
#200=ORIENTED_EDGE('',*,*,#371,.T.);
#201=ORIENTED_EDGE('',*,*,#372,.T.);
#202=ORIENTED_EDGE('',*,*,#373,.T.);
#203=ORIENTED_EDGE('',*,*,#374,.T.);
#204=ORIENTED_EDGE('',*,*,#321,.T.);
#205=ORIENTED_EDGE('',*,*,#348,.F.);
#206=ORIENTED_EDGE('',*,*,#342,.T.);
#207=ORIENTED_EDGE('',*,*,#339,.F.);
#208=ORIENTED_EDGE('',*,*,#336,.F.);
#209=ORIENTED_EDGE('',*,*,#333,.T.);
#210=ORIENTED_EDGE('',*,*,#330,.F.);
#211=ORIENTED_EDGE('',*,*,#327,.F.);
#212=ORIENTED_EDGE('',*,*,#324,.F.);
#213=ORIENTED_EDGE('',*,*,#314,.T.);
#214=ORIENTED_EDGE('',*,*,#312,.T.);
#215=ORIENTED_EDGE('',*,*,#310,.T.);
#216=ORIENTED_EDGE('',*,*,#308,.T.);
#217=ORIENTED_EDGE('',*,*,#306,.T.);
#218=ORIENTED_EDGE('',*,*,#316,.T.);
#219=ORIENTED_EDGE('',*,*,#375,.T.);
#220=ORIENTED_EDGE('',*,*,#366,.T.);
#221=ORIENTED_EDGE('',*,*,#376,.F.);
#222=ORIENTED_EDGE('',*,*,#372,.F.);
#223=ORIENTED_EDGE('',*,*,#376,.T.);
#224=ORIENTED_EDGE('',*,*,#369,.T.);
#225=ORIENTED_EDGE('',*,*,#377,.F.);
#226=ORIENTED_EDGE('',*,*,#373,.F.);
#227=ORIENTED_EDGE('',*,*,#377,.T.);
#228=ORIENTED_EDGE('',*,*,#368,.T.);
#229=ORIENTED_EDGE('',*,*,#378,.F.);
#230=ORIENTED_EDGE('',*,*,#374,.F.);
#231=ORIENTED_EDGE('',*,*,#378,.T.);
#232=ORIENTED_EDGE('',*,*,#367,.T.);
#233=ORIENTED_EDGE('',*,*,#375,.F.);
#234=ORIENTED_EDGE('',*,*,#371,.F.);
#235=ORIENTED_EDGE('',*,*,#365,.T.);
#236=ORIENTED_EDGE('',*,*,#370,.F.);
#237=ORIENTED_EDGE('',*,*,#379,.F.);
#238=ORIENTED_EDGE('',*,*,#364,.T.);
#239=ORIENTED_EDGE('',*,*,#315,.F.);
#240=ORIENTED_EDGE('',*,*,#379,.T.);
#241=ORIENTED_EDGE('',*,*,#380,.F.);
#242=ORIENTED_EDGE('',*,*,#363,.T.);
#243=ORIENTED_EDGE('',*,*,#317,.F.);
#244=ORIENTED_EDGE('',*,*,#380,.T.);
#245=ORIENTED_EDGE('',*,*,#381,.F.);
#246=ORIENTED_EDGE('',*,*,#362,.T.);
#247=ORIENTED_EDGE('',*,*,#313,.F.);
#248=ORIENTED_EDGE('',*,*,#381,.T.);
#249=ORIENTED_EDGE('',*,*,#382,.F.);
#250=ORIENTED_EDGE('',*,*,#361,.T.);
#251=ORIENTED_EDGE('',*,*,#311,.F.);
#252=ORIENTED_EDGE('',*,*,#382,.T.);
#253=ORIENTED_EDGE('',*,*,#383,.F.);
#254=ORIENTED_EDGE('',*,*,#360,.T.);
#255=ORIENTED_EDGE('',*,*,#307,.F.);
#256=ORIENTED_EDGE('',*,*,#383,.T.);
#257=ORIENTED_EDGE('',*,*,#309,.F.);
#258=ORIENTED_EDGE('',*,*,#345,.T.);
#259=ORIENTED_EDGE('',*,*,#384,.T.);
#260=ORIENTED_EDGE('',*,*,#344,.F.);
#261=ORIENTED_EDGE('',*,*,#385,.T.);
#262=ORIENTED_EDGE('',*,*,#351,.T.);
#263=ORIENTED_EDGE('',*,*,#386,.T.);
#264=ORIENTED_EDGE('',*,*,#346,.F.);
#265=ORIENTED_EDGE('',*,*,#384,.F.);
#266=ORIENTED_EDGE('',*,*,#385,.F.);
#267=ORIENTED_EDGE('',*,*,#343,.F.);
#268=ORIENTED_EDGE('',*,*,#387,.F.);
#269=ORIENTED_EDGE('',*,*,#352,.F.);
#270=ORIENTED_EDGE('',*,*,#387,.T.);
#271=ORIENTED_EDGE('',*,*,#319,.F.);
#272=ORIENTED_EDGE('',*,*,#388,.F.);
#273=ORIENTED_EDGE('',*,*,#353,.F.);
#274=ORIENTED_EDGE('',*,*,#388,.T.);
#275=ORIENTED_EDGE('',*,*,#323,.F.);
#276=ORIENTED_EDGE('',*,*,#389,.F.);
#277=ORIENTED_EDGE('',*,*,#354,.F.);
#278=ORIENTED_EDGE('',*,*,#389,.T.);
#279=ORIENTED_EDGE('',*,*,#326,.F.);
#280=ORIENTED_EDGE('',*,*,#390,.F.);
#281=ORIENTED_EDGE('',*,*,#355,.F.);
#282=ORIENTED_EDGE('',*,*,#390,.T.);
#283=ORIENTED_EDGE('',*,*,#329,.F.);
#284=ORIENTED_EDGE('',*,*,#391,.F.);
#285=ORIENTED_EDGE('',*,*,#356,.F.);
#286=ORIENTED_EDGE('',*,*,#391,.T.);
#287=ORIENTED_EDGE('',*,*,#332,.F.);
#288=ORIENTED_EDGE('',*,*,#392,.F.);
#289=ORIENTED_EDGE('',*,*,#357,.F.);
#290=ORIENTED_EDGE('',*,*,#392,.T.);
#291=ORIENTED_EDGE('',*,*,#335,.F.);
#292=ORIENTED_EDGE('',*,*,#393,.F.);
#293=ORIENTED_EDGE('',*,*,#358,.F.);
#294=ORIENTED_EDGE('',*,*,#386,.F.);
#295=ORIENTED_EDGE('',*,*,#350,.F.);
#296=ORIENTED_EDGE('',*,*,#394,.F.);
#297=ORIENTED_EDGE('',*,*,#347,.F.);
#298=ORIENTED_EDGE('',*,*,#393,.T.);
#299=ORIENTED_EDGE('',*,*,#338,.F.);
#300=ORIENTED_EDGE('',*,*,#395,.F.);
#301=ORIENTED_EDGE('',*,*,#359,.F.);
#302=ORIENTED_EDGE('',*,*,#394,.T.);
#303=ORIENTED_EDGE('',*,*,#349,.F.);
#304=ORIENTED_EDGE('',*,*,#395,.T.);
#305=ORIENTED_EDGE('',*,*,#341,.F.);
#306=EDGE_CURVE('',#396,#396,#461,.T.);
#307=EDGE_CURVE('',#397,#397,#462,.T.);
#308=EDGE_CURVE('',#398,#398,#463,.T.);
#309=EDGE_CURVE('',#399,#399,#464,.T.);
#310=EDGE_CURVE('',#400,#400,#465,.T.);
#311=EDGE_CURVE('',#401,#401,#466,.T.);
#312=EDGE_CURVE('',#402,#402,#467,.T.);
#313=EDGE_CURVE('',#403,#403,#468,.T.);
#314=EDGE_CURVE('',#404,#404,#469,.T.);
#315=EDGE_CURVE('',#405,#405,#470,.T.);
#316=EDGE_CURVE('',#406,#406,#471,.T.);
#317=EDGE_CURVE('',#407,#407,#472,.T.);
#318=EDGE_CURVE('',#408,#409,#20,.T.);
#319=EDGE_CURVE('',#408,#410,#21,.T.);
#320=EDGE_CURVE('',#410,#411,#22,.T.);
#321=EDGE_CURVE('',#409,#411,#23,.T.);
#322=EDGE_CURVE('',#412,#413,#24,.T.);
#323=EDGE_CURVE('',#412,#408,#473,.F.);
#324=EDGE_CURVE('',#409,#413,#474,.T.);
#325=EDGE_CURVE('',#414,#415,#25,.T.);
#326=EDGE_CURVE('',#414,#412,#26,.F.);
#327=EDGE_CURVE('',#413,#415,#27,.T.);
#328=EDGE_CURVE('',#416,#417,#28,.T.);
#329=EDGE_CURVE('',#416,#414,#475,.F.);
#330=EDGE_CURVE('',#415,#417,#476,.T.);
#331=EDGE_CURVE('',#418,#419,#29,.T.);
#332=EDGE_CURVE('',#418,#416,#30,.T.);
#333=EDGE_CURVE('',#419,#417,#31,.T.);
#334=EDGE_CURVE('',#420,#421,#32,.T.);
#335=EDGE_CURVE('',#420,#418,#477,.F.);
#336=EDGE_CURVE('',#419,#421,#478,.T.);
#337=EDGE_CURVE('',#422,#423,#33,.T.);
#338=EDGE_CURVE('',#422,#420,#34,.F.);
#339=EDGE_CURVE('',#421,#423,#35,.T.);
#340=EDGE_CURVE('',#424,#425,#36,.T.);
#341=EDGE_CURVE('',#424,#422,#37,.T.);
#342=EDGE_CURVE('',#425,#423,#38,.T.);
#343=EDGE_CURVE('',#410,#426,#39,.F.);
#344=EDGE_CURVE('',#426,#427,#40,.F.);
#345=EDGE_CURVE('',#428,#427,#41,.T.);
#346=EDGE_CURVE('',#428,#429,#42,.T.);
#347=EDGE_CURVE('',#429,#424,#43,.F.);
#348=EDGE_CURVE('',#425,#411,#44,.T.);
#349=EDGE_CURVE('',#430,#431,#45,.F.);
#350=EDGE_CURVE('',#431,#432,#46,.T.);
#351=EDGE_CURVE('',#433,#432,#479,.T.);
#352=EDGE_CURVE('',#433,#434,#47,.T.);
#353=EDGE_CURVE('',#434,#435,#48,.F.);
#354=EDGE_CURVE('',#435,#436,#480,.T.);
#355=EDGE_CURVE('',#436,#437,#49,.T.);
#356=EDGE_CURVE('',#437,#438,#481,.T.);
#357=EDGE_CURVE('',#438,#439,#50,.F.);
#358=EDGE_CURVE('',#439,#440,#482,.T.);
#359=EDGE_CURVE('',#440,#430,#51,.T.);
#360=EDGE_CURVE('',#441,#441,#483,.T.);
#361=EDGE_CURVE('',#442,#442,#484,.T.);
#362=EDGE_CURVE('',#443,#443,#485,.T.);
#363=EDGE_CURVE('',#444,#444,#486,.T.);
#364=EDGE_CURVE('',#445,#445,#487,.T.);
#365=EDGE_CURVE('',#446,#446,#488,.T.);
#366=EDGE_CURVE('',#447,#448,#52,.T.);
#367=EDGE_CURVE('',#449,#447,#53,.T.);
#368=EDGE_CURVE('',#450,#449,#54,.T.);
#369=EDGE_CURVE('',#448,#450,#55,.T.);
#370=EDGE_CURVE('',#451,#451,#489,.T.);
#371=EDGE_CURVE('',#452,#453,#56,.T.);
#372=EDGE_CURVE('',#453,#454,#57,.T.);
#373=EDGE_CURVE('',#454,#455,#58,.T.);
#374=EDGE_CURVE('',#455,#452,#59,.T.);
#375=EDGE_CURVE('',#453,#447,#60,.T.);
#376=EDGE_CURVE('',#454,#448,#61,.T.);
#377=EDGE_CURVE('',#455,#450,#62,.T.);
#378=EDGE_CURVE('',#452,#449,#63,.T.);
#379=EDGE_CURVE('',#456,#456,#490,.T.);
#380=EDGE_CURVE('',#457,#457,#491,.T.);
#381=EDGE_CURVE('',#458,#458,#492,.T.);
#382=EDGE_CURVE('',#459,#459,#493,.T.);
#383=EDGE_CURVE('',#460,#460,#494,.T.);
#384=EDGE_CURVE('',#427,#428,#495,.T.);
#385=EDGE_CURVE('',#426,#433,#18,.T.);
#386=EDGE_CURVE('',#432,#429,#19,.T.);
#387=EDGE_CURVE('',#434,#410,#15,.F.);
#388=EDGE_CURVE('',#435,#408,#496,.T.);
#389=EDGE_CURVE('',#436,#412,#497,.T.);
#390=EDGE_CURVE('',#437,#414,#498,.T.);
#391=EDGE_CURVE('',#438,#416,#499,.T.);
#392=EDGE_CURVE('',#439,#418,#500,.T.);
#393=EDGE_CURVE('',#440,#420,#501,.T.);
#394=EDGE_CURVE('',#424,#431,#16,.T.);
#395=EDGE_CURVE('',#430,#422,#17,.F.);
#396=VERTEX_POINT('',#1049);
#397=VERTEX_POINT('',#1051);
#398=VERTEX_POINT('',#1054);
#399=VERTEX_POINT('',#1056);
#400=VERTEX_POINT('',#1059);
#401=VERTEX_POINT('',#1061);
#402=VERTEX_POINT('',#1064);
#403=VERTEX_POINT('',#1066);
#404=VERTEX_POINT('',#1069);
#405=VERTEX_POINT('',#1071);
#406=VERTEX_POINT('',#1074);
#407=VERTEX_POINT('',#1076);
#408=VERTEX_POINT('',#1079);
#409=VERTEX_POINT('',#1080);
#410=VERTEX_POINT('',#1082);
#411=VERTEX_POINT('',#1084);
#412=VERTEX_POINT('',#1088);
#413=VERTEX_POINT('',#1089);
#414=VERTEX_POINT('',#1094);
#415=VERTEX_POINT('',#1095);
#416=VERTEX_POINT('',#1100);
#417=VERTEX_POINT('',#1101);
#418=VERTEX_POINT('',#1106);
#419=VERTEX_POINT('',#1107);
#420=VERTEX_POINT('',#1112);
#421=VERTEX_POINT('',#1113);
#422=VERTEX_POINT('',#1118);
#423=VERTEX_POINT('',#1119);
#424=VERTEX_POINT('',#1124);
#425=VERTEX_POINT('',#1125);
#426=VERTEX_POINT('',#1130);
#427=VERTEX_POINT('',#1132);
#428=VERTEX_POINT('',#1134);
#429=VERTEX_POINT('',#1136);
#430=VERTEX_POINT('',#1141);
#431=VERTEX_POINT('',#1142);
#432=VERTEX_POINT('',#1144);
#433=VERTEX_POINT('',#1146);
#434=VERTEX_POINT('',#1148);
#435=VERTEX_POINT('',#1150);
#436=VERTEX_POINT('',#1152);
#437=VERTEX_POINT('',#1154);
#438=VERTEX_POINT('',#1156);
#439=VERTEX_POINT('',#1158);
#440=VERTEX_POINT('',#1160);
#441=VERTEX_POINT('',#1163);
#442=VERTEX_POINT('',#1165);
#443=VERTEX_POINT('',#1167);
#444=VERTEX_POINT('',#1169);
#445=VERTEX_POINT('',#1171);
#446=VERTEX_POINT('',#1173);
#447=VERTEX_POINT('',#1175);
#448=VERTEX_POINT('',#1176);
#449=VERTEX_POINT('',#1178);
#450=VERTEX_POINT('',#1180);
#451=VERTEX_POINT('',#1184);
#452=VERTEX_POINT('',#1186);
#453=VERTEX_POINT('',#1187);
#454=VERTEX_POINT('',#1189);
#455=VERTEX_POINT('',#1191);
#456=VERTEX_POINT('',#1204);
#457=VERTEX_POINT('',#1208);
#458=VERTEX_POINT('',#1212);
#459=VERTEX_POINT('',#1216);
#460=VERTEX_POINT('',#1220);
#461=CIRCLE('',#737,0.00315);
#462=CIRCLE('',#738,0.00315);
#463=CIRCLE('',#740,0.00315);
#464=CIRCLE('',#741,0.00315);
#465=CIRCLE('',#743,0.00315);
#466=CIRCLE('',#744,0.00315);
#467=CIRCLE('',#746,0.00315);
#468=CIRCLE('',#747,0.00315);
#469=CIRCLE('',#749,0.00315);
#470=CIRCLE('',#750,0.00315);
#471=CIRCLE('',#752,0.00315);
#472=CIRCLE('',#753,0.00315);
#473=CIRCLE('',#756,0.00851);
#474=CIRCLE('',#757,0.00851);
#475=CIRCLE('',#760,0.00851);
#476=CIRCLE('',#761,0.00851);
#477=CIRCLE('',#764,0.00849996673826275);
#478=CIRCLE('',#765,0.00849996673826275);
#479=CIRCLE('',#770,0.0055);
#480=CIRCLE('',#771,0.00651);
#481=CIRCLE('',#772,0.00651);
#482=CIRCLE('',#773,0.00649996673826275);
#483=CIRCLE('',#774,0.0055);
#484=CIRCLE('',#775,0.0055);
#485=CIRCLE('',#776,0.0055);
#486=CIRCLE('',#777,0.0055);
#487=CIRCLE('',#778,0.0055);
#488=CIRCLE('',#779,0.0055);
#489=CIRCLE('',#781,0.0055);
#490=CIRCLE('',#788,0.0055);
#491=CIRCLE('',#791,0.0055);
#492=CIRCLE('',#794,0.0055);
#493=CIRCLE('',#797,0.0055);
#494=CIRCLE('',#800,0.0055);
#495=CIRCLE('',#803,0.0055);
#496=CIRCLE('',#808,0.002);
#497=CIRCLE('',#810,0.002);
#498=CIRCLE('',#812,0.002);
#499=CIRCLE('',#814,0.002);
#500=CIRCLE('',#816,0.002);
#501=CIRCLE('',#818,0.002);
#502=EDGE_LOOP('',(#126));
#503=EDGE_LOOP('',(#127));
#504=EDGE_LOOP('',(#128));
#505=EDGE_LOOP('',(#129));
#506=EDGE_LOOP('',(#130));
#507=EDGE_LOOP('',(#131));
#508=EDGE_LOOP('',(#132));
#509=EDGE_LOOP('',(#133));
#510=EDGE_LOOP('',(#134));
#511=EDGE_LOOP('',(#135));
#512=EDGE_LOOP('',(#136));
#513=EDGE_LOOP('',(#137));
#514=EDGE_LOOP('',(#138,#139,#140,#141));
#515=EDGE_LOOP('',(#142,#143,#144,#145));
#516=EDGE_LOOP('',(#146,#147,#148,#149));
#517=EDGE_LOOP('',(#150,#151,#152,#153));
#518=EDGE_LOOP('',(#154,#155,#156,#157));
#519=EDGE_LOOP('',(#158,#159,#160,#161));
#520=EDGE_LOOP('',(#162,#163,#164,#165));
#521=EDGE_LOOP('',(#166,#167,#168,#169));
#522=EDGE_LOOP('',(#170,#171,#172,#173,#174,#175,#176,#177));
#523=EDGE_LOOP('',(#178,#179,#180,#181,#182,#183,#184,#185,#186,#187,#188));
#524=EDGE_LOOP('',(#189));
#525=EDGE_LOOP('',(#190));
#526=EDGE_LOOP('',(#191));
#527=EDGE_LOOP('',(#192));
#528=EDGE_LOOP('',(#193));
#529=EDGE_LOOP('',(#194));
#530=EDGE_LOOP('',(#195,#196,#197,#198));
#531=EDGE_LOOP('',(#199));
#532=EDGE_LOOP('',(#200,#201,#202,#203));
#533=EDGE_LOOP('',(#204,#205,#206,#207,#208,#209,#210,#211,#212));
#534=EDGE_LOOP('',(#213));
#535=EDGE_LOOP('',(#214));
#536=EDGE_LOOP('',(#215));
#537=EDGE_LOOP('',(#216));
#538=EDGE_LOOP('',(#217));
#539=EDGE_LOOP('',(#218));
#540=EDGE_LOOP('',(#219,#220,#221,#222));
#541=EDGE_LOOP('',(#223,#224,#225,#226));
#542=EDGE_LOOP('',(#227,#228,#229,#230));
#543=EDGE_LOOP('',(#231,#232,#233,#234));
#544=EDGE_LOOP('',(#235));
#545=EDGE_LOOP('',(#236));
#546=EDGE_LOOP('',(#237));
#547=EDGE_LOOP('',(#238));
#548=EDGE_LOOP('',(#239));
#549=EDGE_LOOP('',(#240));
#550=EDGE_LOOP('',(#241));
#551=EDGE_LOOP('',(#242));
#552=EDGE_LOOP('',(#243));
#553=EDGE_LOOP('',(#244));
#554=EDGE_LOOP('',(#245));
#555=EDGE_LOOP('',(#246));
#556=EDGE_LOOP('',(#247));
#557=EDGE_LOOP('',(#248));
#558=EDGE_LOOP('',(#249));
#559=EDGE_LOOP('',(#250));
#560=EDGE_LOOP('',(#251));
#561=EDGE_LOOP('',(#252));
#562=EDGE_LOOP('',(#253));
#563=EDGE_LOOP('',(#254));
#564=EDGE_LOOP('',(#255));
#565=EDGE_LOOP('',(#256));
#566=EDGE_LOOP('',(#257));
#567=EDGE_LOOP('',(#258,#259));
#568=EDGE_LOOP('',(#260,#261,#262,#263,#264,#265));
#569=EDGE_LOOP('',(#266,#267,#268,#269));
#570=EDGE_LOOP('',(#270,#271,#272,#273));
#571=EDGE_LOOP('',(#274,#275,#276,#277));
#572=EDGE_LOOP('',(#278,#279,#280,#281));
#573=EDGE_LOOP('',(#282,#283,#284,#285));
#574=EDGE_LOOP('',(#286,#287,#288,#289));
#575=EDGE_LOOP('',(#290,#291,#292,#293));
#576=EDGE_LOOP('',(#294,#295,#296,#297));
#577=EDGE_LOOP('',(#298,#299,#300,#301));
#578=EDGE_LOOP('',(#302,#303,#304,#305));
#579=FACE_BOUND('',#502,.T.);
#580=FACE_BOUND('',#503,.T.);
#581=FACE_BOUND('',#504,.T.);
#582=FACE_BOUND('',#505,.T.);
#583=FACE_BOUND('',#506,.T.);
#584=FACE_BOUND('',#507,.T.);
#585=FACE_BOUND('',#508,.T.);
#586=FACE_BOUND('',#509,.T.);
#587=FACE_BOUND('',#510,.T.);
#588=FACE_BOUND('',#511,.T.);
#589=FACE_BOUND('',#512,.T.);
#590=FACE_BOUND('',#513,.T.);
#591=FACE_BOUND('',#514,.T.);
#592=FACE_BOUND('',#515,.T.);
#593=FACE_BOUND('',#516,.T.);
#594=FACE_BOUND('',#517,.T.);
#595=FACE_BOUND('',#518,.T.);
#596=FACE_BOUND('',#519,.T.);
#597=FACE_BOUND('',#520,.T.);
#598=FACE_BOUND('',#521,.T.);
#599=FACE_BOUND('',#522,.T.);
#600=FACE_BOUND('',#523,.T.);
#601=FACE_BOUND('',#524,.T.);
#602=FACE_BOUND('',#525,.T.);
#603=FACE_BOUND('',#526,.T.);
#604=FACE_BOUND('',#527,.T.);
#605=FACE_BOUND('',#528,.T.);
#606=FACE_BOUND('',#529,.T.);
#607=FACE_BOUND('',#530,.T.);
#608=FACE_BOUND('',#531,.T.);
#609=FACE_BOUND('',#532,.T.);
#610=FACE_BOUND('',#533,.T.);
#611=FACE_BOUND('',#534,.T.);
#612=FACE_BOUND('',#535,.T.);
#613=FACE_BOUND('',#536,.T.);
#614=FACE_BOUND('',#537,.T.);
#615=FACE_BOUND('',#538,.T.);
#616=FACE_BOUND('',#539,.T.);
#617=FACE_BOUND('',#540,.T.);
#618=FACE_BOUND('',#541,.T.);
#619=FACE_BOUND('',#542,.T.);
#620=FACE_BOUND('',#543,.T.);
#621=FACE_BOUND('',#544,.T.);
#622=FACE_BOUND('',#545,.T.);
#623=FACE_BOUND('',#546,.T.);
#624=FACE_BOUND('',#547,.T.);
#625=FACE_BOUND('',#548,.T.);
#626=FACE_BOUND('',#549,.T.);
#627=FACE_BOUND('',#550,.T.);
#628=FACE_BOUND('',#551,.T.);
#629=FACE_BOUND('',#552,.T.);
#630=FACE_BOUND('',#553,.T.);
#631=FACE_BOUND('',#554,.T.);
#632=FACE_BOUND('',#555,.T.);
#633=FACE_BOUND('',#556,.T.);
#634=FACE_BOUND('',#557,.T.);
#635=FACE_BOUND('',#558,.T.);
#636=FACE_BOUND('',#559,.T.);
#637=FACE_BOUND('',#560,.T.);
#638=FACE_BOUND('',#561,.T.);
#639=FACE_BOUND('',#562,.T.);
#640=FACE_BOUND('',#563,.T.);
#641=FACE_BOUND('',#564,.T.);
#642=FACE_BOUND('',#565,.T.);
#643=FACE_BOUND('',#566,.T.);
#644=FACE_BOUND('',#567,.T.);
#645=FACE_BOUND('',#568,.T.);
#646=FACE_BOUND('',#569,.T.);
#647=FACE_BOUND('',#570,.T.);
#648=FACE_BOUND('',#571,.T.);
#649=FACE_BOUND('',#572,.T.);
#650=FACE_BOUND('',#573,.T.);
#651=FACE_BOUND('',#574,.T.);
#652=FACE_BOUND('',#575,.T.);
#653=FACE_BOUND('',#576,.T.);
#654=FACE_BOUND('',#577,.T.);
#655=FACE_BOUND('',#578,.T.);
#656=CYLINDRICAL_SURFACE('',#736,0.00315);
#657=CYLINDRICAL_SURFACE('',#739,0.00315);
#658=CYLINDRICAL_SURFACE('',#742,0.00315);
#659=CYLINDRICAL_SURFACE('',#745,0.00315);
#660=CYLINDRICAL_SURFACE('',#748,0.00315);
#661=CYLINDRICAL_SURFACE('',#751,0.00315);
#662=CYLINDRICAL_SURFACE('',#755,0.00851);
#663=CYLINDRICAL_SURFACE('',#759,0.00851);
#664=CYLINDRICAL_SURFACE('',#763,0.00849996673826275);
#665=CYLINDRICAL_SURFACE('',#786,0.0055);
#666=CYLINDRICAL_SURFACE('',#787,0.0055);
#667=CYLINDRICAL_SURFACE('',#790,0.0055);
#668=CYLINDRICAL_SURFACE('',#793,0.0055);
#669=CYLINDRICAL_SURFACE('',#796,0.0055);
#670=CYLINDRICAL_SURFACE('',#799,0.0055);
#671=CYLINDRICAL_SURFACE('',#804,0.0055);
#672=CYLINDRICAL_SURFACE('',#805,0.002);
#673=CYLINDRICAL_SURFACE('',#807,0.002);
#674=CYLINDRICAL_SURFACE('',#811,0.002);
#675=CYLINDRICAL_SURFACE('',#815,0.002);
#676=CYLINDRICAL_SURFACE('',#819,0.002);
#677=CYLINDRICAL_SURFACE('',#821,0.002);
#678=CYLINDRICAL_SURFACE('',#823,0.002);
#679=ADVANCED_FACE('',(#579,#580),#656,.F.);
#680=ADVANCED_FACE('',(#581,#582),#657,.F.);
#681=ADVANCED_FACE('',(#583,#584),#658,.F.);
#682=ADVANCED_FACE('',(#585,#586),#659,.F.);
#683=ADVANCED_FACE('',(#587,#588),#660,.F.);
#684=ADVANCED_FACE('',(#589,#590),#661,.F.);
#685=ADVANCED_FACE('',(#591),#108,.T.);
#686=ADVANCED_FACE('',(#592),#662,.T.);
#687=ADVANCED_FACE('',(#593),#109,.F.);
#688=ADVANCED_FACE('',(#594),#663,.T.);
#689=ADVANCED_FACE('',(#595),#110,.T.);
#690=ADVANCED_FACE('',(#596),#664,.T.);
#691=ADVANCED_FACE('',(#597),#111,.F.);
#692=ADVANCED_FACE('',(#598),#112,.T.);
#693=ADVANCED_FACE('',(#599),#113,.F.);
#694=ADVANCED_FACE('',(#600,#601,#602,#603,#604,#605,#606,#607),#114,.T.);
#695=ADVANCED_FACE('',(#608,#609,#610,#611,#612,#613,#614,#615,#616),#115,
 .F.);
#696=ADVANCED_FACE('',(#617),#116,.F.);
#697=ADVANCED_FACE('',(#618),#117,.F.);
#698=ADVANCED_FACE('',(#619),#118,.F.);
#699=ADVANCED_FACE('',(#620),#119,.F.);
#700=ADVANCED_FACE('',(#621,#622),#665,.F.);
#701=ADVANCED_FACE('',(#623,#624),#666,.F.);
#702=ADVANCED_FACE('',(#625,#626),#120,.T.);
#703=ADVANCED_FACE('',(#627,#628),#667,.F.);
#704=ADVANCED_FACE('',(#629,#630),#121,.T.);
#705=ADVANCED_FACE('',(#631,#632),#668,.F.);
#706=ADVANCED_FACE('',(#633,#634),#122,.T.);
#707=ADVANCED_FACE('',(#635,#636),#669,.F.);
#708=ADVANCED_FACE('',(#637,#638),#123,.T.);
#709=ADVANCED_FACE('',(#639,#640),#670,.F.);
#710=ADVANCED_FACE('',(#641,#642),#124,.T.);
#711=ADVANCED_FACE('',(#643,#644),#125,.T.);
#712=ADVANCED_FACE('',(#645),#671,.F.);
#713=ADVANCED_FACE('',(#646),#672,.T.);
#714=ADVANCED_FACE('',(#647),#673,.T.);
#715=ADVANCED_FACE('',(#648),#12,.T.);
#716=ADVANCED_FACE('',(#649),#674,.T.);
#717=ADVANCED_FACE('',(#650),#13,.T.);
#718=ADVANCED_FACE('',(#651),#675,.T.);
#719=ADVANCED_FACE('',(#652),#14,.T.);
#720=ADVANCED_FACE('',(#653),#676,.T.);
#721=ADVANCED_FACE('',(#654),#677,.T.);
#722=ADVANCED_FACE('',(#655),#678,.T.);
#723=CLOSED_SHELL('',(#679,#680,#681,#682,#683,#684,#685,#686,#687,#688,
#689,#690,#691,#692,#693,#694,#695,#696,#697,#698,#699,#700,#701,#702,#703,
#704,#705,#706,#707,#708,#709,#710,#711,#712,#713,#714,#715,#716,#717,#718,
#719,#720,#721,#722));
#724=STYLED_ITEM('',(#725),#732);
#725=PRESENTATION_STYLE_ASSIGNMENT((#726));
#726=SURFACE_STYLE_USAGE(.BOTH.,#727);
#727=SURFACE_SIDE_STYLE('',(#728));
#728=SURFACE_STYLE_FILL_AREA(#729);
#729=FILL_AREA_STYLE('',(#730));
#730=FILL_AREA_STYLE_COLOUR('',#731);
#731=COLOUR_RGB('',0.768627450980392,0.886274509803922,0.952941176470588);
#732=MANIFOLD_SOLID_BREP('Pokrov V2',#723);
#733=SHAPE_DEFINITION_REPRESENTATION(#1262,#734);
#734=SHAPE_REPRESENTATION('Pokrov V2',(#735),#1257);
#735=AXIS2_PLACEMENT_3D('',#1046,#824,#825);
#736=AXIS2_PLACEMENT_3D('',#1047,#826,#827);
#737=AXIS2_PLACEMENT_3D('',#1048,#828,#829);
#738=AXIS2_PLACEMENT_3D('',#1050,#830,#831);
#739=AXIS2_PLACEMENT_3D('',#1052,#832,#833);
#740=AXIS2_PLACEMENT_3D('',#1053,#834,#835);
#741=AXIS2_PLACEMENT_3D('',#1055,#836,#837);
#742=AXIS2_PLACEMENT_3D('',#1057,#838,#839);
#743=AXIS2_PLACEMENT_3D('',#1058,#840,#841);
#744=AXIS2_PLACEMENT_3D('',#1060,#842,#843);
#745=AXIS2_PLACEMENT_3D('',#1062,#844,#845);
#746=AXIS2_PLACEMENT_3D('',#1063,#846,#847);
#747=AXIS2_PLACEMENT_3D('',#1065,#848,#849);
#748=AXIS2_PLACEMENT_3D('',#1067,#850,#851);
#749=AXIS2_PLACEMENT_3D('',#1068,#852,#853);
#750=AXIS2_PLACEMENT_3D('',#1070,#854,#855);
#751=AXIS2_PLACEMENT_3D('',#1072,#856,#857);
#752=AXIS2_PLACEMENT_3D('',#1073,#858,#859);
#753=AXIS2_PLACEMENT_3D('',#1075,#860,#861);
#754=AXIS2_PLACEMENT_3D('',#1077,#862,#863);
#755=AXIS2_PLACEMENT_3D('',#1086,#868,#869);
#756=AXIS2_PLACEMENT_3D('',#1090,#871,#872);
#757=AXIS2_PLACEMENT_3D('',#1091,#873,#874);
#758=AXIS2_PLACEMENT_3D('',#1092,#875,#876);
#759=AXIS2_PLACEMENT_3D('',#1098,#880,#881);
#760=AXIS2_PLACEMENT_3D('',#1102,#883,#884);
#761=AXIS2_PLACEMENT_3D('',#1103,#885,#886);
#762=AXIS2_PLACEMENT_3D('',#1104,#887,#888);
#763=AXIS2_PLACEMENT_3D('',#1110,#892,#893);
#764=AXIS2_PLACEMENT_3D('',#1114,#895,#896);
#765=AXIS2_PLACEMENT_3D('',#1115,#897,#898);
#766=AXIS2_PLACEMENT_3D('',#1116,#899,#900);
#767=AXIS2_PLACEMENT_3D('',#1122,#904,#905);
#768=AXIS2_PLACEMENT_3D('',#1128,#909,#910);
#769=AXIS2_PLACEMENT_3D('',#1139,#917,#918);
#770=AXIS2_PLACEMENT_3D('',#1145,#921,#922);
#771=AXIS2_PLACEMENT_3D('',#1151,#925,#926);
#772=AXIS2_PLACEMENT_3D('',#1155,#928,#929);
#773=AXIS2_PLACEMENT_3D('',#1159,#931,#932);
#774=AXIS2_PLACEMENT_3D('',#1162,#934,#935);
#775=AXIS2_PLACEMENT_3D('',#1164,#936,#937);
#776=AXIS2_PLACEMENT_3D('',#1166,#938,#939);
#777=AXIS2_PLACEMENT_3D('',#1168,#940,#941);
#778=AXIS2_PLACEMENT_3D('',#1170,#942,#943);
#779=AXIS2_PLACEMENT_3D('',#1172,#944,#945);
#780=AXIS2_PLACEMENT_3D('',#1182,#950,#951);
#781=AXIS2_PLACEMENT_3D('',#1183,#952,#953);
#782=AXIS2_PLACEMENT_3D('',#1193,#958,#959);
#783=AXIS2_PLACEMENT_3D('',#1196,#962,#963);
#784=AXIS2_PLACEMENT_3D('',#1198,#965,#966);
#785=AXIS2_PLACEMENT_3D('',#1200,#968,#969);
#786=AXIS2_PLACEMENT_3D('',#1201,#970,#971);
#787=AXIS2_PLACEMENT_3D('',#1202,#972,#973);
#788=AXIS2_PLACEMENT_3D('',#1203,#974,#975);
#789=AXIS2_PLACEMENT_3D('',#1205,#976,#977);
#790=AXIS2_PLACEMENT_3D('',#1206,#978,#979);
#791=AXIS2_PLACEMENT_3D('',#1207,#980,#981);
#792=AXIS2_PLACEMENT_3D('',#1209,#982,#983);
#793=AXIS2_PLACEMENT_3D('',#1210,#984,#985);
#794=AXIS2_PLACEMENT_3D('',#1211,#986,#987);
#795=AXIS2_PLACEMENT_3D('',#1213,#988,#989);
#796=AXIS2_PLACEMENT_3D('',#1214,#990,#991);
#797=AXIS2_PLACEMENT_3D('',#1215,#992,#993);
#798=AXIS2_PLACEMENT_3D('',#1217,#994,#995);
#799=AXIS2_PLACEMENT_3D('',#1218,#996,#997);
#800=AXIS2_PLACEMENT_3D('',#1219,#998,#999);
#801=AXIS2_PLACEMENT_3D('',#1221,#1000,#1001);
#802=AXIS2_PLACEMENT_3D('',#1222,#1002,#1003);
#803=AXIS2_PLACEMENT_3D('',#1223,#1004,#1005);
#804=AXIS2_PLACEMENT_3D('',#1224,#1006,#1007);
#805=AXIS2_PLACEMENT_3D('',#1237,#1008,#1009);
#806=AXIS2_PLACEMENT_3D('',#1238,#1010,#1011);
#807=AXIS2_PLACEMENT_3D('',#1239,#1012,#1013);
#808=AXIS2_PLACEMENT_3D('',#1240,#1014,#1015);
#809=AXIS2_PLACEMENT_3D('',#1241,#1016,#1017);
#810=AXIS2_PLACEMENT_3D('',#1242,#1018,#1019);
#811=AXIS2_PLACEMENT_3D('',#1243,#1020,#1021);
#812=AXIS2_PLACEMENT_3D('',#1244,#1022,#1023);
#813=AXIS2_PLACEMENT_3D('',#1245,#1024,#1025);
#814=AXIS2_PLACEMENT_3D('',#1246,#1026,#1027);
#815=AXIS2_PLACEMENT_3D('',#1247,#1028,#1029);
#816=AXIS2_PLACEMENT_3D('',#1248,#1030,#1031);
#817=AXIS2_PLACEMENT_3D('',#1249,#1032,#1033);
#818=AXIS2_PLACEMENT_3D('',#1250,#1034,#1035);
#819=AXIS2_PLACEMENT_3D('',#1251,#1036,#1037);
#820=AXIS2_PLACEMENT_3D('',#1252,#1038,#1039);
#821=AXIS2_PLACEMENT_3D('',#1253,#1040,#1041);
#822=AXIS2_PLACEMENT_3D('',#1254,#1042,#1043);
#823=AXIS2_PLACEMENT_3D('',#1255,#1044,#1045);
#824=DIRECTION('',(0.,0.,1.));
#825=DIRECTION('',(1.,0.,0.));
#826=DIRECTION('',(0.,-1.,0.));
#827=DIRECTION('',(0.,0.,-1.));
#828=DIRECTION('',(0.,1.,0.));
#829=DIRECTION('',(0.,0.,1.));
#830=DIRECTION('',(0.,1.,0.));
#831=DIRECTION('',(0.,0.,1.));
#832=DIRECTION('',(0.,-1.,0.));
#833=DIRECTION('',(0.,0.,-1.));
#834=DIRECTION('',(0.,1.,0.));
#835=DIRECTION('',(0.,0.,1.));
#836=DIRECTION('',(0.,1.,0.));
#837=DIRECTION('',(0.,0.,1.));
#838=DIRECTION('',(0.,-1.,0.));
#839=DIRECTION('',(0.,0.,-1.));
#840=DIRECTION('',(0.,1.,0.));
#841=DIRECTION('',(0.,0.,1.));
#842=DIRECTION('',(0.,1.,0.));
#843=DIRECTION('',(0.,0.,1.));
#844=DIRECTION('',(0.,-1.,0.));
#845=DIRECTION('',(0.,0.,-1.));
#846=DIRECTION('',(0.,1.,0.));
#847=DIRECTION('',(0.,0.,1.));
#848=DIRECTION('',(0.,1.,0.));
#849=DIRECTION('',(0.,0.,1.));
#850=DIRECTION('',(0.,-1.,0.));
#851=DIRECTION('',(0.,0.,-1.));
#852=DIRECTION('',(0.,1.,0.));
#853=DIRECTION('',(0.,0.,1.));
#854=DIRECTION('',(0.,1.,0.));
#855=DIRECTION('',(0.,0.,1.));
#856=DIRECTION('',(0.,-1.,0.));
#857=DIRECTION('',(0.,0.,-1.));
#858=DIRECTION('',(0.,1.,0.));
#859=DIRECTION('',(0.,0.,1.));
#860=DIRECTION('',(0.,1.,0.));
#861=DIRECTION('',(0.,0.,1.));
#862=DIRECTION('',(1.,0.,0.));
#863=DIRECTION('',(0.,0.,-1.));
#864=DIRECTION('',(0.,-1.,0.));
#865=DIRECTION('',(0.,0.,1.));
#866=DIRECTION('',(0.,-1.,0.));
#867=DIRECTION('',(0.,0.,1.));
#868=DIRECTION('',(0.,-1.,0.));
#869=DIRECTION('',(0.,0.,-1.));
#870=DIRECTION('',(0.,-1.,0.));
#871=DIRECTION('',(0.,1.,0.));
#872=DIRECTION('',(0.,0.,1.));
#873=DIRECTION('',(0.,1.,0.));
#874=DIRECTION('',(0.,0.,1.));
#875=DIRECTION('',(-2.72355538188947E-8,0.,1.));
#876=DIRECTION('',(1.,0.,2.72355538188947E-8));
#877=DIRECTION('',(0.,-1.,0.));
#878=DIRECTION('',(-1.,0.,-2.72355538188947E-8));
#879=DIRECTION('',(-1.,0.,-2.72355538188947E-8));
#880=DIRECTION('',(0.,-1.,0.));
#881=DIRECTION('',(0.,0.,-1.));
#882=DIRECTION('',(0.,-1.,0.));
#883=DIRECTION('',(0.,1.,0.));
#884=DIRECTION('',(0.,0.,1.));
#885=DIRECTION('',(0.,1.,0.));
#886=DIRECTION('',(0.,0.,1.));
#887=DIRECTION('',(-1.,0.,1.23908819712629E-16));
#888=DIRECTION('',(1.23908819712629E-16,0.,1.));
#889=DIRECTION('',(0.,-1.,0.));
#890=DIRECTION('',(-1.23908819712629E-16,0.,-1.));
#891=DIRECTION('',(-1.23908819712629E-16,0.,-1.));
#892=DIRECTION('',(0.,-1.,0.));
#893=DIRECTION('',(0.,0.,-1.));
#894=DIRECTION('',(0.,-1.,0.));
#895=DIRECTION('',(0.,1.,0.));
#896=DIRECTION('',(0.,0.,1.));
#897=DIRECTION('',(0.,1.,0.));
#898=DIRECTION('',(0.,0.,1.));
#899=DIRECTION('',(-1.34084863264835E-16,0.,-1.));
#900=DIRECTION('',(-1.,0.,1.34084863264835E-16));
#901=DIRECTION('',(0.,-1.,0.));
#902=DIRECTION('',(1.,0.,-1.34084863264835E-16));
#903=DIRECTION('',(1.,0.,-1.34084863264835E-16));
#904=DIRECTION('',(1.,0.,0.));
#905=DIRECTION('',(0.,0.,-1.));
#906=DIRECTION('',(0.,-1.,0.));
#907=DIRECTION('',(0.,0.,1.));
#908=DIRECTION('',(0.,0.,1.));
#909=DIRECTION('',(0.,0.,-1.));
#910=DIRECTION('',(-1.,0.,0.));
#911=DIRECTION('',(1.,0.,0.));
#912=DIRECTION('',(0.,1.,0.));
#913=DIRECTION('',(1.,0.,0.));
#914=DIRECTION('',(0.,1.,0.));
#915=DIRECTION('',(1.,0.,0.));
#916=DIRECTION('',(1.,0.,0.));
#917=DIRECTION('',(0.,1.,0.));
#918=DIRECTION('',(-1.,0.,0.));
#919=DIRECTION('',(0.,0.,1.));
#920=DIRECTION('',(1.,0.,0.));
#921=DIRECTION('',(0.,1.,0.));
#922=DIRECTION('',(0.,0.,1.));
#923=DIRECTION('',(1.,0.,0.));
#924=DIRECTION('',(0.,0.,1.));
#925=DIRECTION('',(0.,1.,0.));
#926=DIRECTION('',(0.,0.,1.));
#927=DIRECTION('',(-1.,0.,-2.72355538188947E-8));
#928=DIRECTION('',(0.,1.,0.));
#929=DIRECTION('',(0.,0.,1.));
#930=DIRECTION('',(-1.23908819712629E-16,0.,-1.));
#931=DIRECTION('',(0.,1.,0.));
#932=DIRECTION('',(0.,0.,1.));
#933=DIRECTION('',(1.,0.,-1.34084863264835E-16));
#934=DIRECTION('',(0.,1.,0.));
#935=DIRECTION('',(0.,0.,1.));
#936=DIRECTION('',(0.,1.,0.));
#937=DIRECTION('',(0.,0.,1.));
#938=DIRECTION('',(0.,1.,0.));
#939=DIRECTION('',(0.,0.,1.));
#940=DIRECTION('',(0.,1.,0.));
#941=DIRECTION('',(0.,0.,1.));
#942=DIRECTION('',(0.,1.,0.));
#943=DIRECTION('',(0.,0.,1.));
#944=DIRECTION('',(0.,1.,0.));
#945=DIRECTION('',(0.,0.,1.));
#946=DIRECTION('',(-1.,0.,0.));
#947=DIRECTION('',(0.,0.,-1.));
#948=DIRECTION('',(1.,0.,0.));
#949=DIRECTION('',(0.,0.,1.));
#950=DIRECTION('',(0.,1.,0.));
#951=DIRECTION('',(-1.,0.,0.));
#952=DIRECTION('',(0.,1.,0.));
#953=DIRECTION('',(0.,0.,1.));
#954=DIRECTION('',(0.,0.,-1.));
#955=DIRECTION('',(-1.,0.,0.));
#956=DIRECTION('',(0.,0.,1.));
#957=DIRECTION('',(1.,0.,0.));
#958=DIRECTION('',(0.,0.,-1.));
#959=DIRECTION('',(-1.,0.,0.));
#960=DIRECTION('',(0.,1.,0.));
#961=DIRECTION('',(0.,1.,0.));
#962=DIRECTION('',(-1.,0.,0.));
#963=DIRECTION('',(0.,0.,1.));
#964=DIRECTION('',(0.,1.,0.));
#965=DIRECTION('',(0.,0.,1.));
#966=DIRECTION('',(1.,0.,0.));
#967=DIRECTION('',(0.,1.,0.));
#968=DIRECTION('',(1.,0.,0.));
#969=DIRECTION('',(0.,0.,-1.));
#970=DIRECTION('',(0.,1.,0.));
#971=DIRECTION('',(0.,0.,1.));
#972=DIRECTION('',(0.,1.,0.));
#973=DIRECTION('',(0.,0.,1.));
#974=DIRECTION('',(0.,1.,0.));
#975=DIRECTION('',(0.,0.,1.));
#976=DIRECTION('',(0.,1.,0.));
#977=DIRECTION('',(-1.,0.,0.));
#978=DIRECTION('',(0.,1.,0.));
#979=DIRECTION('',(0.,0.,1.));
#980=DIRECTION('',(0.,1.,0.));
#981=DIRECTION('',(0.,0.,1.));
#982=DIRECTION('',(0.,1.,0.));
#983=DIRECTION('',(-1.,0.,0.));
#984=DIRECTION('',(0.,1.,0.));
#985=DIRECTION('',(0.,0.,1.));
#986=DIRECTION('',(0.,1.,0.));
#987=DIRECTION('',(0.,0.,1.));
#988=DIRECTION('',(0.,1.,0.));
#989=DIRECTION('',(-1.,0.,0.));
#990=DIRECTION('',(0.,1.,0.));
#991=DIRECTION('',(0.,0.,1.));
#992=DIRECTION('',(0.,1.,0.));
#993=DIRECTION('',(0.,0.,1.));
#994=DIRECTION('',(0.,1.,0.));
#995=DIRECTION('',(-1.,0.,0.));
#996=DIRECTION('',(0.,1.,0.));
#997=DIRECTION('',(0.,0.,1.));
#998=DIRECTION('',(0.,1.,0.));
#999=DIRECTION('',(0.,0.,1.));
#1000=DIRECTION('',(0.,1.,0.));
#1001=DIRECTION('',(-1.,0.,0.));
#1002=DIRECTION('',(0.,1.,0.));
#1003=DIRECTION('',(-1.,0.,0.));
#1004=DIRECTION('',(0.,1.,0.));
#1005=DIRECTION('',(0.,0.,1.));
#1006=DIRECTION('',(0.,1.,0.));
#1007=DIRECTION('',(0.,0.,1.));
#1008=DIRECTION('',(-1.,0.,0.));
#1009=DIRECTION('',(0.,0.,1.));
#1010=DIRECTION('',(-0.707106781186548,0.,0.707106781186548));
#1011=DIRECTION('',(0.707106781186548,0.,0.707106781186548));
#1012=DIRECTION('',(0.,0.,1.));
#1013=DIRECTION('',(1.,0.,0.));
#1014=DIRECTION('',(0.,0.,-1.));
#1015=DIRECTION('',(-1.,0.,0.));
#1016=DIRECTION('',(0.,1.,0.));
#1017=DIRECTION('',(0.,0.,1.));
#1018=DIRECTION('',(-0.999999301167001,0.,-0.00118222904252341));
#1019=DIRECTION('',(-0.00118222904252341,0.,0.999999301167001));
#1020=DIRECTION('',(1.,0.,2.72355538188947E-8));
#1021=DIRECTION('',(2.72355538188947E-8,0.,-1.));
#1022=DIRECTION('',(-1.,0.,-2.72355536561077E-8));
#1023=DIRECTION('',(-2.72355536561077E-8,0.,1.));
#1024=DIRECTION('',(0.,1.,0.));
#1025=DIRECTION('',(0.,0.,1.));
#1026=DIRECTION('',(-0.00117439852542365,0.,0.999999310393814));
#1027=DIRECTION('',(0.999999310393814,0.,0.00117439852542365));
#1028=DIRECTION('',(-1.23908819712629E-16,0.,-1.));
#1029=DIRECTION('',(-1.,0.,1.23908819712629E-16));
#1030=DIRECTION('',(0.,0.,1.));
#1031=DIRECTION('',(1.,0.,0.));
#1032=DIRECTION('',(0.,1.,0.));
#1033=DIRECTION('',(0.,0.,1.));
#1034=DIRECTION('',(1.,0.,2.60208521396521E-15));
#1035=DIRECTION('',(2.60208521396521E-15,0.,-1.));
#1036=DIRECTION('',(-1.,0.,0.));
#1037=DIRECTION('',(0.,0.,1.));
#1038=DIRECTION('',(-0.707106781186548,0.,0.707106781186548));
#1039=DIRECTION('',(0.707106781186548,0.,0.707106781186548));
#1040=DIRECTION('',(-1.,0.,1.34084863264835E-16));
#1041=DIRECTION('',(1.34084863264835E-16,0.,1.));
#1042=DIRECTION('',(-0.707106781186548,0.,0.707106781186548));
#1043=DIRECTION('',(-0.707106781186548,0.,-0.707106781186548));
#1044=DIRECTION('',(0.,0.,1.));
#1045=DIRECTION('',(1.,0.,0.));
#1046=CARTESIAN_POINT('',(0.,0.,0.));
#1047=CARTESIAN_POINT('',(0.130725,0.0414201648,-0.02015));
#1048=CARTESIAN_POINT('',(0.130725,0.0364201648,-0.02015));
#1049=CARTESIAN_POINT('',(0.130725,0.0364201648,-0.017));
#1050=CARTESIAN_POINT('',(0.130725,0.0379201648,-0.02015));
#1051=CARTESIAN_POINT('',(0.130725,0.0379201648,-0.017));
#1052=CARTESIAN_POINT('',(0.2567250332618,0.0414201648,-0.0201499667383206));
#1053=CARTESIAN_POINT('',(0.2567250332618,0.0364201648,-0.0201499667383206));
#1054=CARTESIAN_POINT('',(0.2567250332618,0.0364201648,-0.0169999667383206));
#1055=CARTESIAN_POINT('',(0.2567250332618,0.0379201648,-0.0201499667383206));
#1056=CARTESIAN_POINT('',(0.2567250332618,0.0379201648,-0.0169999667383206));
#1057=CARTESIAN_POINT('',(0.256725006862964,0.0414201648,-0.07615));
#1058=CARTESIAN_POINT('',(0.256725006862964,0.0364201648,-0.07615));
#1059=CARTESIAN_POINT('',(0.256725006862964,0.0364201648,-0.073));
#1060=CARTESIAN_POINT('',(0.256725006862964,0.0379201648,-0.07615));
#1061=CARTESIAN_POINT('',(0.256725006862964,0.0379201648,-0.073));
#1062=CARTESIAN_POINT('',(0.0047249667381975,0.0414201648,-0.0201499667383205));
#1063=CARTESIAN_POINT('',(0.0047249667381975,0.0364201648,-0.0201499667383205));
#1064=CARTESIAN_POINT('',(0.0047249667381975,0.0364201648,-0.0169999667383205));
#1065=CARTESIAN_POINT('',(0.0047249667381975,0.0379201648,-0.0201499667383205));
#1066=CARTESIAN_POINT('',(0.0047249667381975,0.0379201648,-0.0169999667383205));
#1067=CARTESIAN_POINT('',(0.004725,0.0414201648,-0.07615));
#1068=CARTESIAN_POINT('',(0.004725,0.0364201648,-0.07615));
#1069=CARTESIAN_POINT('',(0.004725,0.0364201648,-0.073));
#1070=CARTESIAN_POINT('',(0.004725,0.0379201648,-0.07615));
#1071=CARTESIAN_POINT('',(0.004725,0.0379201648,-0.073));
#1072=CARTESIAN_POINT('',(0.130725,0.0414201648,-0.07615));
#1073=CARTESIAN_POINT('',(0.130725,0.0364201648,-0.07615));
#1074=CARTESIAN_POINT('',(0.130725,0.0364201648,-0.073));
#1075=CARTESIAN_POINT('',(0.130725,0.0379201648,-0.07615));
#1076=CARTESIAN_POINT('',(0.130725,0.0379201648,-0.073));
#1077=CARTESIAN_POINT('',(0.265225,0.0414201648,-0.0179));
#1078=CARTESIAN_POINT('',(0.265225,0.0414201648,-0.07615));
#1079=CARTESIAN_POINT('',(0.265225,0.0394201648,-0.07615));
#1080=CARTESIAN_POINT('',(0.265225,0.0364201648,-0.07615));
#1081=CARTESIAN_POINT('',(0.265225,0.0394201648,-0.0179));
#1082=CARTESIAN_POINT('',(0.265225,0.0394201648,-0.01565));
#1083=CARTESIAN_POINT('',(0.265225,0.0414201648,-0.01565));
#1084=CARTESIAN_POINT('',(0.265225,0.0364201648,-0.01565));
#1085=CARTESIAN_POINT('',(0.265225,0.0364201648,-0.0179));
#1086=CARTESIAN_POINT('',(0.25671500587652,0.0414201648,-0.0761399990837074));
#1087=CARTESIAN_POINT('',(0.256725066645671,0.0414201648,-0.0846499931366386));
#1088=CARTESIAN_POINT('',(0.256725066645671,0.0394201648,-0.0846499931366386));
#1089=CARTESIAN_POINT('',(0.256725066645671,0.0364201648,-0.0846499931366386));
#1090=CARTESIAN_POINT('',(0.25671500587652,0.0394201648,-0.0761399990837074));
#1091=CARTESIAN_POINT('',(0.25671500587652,0.0364201648,-0.0761399990837074));
#1092=CARTESIAN_POINT('',(0.130725033322836,0.0414201648,-0.0846499965683193));
#1093=CARTESIAN_POINT('',(0.004725,0.0414201648,-0.08465));
#1094=CARTESIAN_POINT('',(0.004725,0.0394201648,-0.08465));
#1095=CARTESIAN_POINT('',(0.004725,0.0364201648,-0.08465));
#1096=CARTESIAN_POINT('',(0.256725066645671,0.0394201648,-0.0846499931366386));
#1097=CARTESIAN_POINT('',(0.130725033322836,0.0364201648,-0.0846499965683193));
#1098=CARTESIAN_POINT('',(0.00473499413145121,0.0414201648,-0.0761400058685487));
#1099=CARTESIAN_POINT('',(-0.00377500000000015,0.0414201648,-0.07615));
#1100=CARTESIAN_POINT('',(-0.00377500000000015,0.0394201648,-0.07615));
#1101=CARTESIAN_POINT('',(-0.00377500000000015,0.0364201648,-0.07615));
#1102=CARTESIAN_POINT('',(0.00473499413145121,0.0394201648,-0.0761400058685487));
#1103=CARTESIAN_POINT('',(0.00473499413145121,0.0364201648,-0.0761400058685487));
#1104=CARTESIAN_POINT('',(-0.00377500000000014,0.0414201648,-0.04815));
#1105=CARTESIAN_POINT('',(-0.00377500000000014,0.0414201648,-0.02015));
#1106=CARTESIAN_POINT('',(-0.00377500000000014,0.0394201648,-0.02015));
#1107=CARTESIAN_POINT('',(-0.00377500000000014,0.0364201648,-0.02015));
#1108=CARTESIAN_POINT('',(-0.00377500000000014,0.0394201648,-0.04815));
#1109=CARTESIAN_POINT('',(-0.00377500000000014,0.0364201648,-0.04815));
#1110=CARTESIAN_POINT('',(0.00472496673819752,0.0414201648,-0.0201499667382628));
#1111=CARTESIAN_POINT('',(0.0047249667381975,0.0414201648,-0.01165));
#1112=CARTESIAN_POINT('',(0.0047249667381975,0.0394201648,-0.01165));
#1113=CARTESIAN_POINT('',(0.0047249667381975,0.0364201648,-0.01165));
#1114=CARTESIAN_POINT('',(0.00472496673819752,0.0394201648,-0.0201499667382628));
#1115=CARTESIAN_POINT('',(0.00472496673819752,0.0364201648,-0.0201499667382628));
#1116=CARTESIAN_POINT('',(0.108224999999999,0.0414201648,-0.01165));
#1117=CARTESIAN_POINT('',(0.2117250332618,0.0414201648,-0.01165));
#1118=CARTESIAN_POINT('',(0.2117250332618,0.0394201648,-0.01165));
#1119=CARTESIAN_POINT('',(0.2117250332618,0.0364201648,-0.01165));
#1120=CARTESIAN_POINT('',(0.0047249667381975,0.0394201648,-0.01165));
#1121=CARTESIAN_POINT('',(0.108224999999999,0.0364201648,-0.01165));
#1122=CARTESIAN_POINT('',(0.2117250332618,0.0414201648,-0.01365));
#1123=CARTESIAN_POINT('',(0.2117250332618,0.0414201648,-0.01565));
#1124=CARTESIAN_POINT('',(0.2117250332618,0.0394201648,-0.01565));
#1125=CARTESIAN_POINT('',(0.2117250332618,0.0364201648,-0.01565));
#1126=CARTESIAN_POINT('',(0.2117250332618,0.0394201648,-0.01365));
#1127=CARTESIAN_POINT('',(0.2117250332618,0.0364201648,-0.01365));
#1128=CARTESIAN_POINT('',(0.282975,0.0414201648,-0.01565));
#1129=CARTESIAN_POINT('',(0.259887358253639,0.0394201648,-0.01565));
#1130=CARTESIAN_POINT('',(0.259887358253639,0.0394201648,-0.01565));
#1131=CARTESIAN_POINT('',(0.259887358253639,0.0379201648,-0.01565));
#1132=CARTESIAN_POINT('',(0.259887358253639,0.0379201648,-0.01565));
#1133=CARTESIAN_POINT('',(0.282975,0.0379201648,-0.01565));
#1134=CARTESIAN_POINT('',(0.253562708269962,0.0379201648,-0.01565));
#1135=CARTESIAN_POINT('',(0.253562708269962,0.0379201648,-0.01565));
#1136=CARTESIAN_POINT('',(0.253562708269962,0.0394201648,-0.01565));
#1137=CARTESIAN_POINT('',(0.2117250332618,0.0394201648,-0.01565));
#1138=CARTESIAN_POINT('',(0.282975,0.0364201648,-0.01565));
#1139=CARTESIAN_POINT('',(0.130725,0.0414201648,-0.0347365405176338));
#1140=CARTESIAN_POINT('',(0.2097250332618,0.0414201648,-0.0347365405176338));
#1141=CARTESIAN_POINT('',(0.2097250332618,0.0414201648,-0.01365));
#1142=CARTESIAN_POINT('',(0.2097250332618,0.0414201648,-0.01765));
#1143=CARTESIAN_POINT('',(0.253562708269962,0.0414201648,-0.01765));
#1144=CARTESIAN_POINT('',(0.251826036802596,0.0414201648,-0.01765));
#1145=CARTESIAN_POINT('',(0.2567250332618,0.0414201648,-0.0201499667383206));
#1146=CARTESIAN_POINT('',(0.261624029721004,0.0414201648,-0.01765));
#1147=CARTESIAN_POINT('',(0.265225,0.0414201648,-0.01765));
#1148=CARTESIAN_POINT('',(0.263225,0.0414201648,-0.01765));
#1149=CARTESIAN_POINT('',(0.263225,0.0414201648,-0.0347365405176338));
#1150=CARTESIAN_POINT('',(0.26322499819462,0.0414201648,-0.0761499999972265));
#1151=CARTESIAN_POINT('',(0.25671500587652,0.0414201648,-0.0761399990837074));
#1152=CARTESIAN_POINT('',(0.256722702187586,0.0414201648,-0.082649993136703));
#1153=CARTESIAN_POINT('',(0.00472499994552886,0.0414201648,-0.08265));
#1154=CARTESIAN_POINT('',(0.00472499994829684,0.0414201648,-0.0826499981969852));
#1155=CARTESIAN_POINT('',(0.00473499413145121,0.0414201648,-0.0761400058685487));
#1156=CARTESIAN_POINT('',(-0.00177500000000015,0.0414201648,-0.0761476512029492));
#1157=CARTESIAN_POINT('',(-0.00177500000000014,0.0414201648,-0.0347365405176338));
#1158=CARTESIAN_POINT('',(-0.00177499999998012,0.0414201648,-0.02015));
#1159=CARTESIAN_POINT('',(0.00472496673819752,0.0414201648,-0.0201499667382628));
#1160=CARTESIAN_POINT('',(0.00472496673819751,0.0414201648,-0.01365));
#1161=CARTESIAN_POINT('',(0.2117250332618,0.0414201648,-0.01365));
#1162=CARTESIAN_POINT('',(0.130725,0.0414201648,-0.02015));
#1163=CARTESIAN_POINT('',(0.130725,0.0414201648,-0.01465));
#1164=CARTESIAN_POINT('',(0.256725006862964,0.0414201648,-0.07615));
#1165=CARTESIAN_POINT('',(0.256725006862964,0.0414201648,-0.07065));
#1166=CARTESIAN_POINT('',(0.0047249667381975,0.0414201648,-0.0201499667383205));
#1167=CARTESIAN_POINT('',(0.0047249667381975,0.0414201648,-0.0146499667383205));
#1168=CARTESIAN_POINT('',(0.130725,0.0414201648,-0.07615));
#1169=CARTESIAN_POINT('',(0.130725,0.0414201648,-0.07065));
#1170=CARTESIAN_POINT('',(0.004725,0.0414201648,-0.07615));
#1171=CARTESIAN_POINT('',(0.004725,0.0414201648,-0.07065));
#1172=CARTESIAN_POINT('',(0.133325641727526,0.0414201648,-0.042193600301111));
#1173=CARTESIAN_POINT('',(0.133325641727526,0.0414201648,-0.036693600301111));
#1174=CARTESIAN_POINT('',(0.186979396531014,0.0414201648,-0.0452642997919195));
#1175=CARTESIAN_POINT('',(0.190889396531013,0.0414201648,-0.0452642997919195));
#1176=CARTESIAN_POINT('',(0.170369396531013,0.0414201648,-0.0452642997919195));
#1177=CARTESIAN_POINT('',(0.190889396531013,0.0414201648,-0.0405287997919195));
#1178=CARTESIAN_POINT('',(0.190889396531013,0.0414201648,-0.0357932997919195));
#1179=CARTESIAN_POINT('',(0.171104396531014,0.0414201648,-0.0357932997919195));
#1180=CARTESIAN_POINT('',(0.170369396531013,0.0414201648,-0.0357932997919195));
#1181=CARTESIAN_POINT('',(0.170369396531013,0.0414201648,-0.0405287997919195));
#1182=CARTESIAN_POINT('',(0.130725,0.0364201648,-0.0347365405176338));
#1183=CARTESIAN_POINT('',(0.133325641727526,0.0364201648,-0.042193600301111));
#1184=CARTESIAN_POINT('',(0.133325641727526,0.0364201648,-0.036693600301111));
#1185=CARTESIAN_POINT('',(0.190889396531013,0.0364201648,-0.0347365405176338));
#1186=CARTESIAN_POINT('',(0.190889396531013,0.0364201648,-0.0357932997919195));
#1187=CARTESIAN_POINT('',(0.190889396531013,0.0364201648,-0.0452642997919195));
#1188=CARTESIAN_POINT('',(0.130725,0.0364201648,-0.0452642997919195));
#1189=CARTESIAN_POINT('',(0.170369396531013,0.0364201648,-0.0452642997919195));
#1190=CARTESIAN_POINT('',(0.170369396531013,0.0364201648,-0.0347365405176338));
#1191=CARTESIAN_POINT('',(0.170369396531013,0.0364201648,-0.0357932997919195));
#1192=CARTESIAN_POINT('',(0.130725,0.0364201648,-0.0357932997919195));
#1193=CARTESIAN_POINT('',(0.186979396531014,0.0164201648,-0.0452642997919195));
#1194=CARTESIAN_POINT('',(0.190889396531013,0.0164201648,-0.0452642997919195));
#1195=CARTESIAN_POINT('',(0.170369396531013,0.0164201648,-0.0452642997919195));
#1196=CARTESIAN_POINT('',(0.170369396531013,0.0164201648,-0.0405287997919195));
#1197=CARTESIAN_POINT('',(0.170369396531013,0.0164201648,-0.0357932997919195));
#1198=CARTESIAN_POINT('',(0.171104396531014,0.0164201648,-0.0357932997919195));
#1199=CARTESIAN_POINT('',(0.190889396531013,0.0164201648,-0.0357932997919195));
#1200=CARTESIAN_POINT('',(0.190889396531013,0.0164201648,-0.0405287997919195));
#1201=CARTESIAN_POINT('',(0.133325641727526,0.0164201648,-0.042193600301111));
#1202=CARTESIAN_POINT('',(0.004725,0.0379201648,-0.07615));
#1203=CARTESIAN_POINT('',(0.004725,0.0379201648,-0.07615));
#1204=CARTESIAN_POINT('',(0.004725,0.0379201648,-0.07065));
#1205=CARTESIAN_POINT('',(0.130724999999967,0.0379201648,-0.04815));
#1206=CARTESIAN_POINT('',(0.130725,0.0379201648,-0.07615));
#1207=CARTESIAN_POINT('',(0.130725,0.0379201648,-0.07615));
#1208=CARTESIAN_POINT('',(0.130725,0.0379201648,-0.07065));
#1209=CARTESIAN_POINT('',(0.130724999999967,0.0379201648,-0.04815));
#1210=CARTESIAN_POINT('',(0.0047249667381975,0.0379201648,-0.0201499667383205));
#1211=CARTESIAN_POINT('',(0.0047249667381975,0.0379201648,-0.0201499667383205));
#1212=CARTESIAN_POINT('',(0.0047249667381975,0.0379201648,-0.0146499667383205));
#1213=CARTESIAN_POINT('',(0.130724999999967,0.0379201648,-0.04815));
#1214=CARTESIAN_POINT('',(0.256725006862964,0.0379201648,-0.07615));
#1215=CARTESIAN_POINT('',(0.256725006862964,0.0379201648,-0.07615));
#1216=CARTESIAN_POINT('',(0.256725006862964,0.0379201648,-0.07065));
#1217=CARTESIAN_POINT('',(0.130724999999967,0.0379201648,-0.04815));
#1218=CARTESIAN_POINT('',(0.130725,0.0379201648,-0.02015));
#1219=CARTESIAN_POINT('',(0.130725,0.0379201648,-0.02015));
#1220=CARTESIAN_POINT('',(0.130725,0.0379201648,-0.01465));
#1221=CARTESIAN_POINT('',(0.130724999999967,0.0379201648,-0.04815));
#1222=CARTESIAN_POINT('',(0.130724999999967,0.0379201648,-0.04815));
#1223=CARTESIAN_POINT('',(0.2567250332618,0.0379201648,-0.0201499667383206));
#1224=CARTESIAN_POINT('',(0.2567250332618,0.0379201648,-0.0201499667383206));
#1225=CARTESIAN_POINT('',(0.259887358253639,0.0394201648,-0.01565));
#1226=CARTESIAN_POINT('',(0.259887358253639,0.0397275632595072,-0.01565));
#1227=CARTESIAN_POINT('',(0.260101015424211,0.0403040487779652,-0.0157961278537507));
#1228=CARTESIAN_POINT('',(0.260804236189224,0.0411072754264476,-0.0163995894690039));
#1229=CARTESIAN_POINT('',(0.26134615551827,0.0414201648,-0.0171054708610988));
#1230=CARTESIAN_POINT('',(0.261624029721004,0.0414201648,-0.01765));
#1231=CARTESIAN_POINT('',(0.251826036802596,0.0414201648,-0.01765));
#1232=CARTESIAN_POINT('',(0.252104168553737,0.0414201648,-0.0171049661628912));
#1233=CARTESIAN_POINT('',(0.252644605005555,0.0411082285820178,-0.0164009228115977));
#1234=CARTESIAN_POINT('',(0.25334901339355,0.0403043581421406,-0.015796084693605));
#1235=CARTESIAN_POINT('',(0.253562708269962,0.0397275200950115,-0.01565));
#1236=CARTESIAN_POINT('',(0.253562708269962,0.0394201648,-0.01565));
#1237=CARTESIAN_POINT('',(0.130725,0.0394201648,-0.01765));
#1238=CARTESIAN_POINT('',(0.263225,0.0394201648,-0.01765));
#1239=CARTESIAN_POINT('',(0.263225,0.0394201648,-0.0179));
#1240=CARTESIAN_POINT('',(0.263225,0.0394201648,-0.07615));
#1241=CARTESIAN_POINT('',(0.25671500587652,0.0394201648,-0.0761399990837074));
#1242=CARTESIAN_POINT('',(0.256722702187586,0.0394201648,-0.0826499945343046));
#1243=CARTESIAN_POINT('',(0.130725001304949,0.0394201648,-0.0826499965683202));
#1244=CARTESIAN_POINT('',(0.00472499994552884,0.0394201648,-0.08265));
#1245=CARTESIAN_POINT('',(0.00473499413145121,0.0394201648,-0.0761400058685487));
#1246=CARTESIAN_POINT('',(-0.00177500137921252,0.0394201648,-0.0761476512029492));
#1247=CARTESIAN_POINT('',(-0.00177500000000015,0.0394201648,-0.04815));
#1248=CARTESIAN_POINT('',(-0.00177500000000014,0.0394201648,-0.02015));
#1249=CARTESIAN_POINT('',(0.00472496673819752,0.0394201648,-0.0201499667382628));
#1250=CARTESIAN_POINT('',(0.00472496673819751,0.0394201648,-0.01365));
#1251=CARTESIAN_POINT('',(0.130725,0.0394201648,-0.01765));
#1252=CARTESIAN_POINT('',(0.2097250332618,0.0394201648,-0.01765));
#1253=CARTESIAN_POINT('',(0.130725,0.0394201648,-0.01365));
#1254=CARTESIAN_POINT('',(0.2097250332618,0.0394201648,-0.01365));
#1255=CARTESIAN_POINT('',(0.2097250332618,0.0394201648,-0.01365));
#1256=MECHANICAL_DESIGN_GEOMETRIC_PRESENTATION_REPRESENTATION('',(#724),
#1257);
#1257=(
GEOMETRIC_REPRESENTATION_CONTEXT(3)
GLOBAL_UNCERTAINTY_ASSIGNED_CONTEXT((#1258))
GLOBAL_UNIT_ASSIGNED_CONTEXT((#1261,#1260,#1259))
REPRESENTATION_CONTEXT('Pokrov V2','TOP_LEVEL_ASSEMBLY_PART')
);
#1258=UNCERTAINTY_MEASURE_WITH_UNIT(LENGTH_MEASURE(2.E-5),#1261,
'DISTANCE_ACCURACY_VALUE','Maximum Tolerance applied to model');
#1259=(
NAMED_UNIT(*)
SI_UNIT($,.STERADIAN.)
SOLID_ANGLE_UNIT()
);
#1260=(
NAMED_UNIT(*)
PLANE_ANGLE_UNIT()
SI_UNIT($,.RADIAN.)
);
#1261=(
LENGTH_UNIT()
NAMED_UNIT(*)
SI_UNIT($,.METRE.)
);
#1262=PRODUCT_DEFINITION_SHAPE('','',#1263);
#1263=PRODUCT_DEFINITION('','',#1265,#1264);
#1264=PRODUCT_DEFINITION_CONTEXT('',#1271,'design');
#1265=PRODUCT_DEFINITION_FORMATION_WITH_SPECIFIED_SOURCE('','',#1267,
 .NOT_KNOWN.);
#1266=PRODUCT_RELATED_PRODUCT_CATEGORY('','',(#1267));
#1267=PRODUCT('Pokrov V2','Pokrov V2','Pokrov V2',(#1269));
#1268=PRODUCT_CATEGORY('','');
#1269=PRODUCT_CONTEXT('',#1271,'mechanical');
#1270=APPLICATION_PROTOCOL_DEFINITION('international standard',
'ap242_managed_model_based_3d_engineering',2020,#1271);
#1271=APPLICATION_CONTEXT('managed model based 3d engineering');
ENDSEC;
END-ISO-10303-21;
